%FSLAX33Y33*%
%MOMM*%
%AMRect-W2000000-H2000000-RO0.500*
21,1,2.,2.,0.,0.,270*%
%ADD10C,0.0508*%
%ADD11C,3.*%
%ADD12C,2.*%
%ADD13Rect-W2000000-H2000000-RO0.500*%
D10*
%LNpour fill*%
G01*
X299500Y10500D02*
X299500Y10500D01*
X0520Y10500*
X0520Y0500*
X299500Y0500*
X299500Y10500*
X5500Y6796D02*
X3500Y6796D01*
X3468Y6798*
X3437Y6806*
X3407Y6818*
X3380Y6835*
X3356Y6856*
X3335Y6880*
X3318Y6907*
X3306Y6937*
X3298Y6968*
X3296Y7000*
X3296Y9000*
X3298Y9032*
X3306Y9063*
X3318Y9093*
X3335Y9120*
X3356Y9144*
X3380Y9165*
X3407Y9182*
X3437Y9194*
X3468Y9202*
X3500Y9204*
X5500Y9204*
X5532Y9202*
X5563Y9194*
X5593Y9182*
X5620Y9165*
X5644Y9144*
X5665Y9120*
X5682Y9093*
X5694Y9063*
X5702Y9032*
X5704Y9000*
X5704Y7000*
X5702Y6968*
X5694Y6937*
X5682Y6907*
X5665Y6880*
X5644Y6856*
X5620Y6835*
X5593Y6818*
X5563Y6806*
X5532Y6798*
X5500Y6796*
X267120Y2796D02*
X266518Y2864D01*
X265947Y3064*
X265434Y3386*
X265006Y3814*
X264684Y4327*
X264484Y4898*
X264416Y5500*
X264484Y6102*
X264684Y6673*
X265006Y7186*
X265434Y7614*
X265947Y7936*
X266518Y8136*
X267120Y8204*
X267722Y8136*
X268293Y7936*
X268806Y7614*
X269234Y7186*
X269556Y6673*
X269756Y6102*
X269824Y5500*
X269756Y4898*
X269556Y4327*
X269234Y3814*
X268806Y3386*
X268293Y3064*
X267722Y2864*
X267120Y2796*
X257120Y2796D02*
X256518Y2864D01*
X255947Y3064*
X255434Y3386*
X255006Y3814*
X254684Y4327*
X254484Y4898*
X254416Y5500*
X254484Y6102*
X254684Y6673*
X255006Y7186*
X255434Y7614*
X255947Y7936*
X256518Y8136*
X257120Y8204*
X257722Y8136*
X258293Y7936*
X258806Y7614*
X259234Y7186*
X259556Y6673*
X259756Y6102*
X259824Y5500*
X259756Y4898*
X259556Y4327*
X259234Y3814*
X258806Y3386*
X258293Y3064*
X257722Y2864*
X257120Y2796*
X247120Y2796D02*
X246518Y2864D01*
X245947Y3064*
X245434Y3386*
X245006Y3814*
X244684Y4327*
X244484Y4898*
X244416Y5500*
X244484Y6102*
X244684Y6673*
X245006Y7186*
X245434Y7614*
X245947Y7936*
X246518Y8136*
X247120Y8204*
X247722Y8136*
X248293Y7936*
X248806Y7614*
X249234Y7186*
X249556Y6673*
X249756Y6102*
X249824Y5500*
X249756Y4898*
X249556Y4327*
X249234Y3814*
X248806Y3386*
X248293Y3064*
X247722Y2864*
X247120Y2796*
X206880Y2796D02*
X206278Y2864D01*
X205707Y3064*
X205194Y3386*
X204766Y3814*
X204444Y4327*
X204244Y4898*
X204176Y5500*
X204244Y6102*
X204444Y6673*
X204766Y7186*
X205194Y7614*
X205707Y7936*
X206278Y8136*
X206880Y8204*
X207482Y8136*
X208053Y7936*
X208566Y7614*
X208994Y7186*
X209316Y6673*
X209516Y6102*
X209584Y5500*
X209516Y4898*
X209316Y4327*
X208994Y3814*
X208566Y3386*
X208053Y3064*
X207482Y2864*
X206880Y2796*
X196880Y2796D02*
X196278Y2864D01*
X195707Y3064*
X195194Y3386*
X194766Y3814*
X194444Y4327*
X194244Y4898*
X194176Y5500*
X194244Y6102*
X194444Y6673*
X194766Y7186*
X195194Y7614*
X195707Y7936*
X196278Y8136*
X196880Y8204*
X197482Y8136*
X198053Y7936*
X198566Y7614*
X198994Y7186*
X199316Y6673*
X199516Y6102*
X199584Y5500*
X199516Y4898*
X199316Y4327*
X198994Y3814*
X198566Y3386*
X198053Y3064*
X197482Y2864*
X196880Y2796*
X186880Y2796D02*
X186278Y2864D01*
X185707Y3064*
X185194Y3386*
X184766Y3814*
X184444Y4327*
X184244Y4898*
X184176Y5500*
X184244Y6102*
X184444Y6673*
X184766Y7186*
X185194Y7614*
X185707Y7936*
X186278Y8136*
X186880Y8204*
X187482Y8136*
X188053Y7936*
X188566Y7614*
X188994Y7186*
X189316Y6673*
X189516Y6102*
X189584Y5500*
X189516Y4898*
X189316Y4327*
X188994Y3814*
X188566Y3386*
X188053Y3064*
X187482Y2864*
X186880Y2796*
X26160Y2796D02*
X25558Y2864D01*
X24987Y3064*
X24474Y3386*
X24046Y3814*
X23724Y4327*
X23524Y4898*
X23456Y5500*
X23524Y6102*
X23724Y6673*
X24046Y7186*
X24474Y7614*
X24987Y7936*
X25558Y8136*
X26160Y8204*
X26762Y8136*
X27333Y7936*
X27846Y7614*
X28274Y7186*
X28596Y6673*
X28796Y6102*
X28864Y5500*
X28796Y4898*
X28596Y4327*
X28274Y3814*
X27846Y3386*
X27333Y3064*
X26762Y2864*
X26160Y2796*
X136640Y2796D02*
X136038Y2864D01*
X135467Y3064*
X134954Y3386*
X134526Y3814*
X134204Y4327*
X134004Y4898*
X133936Y5500*
X134004Y6102*
X134204Y6673*
X134526Y7186*
X134954Y7614*
X135467Y7936*
X136038Y8136*
X136640Y8204*
X137242Y8136*
X137813Y7936*
X138326Y7614*
X138754Y7186*
X139076Y6673*
X139276Y6102*
X139344Y5500*
X139276Y4898*
X139076Y4327*
X138754Y3814*
X138326Y3386*
X137813Y3064*
X137242Y2864*
X136640Y2796*
X126640Y2796D02*
X126038Y2864D01*
X125467Y3064*
X124954Y3386*
X124526Y3814*
X124204Y4327*
X124004Y4898*
X123936Y5500*
X124004Y6102*
X124204Y6673*
X124526Y7186*
X124954Y7614*
X125467Y7936*
X126038Y8136*
X126640Y8204*
X127242Y8136*
X127813Y7936*
X128326Y7614*
X128754Y7186*
X129076Y6673*
X129276Y6102*
X129344Y5500*
X129276Y4898*
X129076Y4327*
X128754Y3814*
X128326Y3386*
X127813Y3064*
X127242Y2864*
X126640Y2796*
X86400Y2796D02*
X85798Y2864D01*
X85227Y3064*
X84714Y3386*
X84286Y3814*
X83964Y4327*
X83764Y4898*
X83696Y5500*
X83764Y6102*
X83964Y6673*
X84286Y7186*
X84714Y7614*
X85227Y7936*
X85798Y8136*
X86400Y8204*
X87002Y8136*
X87573Y7936*
X88086Y7614*
X88514Y7186*
X88836Y6673*
X89036Y6102*
X89104Y5500*
X89036Y4898*
X88836Y4327*
X88514Y3814*
X88086Y3386*
X87573Y3064*
X87002Y2864*
X86400Y2796*
X76400Y2796D02*
X75798Y2864D01*
X75227Y3064*
X74714Y3386*
X74286Y3814*
X73964Y4327*
X73764Y4898*
X73696Y5500*
X73764Y6102*
X73964Y6673*
X74286Y7186*
X74714Y7614*
X75227Y7936*
X75798Y8136*
X76400Y8204*
X77002Y8136*
X77573Y7936*
X78086Y7614*
X78514Y7186*
X78836Y6673*
X79036Y6102*
X79104Y5500*
X79036Y4898*
X78836Y4327*
X78514Y3814*
X78086Y3386*
X77573Y3064*
X77002Y2864*
X76400Y2796*
X66400Y2796D02*
X65798Y2864D01*
X65227Y3064*
X64714Y3386*
X64286Y3814*
X63964Y4327*
X63764Y4898*
X63696Y5500*
X63764Y6102*
X63964Y6673*
X64286Y7186*
X64714Y7614*
X65227Y7936*
X65798Y8136*
X66400Y8204*
X67002Y8136*
X67573Y7936*
X68086Y7614*
X68514Y7186*
X68836Y6673*
X69036Y6102*
X69104Y5500*
X69036Y4898*
X68836Y4327*
X68514Y3814*
X68086Y3386*
X67573Y3064*
X67002Y2864*
X66400Y2796*
X16160Y2796D02*
X15558Y2864D01*
X14987Y3064*
X14474Y3386*
X14046Y3814*
X13724Y4327*
X13524Y4898*
X13456Y5500*
X13524Y6102*
X13724Y6673*
X14046Y7186*
X14474Y7614*
X14987Y7936*
X15558Y8136*
X16160Y8204*
X16762Y8136*
X17333Y7936*
X17846Y7614*
X18274Y7186*
X18596Y6673*
X18796Y6102*
X18864Y5500*
X18796Y4898*
X18596Y4327*
X18274Y3814*
X17846Y3386*
X17333Y3064*
X16762Y2864*
X16160Y2796*
X146640Y2796D02*
X146038Y2864D01*
X145467Y3064*
X144954Y3386*
X144526Y3814*
X144204Y4327*
X144004Y4898*
X143936Y5500*
X144004Y6102*
X144204Y6673*
X144526Y7186*
X144954Y7614*
X145467Y7936*
X146038Y8136*
X146640Y8204*
X147242Y8136*
X147813Y7936*
X148326Y7614*
X148754Y7186*
X149076Y6673*
X149276Y6102*
X149344Y5500*
X149276Y4898*
X149076Y4327*
X148754Y3814*
X148326Y3386*
X147813Y3064*
X147242Y2864*
X146640Y2796*
X294860Y3796D02*
X294481Y3839D01*
X294121Y3965*
X293797Y4168*
X293528Y4437*
X293325Y4761*
X293199Y5121*
X293156Y5500*
X293199Y5879*
X293325Y6239*
X293528Y6563*
X293797Y6832*
X294121Y7035*
X294481Y7161*
X294860Y7204*
X295239Y7161*
X295599Y7035*
X295923Y6832*
X296192Y6563*
X296395Y6239*
X296521Y5879*
X296564Y5500*
X296521Y5121*
X296395Y4761*
X296192Y4437*
X295923Y4168*
X295599Y3965*
X295239Y3839*
X294860Y3796*
X289780Y3796D02*
X289401Y3839D01*
X289041Y3965*
X288717Y4168*
X288448Y4437*
X288245Y4761*
X288119Y5121*
X288076Y5500*
X288119Y5879*
X288245Y6239*
X288448Y6563*
X288717Y6832*
X289041Y7035*
X289401Y7161*
X289780Y7204*
X290159Y7161*
X290519Y7035*
X290843Y6832*
X291112Y6563*
X291315Y6239*
X291441Y5879*
X291484Y5500*
X291441Y5121*
X291315Y4761*
X291112Y4437*
X290843Y4168*
X290519Y3965*
X290159Y3839*
X289780Y3796*
X279620Y3796D02*
X279241Y3839D01*
X278881Y3965*
X278557Y4168*
X278288Y4437*
X278085Y4761*
X277959Y5121*
X277916Y5500*
X277959Y5879*
X278085Y6239*
X278288Y6563*
X278557Y6832*
X278881Y7035*
X279241Y7161*
X279620Y7204*
X279999Y7161*
X280359Y7035*
X280683Y6832*
X280952Y6563*
X281155Y6239*
X281281Y5879*
X281324Y5500*
X281281Y5121*
X281155Y4761*
X280952Y4437*
X280683Y4168*
X280359Y3965*
X279999Y3839*
X279620Y3796*
X234620Y3796D02*
X234241Y3839D01*
X233881Y3965*
X233557Y4168*
X233288Y4437*
X233085Y4761*
X232959Y5121*
X232916Y5500*
X232959Y5879*
X233085Y6239*
X233288Y6563*
X233557Y6832*
X233881Y7035*
X234241Y7161*
X234620Y7204*
X234999Y7161*
X235359Y7035*
X235683Y6832*
X235952Y6563*
X236155Y6239*
X236281Y5879*
X236324Y5500*
X236281Y5121*
X236155Y4761*
X235952Y4437*
X235683Y4168*
X235359Y3965*
X234999Y3839*
X234620Y3796*
X229540Y3796D02*
X229161Y3839D01*
X228801Y3965*
X228477Y4168*
X228208Y4437*
X228005Y4761*
X227879Y5121*
X227836Y5500*
X227879Y5879*
X228005Y6239*
X228208Y6563*
X228477Y6832*
X228801Y7035*
X229161Y7161*
X229540Y7204*
X229919Y7161*
X230279Y7035*
X230603Y6832*
X230872Y6563*
X231075Y6239*
X231201Y5879*
X231244Y5500*
X231201Y5121*
X231075Y4761*
X230872Y4437*
X230603Y4168*
X230279Y3965*
X229919Y3839*
X229540Y3796*
X219380Y3796D02*
X219001Y3839D01*
X218641Y3965*
X218317Y4168*
X218048Y4437*
X217845Y4761*
X217719Y5121*
X217676Y5500*
X217719Y5879*
X217845Y6239*
X218048Y6563*
X218317Y6832*
X218641Y7035*
X219001Y7161*
X219380Y7204*
X219759Y7161*
X220119Y7035*
X220443Y6832*
X220712Y6563*
X220915Y6239*
X221041Y5879*
X221084Y5500*
X221041Y5121*
X220915Y4761*
X220712Y4437*
X220443Y4168*
X220119Y3965*
X219759Y3839*
X219380Y3796*
X174380Y3796D02*
X174001Y3839D01*
X173641Y3965*
X173317Y4168*
X173048Y4437*
X172845Y4761*
X172719Y5121*
X172676Y5500*
X172719Y5879*
X172845Y6239*
X173048Y6563*
X173317Y6832*
X173641Y7035*
X174001Y7161*
X174380Y7204*
X174759Y7161*
X175119Y7035*
X175443Y6832*
X175712Y6563*
X175915Y6239*
X176041Y5879*
X176084Y5500*
X176041Y5121*
X175915Y4761*
X175712Y4437*
X175443Y4168*
X175119Y3965*
X174759Y3839*
X174380Y3796*
X159140Y3796D02*
X158761Y3839D01*
X158401Y3965*
X158077Y4168*
X157808Y4437*
X157605Y4761*
X157479Y5121*
X157436Y5500*
X157479Y5879*
X157605Y6239*
X157808Y6563*
X158077Y6832*
X158401Y7035*
X158761Y7161*
X159140Y7204*
X159519Y7161*
X159879Y7035*
X160203Y6832*
X160472Y6563*
X160675Y6239*
X160801Y5879*
X160844Y5500*
X160801Y5121*
X160675Y4761*
X160472Y4437*
X160203Y4168*
X159879Y3965*
X159519Y3839*
X159140Y3796*
X114140Y3796D02*
X113761Y3839D01*
X113401Y3965*
X113077Y4168*
X112808Y4437*
X112605Y4761*
X112479Y5121*
X112436Y5500*
X112479Y5879*
X112605Y6239*
X112808Y6563*
X113077Y6832*
X113401Y7035*
X113761Y7161*
X114140Y7204*
X114519Y7161*
X114879Y7035*
X115203Y6832*
X115472Y6563*
X115675Y6239*
X115801Y5879*
X115844Y5500*
X115801Y5121*
X115675Y4761*
X115472Y4437*
X115203Y4168*
X114879Y3965*
X114519Y3839*
X114140Y3796*
X109060Y3796D02*
X108681Y3839D01*
X108321Y3965*
X107997Y4168*
X107728Y4437*
X107525Y4761*
X107399Y5121*
X107356Y5500*
X107399Y5879*
X107525Y6239*
X107728Y6563*
X107997Y6832*
X108321Y7035*
X108681Y7161*
X109060Y7204*
X109439Y7161*
X109799Y7035*
X110123Y6832*
X110392Y6563*
X110595Y6239*
X110721Y5879*
X110764Y5500*
X110721Y5121*
X110595Y4761*
X110392Y4437*
X110123Y4168*
X109799Y3965*
X109439Y3839*
X109060Y3796*
X98900Y3796D02*
X98521Y3839D01*
X98161Y3965*
X97837Y4168*
X97568Y4437*
X97365Y4761*
X97239Y5121*
X97196Y5500*
X97239Y5879*
X97365Y6239*
X97568Y6563*
X97837Y6832*
X98161Y7035*
X98521Y7161*
X98900Y7204*
X99279Y7161*
X99639Y7035*
X99963Y6832*
X100232Y6563*
X100435Y6239*
X100561Y5879*
X100604Y5500*
X100561Y5121*
X100435Y4761*
X100232Y4437*
X99963Y4168*
X99639Y3965*
X99279Y3839*
X98900Y3796*
X53900Y3796D02*
X53521Y3839D01*
X53161Y3965*
X52837Y4168*
X52568Y4437*
X52365Y4761*
X52239Y5121*
X52196Y5500*
X52239Y5879*
X52365Y6239*
X52568Y6563*
X52837Y6832*
X53161Y7035*
X53521Y7161*
X53900Y7204*
X54279Y7161*
X54639Y7035*
X54963Y6832*
X55232Y6563*
X55435Y6239*
X55561Y5879*
X55604Y5500*
X55561Y5121*
X55435Y4761*
X55232Y4437*
X54963Y4168*
X54639Y3965*
X54279Y3839*
X53900Y3796*
X48820Y3796D02*
X48441Y3839D01*
X48081Y3965*
X47757Y4168*
X47488Y4437*
X47285Y4761*
X47159Y5121*
X47116Y5500*
X47159Y5879*
X47285Y6239*
X47488Y6563*
X47757Y6832*
X48081Y7035*
X48441Y7161*
X48820Y7204*
X49199Y7161*
X49559Y7035*
X49883Y6832*
X50152Y6563*
X50355Y6239*
X50481Y5879*
X50524Y5500*
X50481Y5121*
X50355Y4761*
X50152Y4437*
X49883Y4168*
X49559Y3965*
X49199Y3839*
X48820Y3796*
X38660Y3796D02*
X38281Y3839D01*
X37921Y3965*
X37597Y4168*
X37328Y4437*
X37125Y4761*
X36999Y5121*
X36956Y5500*
X36999Y5879*
X37125Y6239*
X37328Y6563*
X37597Y6832*
X37921Y7035*
X38281Y7161*
X38660Y7204*
X39039Y7161*
X39399Y7035*
X39723Y6832*
X39992Y6563*
X40195Y6239*
X40321Y5879*
X40364Y5500*
X40321Y5121*
X40195Y4761*
X39992Y4437*
X39723Y4168*
X39399Y3965*
X39039Y3839*
X38660Y3796*
X169300Y3796D02*
X168921Y3839D01*
X168561Y3965*
X168237Y4168*
X167968Y4437*
X167765Y4761*
X167639Y5121*
X167596Y5500*
X167639Y5879*
X167765Y6239*
X167968Y6563*
X168237Y6832*
X168561Y7035*
X168921Y7161*
X169300Y7204*
X169679Y7161*
X170039Y7035*
X170363Y6832*
X170632Y6563*
X170835Y6239*
X170961Y5879*
X171004Y5500*
X170961Y5121*
X170835Y4761*
X170632Y4437*
X170363Y4168*
X170039Y3965*
X169679Y3839*
X169300Y3796*
X105659Y5725D02*
X104205Y5725D01*
X104205Y7179*
X104359Y7161*
X104719Y7035*
X105043Y6832*
X105312Y6563*
X105515Y6239*
X105641Y5879*
X105659Y5725*
X165899Y5725D02*
X164445Y5725D01*
X164445Y7179*
X164599Y7161*
X164959Y7035*
X165283Y6832*
X165552Y6563*
X165755Y6239*
X165881Y5879*
X165899Y5725*
X45419Y5725D02*
X43965Y5725D01*
X43965Y7179*
X44119Y7161*
X44479Y7035*
X44803Y6832*
X45072Y6563*
X45275Y6239*
X45401Y5879*
X45419Y5725*
X226139Y5725D02*
X224685Y5725D01*
X224685Y7179*
X224839Y7161*
X225199Y7035*
X225523Y6832*
X225792Y6563*
X225995Y6239*
X226121Y5879*
X226139Y5725*
X286379Y5725D02*
X284925Y5725D01*
X284925Y7179*
X285079Y7161*
X285439Y7035*
X285763Y6832*
X286032Y6563*
X286235Y6239*
X286361Y5879*
X286379Y5725*
X43515Y5725D02*
X42061Y5725D01*
X42079Y5879*
X42205Y6239*
X42408Y6563*
X42677Y6832*
X43001Y7035*
X43361Y7161*
X43515Y7179*
X43515Y5725*
X103755Y5725D02*
X102301Y5725D01*
X102319Y5879*
X102445Y6239*
X102648Y6563*
X102917Y6832*
X103241Y7035*
X103601Y7161*
X103755Y7179*
X103755Y5725*
X163995Y5725D02*
X162541Y5725D01*
X162559Y5879*
X162685Y6239*
X162888Y6563*
X163157Y6832*
X163481Y7035*
X163841Y7161*
X163995Y7179*
X163995Y5725*
X224235Y5725D02*
X222781Y5725D01*
X222799Y5879*
X222925Y6239*
X223128Y6563*
X223397Y6832*
X223721Y7035*
X224081Y7161*
X224235Y7179*
X224235Y5725*
X284475Y5725D02*
X283021Y5725D01*
X283039Y5879*
X283165Y6239*
X283368Y6563*
X283637Y6832*
X283961Y7035*
X284321Y7161*
X284475Y7179*
X284475Y5725*
X284925Y3821D02*
X284925Y5275D01*
X286379Y5275*
X286361Y5121*
X286235Y4761*
X286032Y4437*
X285763Y4168*
X285439Y3965*
X285079Y3839*
X284925Y3821*
X284475Y3821D02*
X284321Y3839D01*
X283961Y3965*
X283637Y4168*
X283368Y4437*
X283165Y4761*
X283039Y5121*
X283021Y5275*
X284475Y5275*
X284475Y3821*
X224685Y3821D02*
X224685Y5275D01*
X226139Y5275*
X226121Y5121*
X225995Y4761*
X225792Y4437*
X225523Y4168*
X225199Y3965*
X224839Y3839*
X224685Y3821*
X224235Y3821D02*
X224081Y3839D01*
X223721Y3965*
X223397Y4168*
X223128Y4437*
X222925Y4761*
X222799Y5121*
X222781Y5275*
X224235Y5275*
X224235Y3821*
X164445Y3821D02*
X164445Y5275D01*
X165899Y5275*
X165881Y5121*
X165755Y4761*
X165552Y4437*
X165283Y4168*
X164959Y3965*
X164599Y3839*
X164445Y3821*
X163995Y3821D02*
X163841Y3839D01*
X163481Y3965*
X163157Y4168*
X162888Y4437*
X162685Y4761*
X162559Y5121*
X162541Y5275*
X163995Y5275*
X163995Y3821*
X104205Y3821D02*
X104205Y5275D01*
X105659Y5275*
X105641Y5121*
X105515Y4761*
X105312Y4437*
X105043Y4168*
X104719Y3965*
X104359Y3839*
X104205Y3821*
X103755Y3821D02*
X103601Y3839D01*
X103241Y3965*
X102917Y4168*
X102648Y4437*
X102445Y4761*
X102319Y5121*
X102301Y5275*
X103755Y5275*
X103755Y3821*
X43965Y3821D02*
X43965Y5275D01*
X45419Y5275*
X45401Y5121*
X45275Y4761*
X45072Y4437*
X44803Y4168*
X44479Y3965*
X44119Y3839*
X43965Y3821*
X43515Y3821D02*
X43361Y3839D01*
X43001Y3965*
X42677Y4168*
X42408Y4437*
X42205Y4761*
X42079Y5121*
X42061Y5275*
X43515Y5275*
X43515Y3821*
X0520Y0550D02*
X299500Y0550D01*
X0520Y0599D02*
X299500Y0599D01*
X0520Y0649D02*
X299500Y0649D01*
X0520Y0698D02*
X299500Y0698D01*
X0520Y0748D02*
X299500Y0748D01*
X0520Y0797D02*
X299500Y0797D01*
X0520Y0847D02*
X299500Y0847D01*
X0520Y0896D02*
X299500Y0896D01*
X0520Y0946D02*
X299500Y0946D01*
X0520Y0995D02*
X299500Y0995D01*
X0520Y1045D02*
X299500Y1045D01*
X0520Y1094D02*
X299500Y1094D01*
X0520Y1144D02*
X299500Y1144D01*
X0520Y1193D02*
X299500Y1193D01*
X0520Y1243D02*
X299500Y1243D01*
X0520Y1292D02*
X299500Y1292D01*
X0520Y1342D02*
X299500Y1342D01*
X0520Y1392D02*
X299500Y1392D01*
X0520Y1441D02*
X299500Y1441D01*
X0520Y1491D02*
X299500Y1491D01*
X0520Y1540D02*
X299500Y1540D01*
X0520Y1590D02*
X299500Y1590D01*
X0520Y1639D02*
X299500Y1639D01*
X0520Y1689D02*
X299500Y1689D01*
X0520Y1738D02*
X299500Y1738D01*
X0520Y1788D02*
X299500Y1788D01*
X0520Y1837D02*
X299500Y1837D01*
X0520Y1887D02*
X299500Y1887D01*
X0520Y1936D02*
X299500Y1936D01*
X0520Y1986D02*
X299500Y1986D01*
X0520Y2035D02*
X299500Y2035D01*
X0520Y2085D02*
X299500Y2085D01*
X0520Y2134D02*
X299500Y2134D01*
X0520Y2184D02*
X299500Y2184D01*
X0520Y2234D02*
X299500Y2234D01*
X0520Y2283D02*
X299500Y2283D01*
X0520Y2333D02*
X299500Y2333D01*
X0520Y2382D02*
X299500Y2382D01*
X0520Y2432D02*
X299500Y2432D01*
X0520Y2481D02*
X299500Y2481D01*
X0520Y2531D02*
X299500Y2531D01*
X0520Y2580D02*
X299500Y2580D01*
X0520Y2630D02*
X299500Y2630D01*
X0520Y2679D02*
X299500Y2679D01*
X0520Y2729D02*
X299500Y2729D01*
X0520Y2778D02*
X299500Y2778D01*
X0520Y2828D02*
X15873Y2828D01*
X16447Y2828D02*
X25873Y2828D01*
X26447Y2828D02*
X66113Y2828D01*
X66687Y2828D02*
X76113Y2828D01*
X76687Y2828D02*
X86113Y2828D01*
X86687Y2828D02*
X126353Y2828D01*
X126927Y2828D02*
X136353Y2828D01*
X136927Y2828D02*
X146353Y2828D01*
X146927Y2828D02*
X186593Y2828D01*
X187167Y2828D02*
X196593Y2828D01*
X197167Y2828D02*
X206593Y2828D01*
X207167Y2828D02*
X246833Y2828D01*
X247407Y2828D02*
X256833Y2828D01*
X257407Y2828D02*
X266833Y2828D01*
X267407Y2828D02*
X299500Y2828D01*
X0520Y2877D02*
X15518Y2877D01*
X16802Y2877D02*
X25518Y2877D01*
X26802Y2877D02*
X65758Y2877D01*
X67042Y2877D02*
X75758Y2877D01*
X77042Y2877D02*
X85758Y2877D01*
X87042Y2877D02*
X125998Y2877D01*
X127282Y2877D02*
X135998Y2877D01*
X137282Y2877D02*
X145998Y2877D01*
X147282Y2877D02*
X186238Y2877D01*
X187522Y2877D02*
X196238Y2877D01*
X197522Y2877D02*
X206238Y2877D01*
X207522Y2877D02*
X246478Y2877D01*
X247762Y2877D02*
X256478Y2877D01*
X257762Y2877D02*
X266478Y2877D01*
X267762Y2877D02*
X299500Y2877D01*
X0520Y2927D02*
X15376Y2927D01*
X16944Y2927D02*
X25376Y2927D01*
X26944Y2927D02*
X65616Y2927D01*
X67184Y2927D02*
X75616Y2927D01*
X77184Y2927D02*
X85616Y2927D01*
X87184Y2927D02*
X125856Y2927D01*
X127424Y2927D02*
X135856Y2927D01*
X137424Y2927D02*
X145856Y2927D01*
X147424Y2927D02*
X186096Y2927D01*
X187664Y2927D02*
X196096Y2927D01*
X197664Y2927D02*
X206096Y2927D01*
X207664Y2927D02*
X246336Y2927D01*
X247904Y2927D02*
X256336Y2927D01*
X257904Y2927D02*
X266336Y2927D01*
X267904Y2927D02*
X299500Y2927D01*
X0520Y2976D02*
X15235Y2976D01*
X17085Y2976D02*
X25235Y2976D01*
X27085Y2976D02*
X65475Y2976D01*
X67325Y2976D02*
X75475Y2976D01*
X77325Y2976D02*
X85475Y2976D01*
X87325Y2976D02*
X125715Y2976D01*
X127565Y2976D02*
X135715Y2976D01*
X137565Y2976D02*
X145715Y2976D01*
X147565Y2976D02*
X185955Y2976D01*
X187805Y2976D02*
X195955Y2976D01*
X197805Y2976D02*
X205955Y2976D01*
X207805Y2976D02*
X246195Y2976D01*
X248045Y2976D02*
X256195Y2976D01*
X258045Y2976D02*
X266195Y2976D01*
X268045Y2976D02*
X299500Y2976D01*
X0520Y3026D02*
X15093Y3026D01*
X17227Y3026D02*
X25093Y3026D01*
X27227Y3026D02*
X65333Y3026D01*
X67467Y3026D02*
X75333Y3026D01*
X77467Y3026D02*
X85333Y3026D01*
X87467Y3026D02*
X125573Y3026D01*
X127707Y3026D02*
X135573Y3026D01*
X137707Y3026D02*
X145573Y3026D01*
X147707Y3026D02*
X185813Y3026D01*
X187947Y3026D02*
X195813Y3026D01*
X197947Y3026D02*
X205813Y3026D01*
X207947Y3026D02*
X246053Y3026D01*
X248187Y3026D02*
X256053Y3026D01*
X258187Y3026D02*
X266053Y3026D01*
X268187Y3026D02*
X299500Y3026D01*
X0520Y3076D02*
X14967Y3076D01*
X17353Y3076D02*
X24967Y3076D01*
X27353Y3076D02*
X65207Y3076D01*
X67593Y3076D02*
X75207Y3076D01*
X77593Y3076D02*
X85207Y3076D01*
X87593Y3076D02*
X125447Y3076D01*
X127833Y3076D02*
X135447Y3076D01*
X137833Y3076D02*
X145447Y3076D01*
X147833Y3076D02*
X185687Y3076D01*
X188073Y3076D02*
X195687Y3076D01*
X198073Y3076D02*
X205687Y3076D01*
X208073Y3076D02*
X245927Y3076D01*
X248313Y3076D02*
X255927Y3076D01*
X258313Y3076D02*
X265927Y3076D01*
X268313Y3076D02*
X299500Y3076D01*
X0520Y3125D02*
X14888Y3125D01*
X17432Y3125D02*
X24888Y3125D01*
X27432Y3125D02*
X65128Y3125D01*
X67672Y3125D02*
X75128Y3125D01*
X77672Y3125D02*
X85128Y3125D01*
X87672Y3125D02*
X125368Y3125D01*
X127912Y3125D02*
X135368Y3125D01*
X137912Y3125D02*
X145368Y3125D01*
X147912Y3125D02*
X185608Y3125D01*
X188152Y3125D02*
X195608Y3125D01*
X198152Y3125D02*
X205608Y3125D01*
X208152Y3125D02*
X245848Y3125D01*
X248392Y3125D02*
X255848Y3125D01*
X258392Y3125D02*
X265848Y3125D01*
X268392Y3125D02*
X299500Y3125D01*
X0520Y3175D02*
X14810Y3175D01*
X17510Y3175D02*
X24810Y3175D01*
X27510Y3175D02*
X65050Y3175D01*
X67750Y3175D02*
X75050Y3175D01*
X77750Y3175D02*
X85050Y3175D01*
X87750Y3175D02*
X125290Y3175D01*
X127990Y3175D02*
X135290Y3175D01*
X137990Y3175D02*
X145290Y3175D01*
X147990Y3175D02*
X185530Y3175D01*
X188230Y3175D02*
X195530Y3175D01*
X198230Y3175D02*
X205530Y3175D01*
X208230Y3175D02*
X245770Y3175D01*
X248470Y3175D02*
X255770Y3175D01*
X258470Y3175D02*
X265770Y3175D01*
X268470Y3175D02*
X299500Y3175D01*
X0520Y3224D02*
X14731Y3224D01*
X17589Y3224D02*
X24731Y3224D01*
X27589Y3224D02*
X64971Y3224D01*
X67829Y3224D02*
X74971Y3224D01*
X77829Y3224D02*
X84971Y3224D01*
X87829Y3224D02*
X125211Y3224D01*
X128069Y3224D02*
X135211Y3224D01*
X138069Y3224D02*
X145211Y3224D01*
X148069Y3224D02*
X185451Y3224D01*
X188309Y3224D02*
X195451Y3224D01*
X198309Y3224D02*
X205451Y3224D01*
X208309Y3224D02*
X245691Y3224D01*
X248549Y3224D02*
X255691Y3224D01*
X258549Y3224D02*
X265691Y3224D01*
X268549Y3224D02*
X299500Y3224D01*
X0520Y3274D02*
X14652Y3274D01*
X17668Y3274D02*
X24652Y3274D01*
X27668Y3274D02*
X64892Y3274D01*
X67908Y3274D02*
X74892Y3274D01*
X77908Y3274D02*
X84892Y3274D01*
X87908Y3274D02*
X125132Y3274D01*
X128148Y3274D02*
X135132Y3274D01*
X138148Y3274D02*
X145132Y3274D01*
X148148Y3274D02*
X185372Y3274D01*
X188388Y3274D02*
X195372Y3274D01*
X198388Y3274D02*
X205372Y3274D01*
X208388Y3274D02*
X245612Y3274D01*
X248628Y3274D02*
X255612Y3274D01*
X258628Y3274D02*
X265612Y3274D01*
X268628Y3274D02*
X299500Y3274D01*
X0520Y3323D02*
X14573Y3323D01*
X17747Y3323D02*
X24573Y3323D01*
X27747Y3323D02*
X64813Y3323D01*
X67987Y3323D02*
X74813Y3323D01*
X77987Y3323D02*
X84813Y3323D01*
X87987Y3323D02*
X125053Y3323D01*
X128227Y3323D02*
X135053Y3323D01*
X138227Y3323D02*
X145053Y3323D01*
X148227Y3323D02*
X185293Y3323D01*
X188467Y3323D02*
X195293Y3323D01*
X198467Y3323D02*
X205293Y3323D01*
X208467Y3323D02*
X245533Y3323D01*
X248707Y3323D02*
X255533Y3323D01*
X258707Y3323D02*
X265533Y3323D01*
X268707Y3323D02*
X299500Y3323D01*
X0520Y3373D02*
X14494Y3373D01*
X17826Y3373D02*
X24494Y3373D01*
X27826Y3373D02*
X64734Y3373D01*
X68066Y3373D02*
X74734Y3373D01*
X78066Y3373D02*
X84734Y3373D01*
X88066Y3373D02*
X124974Y3373D01*
X128306Y3373D02*
X134974Y3373D01*
X138306Y3373D02*
X144974Y3373D01*
X148306Y3373D02*
X185214Y3373D01*
X188546Y3373D02*
X195214Y3373D01*
X198546Y3373D02*
X205214Y3373D01*
X208546Y3373D02*
X245454Y3373D01*
X248786Y3373D02*
X255454Y3373D01*
X258786Y3373D02*
X265454Y3373D01*
X268786Y3373D02*
X299500Y3373D01*
X0520Y3422D02*
X14437Y3422D01*
X17883Y3422D02*
X24437Y3422D01*
X27883Y3422D02*
X64677Y3422D01*
X68123Y3422D02*
X74677Y3422D01*
X78123Y3422D02*
X84677Y3422D01*
X88123Y3422D02*
X124917Y3422D01*
X128363Y3422D02*
X134917Y3422D01*
X138363Y3422D02*
X144917Y3422D01*
X148363Y3422D02*
X185157Y3422D01*
X188603Y3422D02*
X195157Y3422D01*
X198603Y3422D02*
X205157Y3422D01*
X208603Y3422D02*
X245397Y3422D01*
X248843Y3422D02*
X255397Y3422D01*
X258843Y3422D02*
X265397Y3422D01*
X268843Y3422D02*
X299500Y3422D01*
X0520Y3472D02*
X14388Y3472D01*
X17932Y3472D02*
X24388Y3472D01*
X27932Y3472D02*
X64628Y3472D01*
X68172Y3472D02*
X74628Y3472D01*
X78172Y3472D02*
X84628Y3472D01*
X88172Y3472D02*
X124868Y3472D01*
X128412Y3472D02*
X134868Y3472D01*
X138412Y3472D02*
X144868Y3472D01*
X148412Y3472D02*
X185108Y3472D01*
X188652Y3472D02*
X195108Y3472D01*
X198652Y3472D02*
X205108Y3472D01*
X208652Y3472D02*
X245348Y3472D01*
X248892Y3472D02*
X255348Y3472D01*
X258892Y3472D02*
X265348Y3472D01*
X268892Y3472D02*
X299500Y3472D01*
X0520Y3521D02*
X14338Y3521D01*
X17982Y3521D02*
X24338Y3521D01*
X27982Y3521D02*
X64578Y3521D01*
X68222Y3521D02*
X74578Y3521D01*
X78222Y3521D02*
X84578Y3521D01*
X88222Y3521D02*
X124818Y3521D01*
X128462Y3521D02*
X134818Y3521D01*
X138462Y3521D02*
X144818Y3521D01*
X148462Y3521D02*
X185058Y3521D01*
X188702Y3521D02*
X195058Y3521D01*
X198702Y3521D02*
X205058Y3521D01*
X208702Y3521D02*
X245298Y3521D01*
X248942Y3521D02*
X255298Y3521D01*
X258942Y3521D02*
X265298Y3521D01*
X268942Y3521D02*
X299500Y3521D01*
X0520Y3571D02*
X14289Y3571D01*
X18031Y3571D02*
X24289Y3571D01*
X28031Y3571D02*
X64529Y3571D01*
X68271Y3571D02*
X74529Y3571D01*
X78271Y3571D02*
X84529Y3571D01*
X88271Y3571D02*
X124769Y3571D01*
X128511Y3571D02*
X134769Y3571D01*
X138511Y3571D02*
X144769Y3571D01*
X148511Y3571D02*
X185009Y3571D01*
X188751Y3571D02*
X195009Y3571D01*
X198751Y3571D02*
X205009Y3571D01*
X208751Y3571D02*
X245249Y3571D01*
X248991Y3571D02*
X255249Y3571D01*
X258991Y3571D02*
X265249Y3571D01*
X268991Y3571D02*
X299500Y3571D01*
X0520Y3620D02*
X14239Y3620D01*
X18081Y3620D02*
X24239Y3620D01*
X28081Y3620D02*
X64479Y3620D01*
X68321Y3620D02*
X74479Y3620D01*
X78321Y3620D02*
X84479Y3620D01*
X88321Y3620D02*
X124719Y3620D01*
X128561Y3620D02*
X134719Y3620D01*
X138561Y3620D02*
X144719Y3620D01*
X148561Y3620D02*
X184959Y3620D01*
X188801Y3620D02*
X194959Y3620D01*
X198801Y3620D02*
X204959Y3620D01*
X208801Y3620D02*
X245199Y3620D01*
X249041Y3620D02*
X255199Y3620D01*
X259041Y3620D02*
X265199Y3620D01*
X269041Y3620D02*
X299500Y3620D01*
X0520Y3670D02*
X14189Y3670D01*
X18131Y3670D02*
X24189Y3670D01*
X28131Y3670D02*
X64429Y3670D01*
X68371Y3670D02*
X74429Y3670D01*
X78371Y3670D02*
X84429Y3670D01*
X88371Y3670D02*
X124669Y3670D01*
X128611Y3670D02*
X134669Y3670D01*
X138611Y3670D02*
X144669Y3670D01*
X148611Y3670D02*
X184909Y3670D01*
X188851Y3670D02*
X194909Y3670D01*
X198851Y3670D02*
X204909Y3670D01*
X208851Y3670D02*
X245149Y3670D01*
X249091Y3670D02*
X255149Y3670D01*
X259091Y3670D02*
X265149Y3670D01*
X269091Y3670D02*
X299500Y3670D01*
X0520Y3719D02*
X14140Y3719D01*
X18180Y3719D02*
X24140Y3719D01*
X28180Y3719D02*
X64380Y3719D01*
X68420Y3719D02*
X74380Y3719D01*
X78420Y3719D02*
X84380Y3719D01*
X88420Y3719D02*
X124620Y3719D01*
X128660Y3719D02*
X134620Y3719D01*
X138660Y3719D02*
X144620Y3719D01*
X148660Y3719D02*
X184860Y3719D01*
X188900Y3719D02*
X194860Y3719D01*
X198900Y3719D02*
X204860Y3719D01*
X208900Y3719D02*
X245100Y3719D01*
X249140Y3719D02*
X255100Y3719D01*
X259140Y3719D02*
X265100Y3719D01*
X269140Y3719D02*
X299500Y3719D01*
X0520Y3769D02*
X14090Y3769D01*
X18230Y3769D02*
X24090Y3769D01*
X28230Y3769D02*
X64330Y3769D01*
X68470Y3769D02*
X74330Y3769D01*
X78470Y3769D02*
X84330Y3769D01*
X88470Y3769D02*
X124570Y3769D01*
X128710Y3769D02*
X134570Y3769D01*
X138710Y3769D02*
X144570Y3769D01*
X148710Y3769D02*
X184810Y3769D01*
X188950Y3769D02*
X194810Y3769D01*
X198950Y3769D02*
X204810Y3769D01*
X208950Y3769D02*
X245050Y3769D01*
X249190Y3769D02*
X255050Y3769D01*
X259190Y3769D02*
X265050Y3769D01*
X269190Y3769D02*
X299500Y3769D01*
X0520Y3819D02*
X14043Y3819D01*
X18277Y3819D02*
X24043Y3819D01*
X28277Y3819D02*
X38456Y3819D01*
X38864Y3819D02*
X48616Y3819D01*
X49024Y3819D02*
X53696Y3819D01*
X54104Y3819D02*
X64283Y3819D01*
X68517Y3819D02*
X74283Y3819D01*
X78517Y3819D02*
X84283Y3819D01*
X88517Y3819D02*
X98696Y3819D01*
X99104Y3819D02*
X108856Y3819D01*
X109264Y3819D02*
X113936Y3819D01*
X114344Y3819D02*
X124523Y3819D01*
X128757Y3819D02*
X134523Y3819D01*
X138757Y3819D02*
X144523Y3819D01*
X148757Y3819D02*
X158936Y3819D01*
X159344Y3819D02*
X169096Y3819D01*
X169504Y3819D02*
X174176Y3819D01*
X174584Y3819D02*
X184763Y3819D01*
X188997Y3819D02*
X194763Y3819D01*
X198997Y3819D02*
X204763Y3819D01*
X208997Y3819D02*
X219176Y3819D01*
X219584Y3819D02*
X229336Y3819D01*
X229744Y3819D02*
X234416Y3819D01*
X234824Y3819D02*
X245003Y3819D01*
X249237Y3819D02*
X255003Y3819D01*
X259237Y3819D02*
X265003Y3819D01*
X269237Y3819D02*
X279416Y3819D01*
X279824Y3819D02*
X289576Y3819D01*
X289984Y3819D02*
X294656Y3819D01*
X295064Y3819D02*
X299500Y3819D01*
X0520Y3868D02*
X14011Y3868D01*
X18309Y3868D02*
X24011Y3868D01*
X28309Y3868D02*
X38196Y3868D01*
X39124Y3868D02*
X43276Y3868D01*
X43515Y3868D02*
X43965Y3868D01*
X44204Y3868D02*
X48356Y3868D01*
X49284Y3868D02*
X53436Y3868D01*
X54364Y3868D02*
X64251Y3868D01*
X68549Y3868D02*
X74251Y3868D01*
X78549Y3868D02*
X84251Y3868D01*
X88549Y3868D02*
X98436Y3868D01*
X99364Y3868D02*
X103516Y3868D01*
X103755Y3868D02*
X104205Y3868D01*
X104444Y3868D02*
X108596Y3868D01*
X109524Y3868D02*
X113676Y3868D01*
X114604Y3868D02*
X124491Y3868D01*
X128789Y3868D02*
X134491Y3868D01*
X138789Y3868D02*
X144491Y3868D01*
X148789Y3868D02*
X158676Y3868D01*
X159604Y3868D02*
X163756Y3868D01*
X163995Y3868D02*
X164445Y3868D01*
X164684Y3868D02*
X168836Y3868D01*
X169764Y3868D02*
X173916Y3868D01*
X174844Y3868D02*
X184731Y3868D01*
X189029Y3868D02*
X194731Y3868D01*
X199029Y3868D02*
X204731Y3868D01*
X209029Y3868D02*
X218916Y3868D01*
X219844Y3868D02*
X223996Y3868D01*
X224235Y3868D02*
X224685Y3868D01*
X224924Y3868D02*
X229076Y3868D01*
X230004Y3868D02*
X234156Y3868D01*
X235084Y3868D02*
X244971Y3868D01*
X249269Y3868D02*
X254971Y3868D01*
X259269Y3868D02*
X264971Y3868D01*
X269269Y3868D02*
X279156Y3868D01*
X280084Y3868D02*
X284236Y3868D01*
X284475Y3868D02*
X284925Y3868D01*
X285164Y3868D02*
X289316Y3868D01*
X290244Y3868D02*
X294396Y3868D01*
X295324Y3868D02*
X299500Y3868D01*
X0520Y3918D02*
X13980Y3918D01*
X18340Y3918D02*
X23980Y3918D01*
X28340Y3918D02*
X38054Y3918D01*
X39266Y3918D02*
X43134Y3918D01*
X43515Y3918D02*
X43965Y3918D01*
X44346Y3918D02*
X48214Y3918D01*
X49426Y3918D02*
X53294Y3918D01*
X54506Y3918D02*
X64220Y3918D01*
X68580Y3918D02*
X74220Y3918D01*
X78580Y3918D02*
X84220Y3918D01*
X88580Y3918D02*
X98294Y3918D01*
X99506Y3918D02*
X103374Y3918D01*
X103755Y3918D02*
X104205Y3918D01*
X104586Y3918D02*
X108454Y3918D01*
X109666Y3918D02*
X113534Y3918D01*
X114746Y3918D02*
X124460Y3918D01*
X128820Y3918D02*
X134460Y3918D01*
X138820Y3918D02*
X144460Y3918D01*
X148820Y3918D02*
X158534Y3918D01*
X159746Y3918D02*
X163614Y3918D01*
X163995Y3918D02*
X164445Y3918D01*
X164826Y3918D02*
X168694Y3918D01*
X169906Y3918D02*
X173774Y3918D01*
X174986Y3918D02*
X184700Y3918D01*
X189060Y3918D02*
X194700Y3918D01*
X199060Y3918D02*
X204700Y3918D01*
X209060Y3918D02*
X218774Y3918D01*
X219986Y3918D02*
X223854Y3918D01*
X224235Y3918D02*
X224685Y3918D01*
X225066Y3918D02*
X228934Y3918D01*
X230146Y3918D02*
X234014Y3918D01*
X235226Y3918D02*
X244940Y3918D01*
X249300Y3918D02*
X254940Y3918D01*
X259300Y3918D02*
X264940Y3918D01*
X269300Y3918D02*
X279014Y3918D01*
X280226Y3918D02*
X284094Y3918D01*
X284475Y3918D02*
X284925Y3918D01*
X285306Y3918D02*
X289174Y3918D01*
X290386Y3918D02*
X294254Y3918D01*
X295466Y3918D02*
X299500Y3918D01*
X0520Y3967D02*
X13949Y3967D01*
X18371Y3967D02*
X23949Y3967D01*
X28371Y3967D02*
X37916Y3967D01*
X39404Y3967D02*
X42996Y3967D01*
X43515Y3967D02*
X43965Y3967D01*
X44484Y3967D02*
X48076Y3967D01*
X49564Y3967D02*
X53156Y3967D01*
X54644Y3967D02*
X64189Y3967D01*
X68611Y3967D02*
X74189Y3967D01*
X78611Y3967D02*
X84189Y3967D01*
X88611Y3967D02*
X98156Y3967D01*
X99644Y3967D02*
X103236Y3967D01*
X103755Y3967D02*
X104205Y3967D01*
X104724Y3967D02*
X108316Y3967D01*
X109804Y3967D02*
X113396Y3967D01*
X114884Y3967D02*
X124429Y3967D01*
X128851Y3967D02*
X134429Y3967D01*
X138851Y3967D02*
X144429Y3967D01*
X148851Y3967D02*
X158396Y3967D01*
X159884Y3967D02*
X163476Y3967D01*
X163995Y3967D02*
X164445Y3967D01*
X164964Y3967D02*
X168556Y3967D01*
X170044Y3967D02*
X173636Y3967D01*
X175124Y3967D02*
X184669Y3967D01*
X189091Y3967D02*
X194669Y3967D01*
X199091Y3967D02*
X204669Y3967D01*
X209091Y3967D02*
X218636Y3967D01*
X220124Y3967D02*
X223716Y3967D01*
X224235Y3967D02*
X224685Y3967D01*
X225204Y3967D02*
X228796Y3967D01*
X230284Y3967D02*
X233876Y3967D01*
X235364Y3967D02*
X244909Y3967D01*
X249331Y3967D02*
X254909Y3967D01*
X259331Y3967D02*
X264909Y3967D01*
X269331Y3967D02*
X278876Y3967D01*
X280364Y3967D02*
X283956Y3967D01*
X284475Y3967D02*
X284925Y3967D01*
X285444Y3967D02*
X289036Y3967D01*
X290524Y3967D02*
X294116Y3967D01*
X295604Y3967D02*
X299500Y3967D01*
X0520Y4017D02*
X13918Y4017D01*
X18402Y4017D02*
X23918Y4017D01*
X28402Y4017D02*
X37837Y4017D01*
X39483Y4017D02*
X42917Y4017D01*
X43515Y4017D02*
X43965Y4017D01*
X44563Y4017D02*
X47997Y4017D01*
X49643Y4017D02*
X53077Y4017D01*
X54723Y4017D02*
X64158Y4017D01*
X68642Y4017D02*
X74158Y4017D01*
X78642Y4017D02*
X84158Y4017D01*
X88642Y4017D02*
X98077Y4017D01*
X99723Y4017D02*
X103157Y4017D01*
X103755Y4017D02*
X104205Y4017D01*
X104803Y4017D02*
X108237Y4017D01*
X109883Y4017D02*
X113317Y4017D01*
X114963Y4017D02*
X124398Y4017D01*
X128882Y4017D02*
X134398Y4017D01*
X138882Y4017D02*
X144398Y4017D01*
X148882Y4017D02*
X158317Y4017D01*
X159963Y4017D02*
X163397Y4017D01*
X163995Y4017D02*
X164445Y4017D01*
X165043Y4017D02*
X168477Y4017D01*
X170123Y4017D02*
X173557Y4017D01*
X175203Y4017D02*
X184638Y4017D01*
X189122Y4017D02*
X194638Y4017D01*
X199122Y4017D02*
X204638Y4017D01*
X209122Y4017D02*
X218557Y4017D01*
X220203Y4017D02*
X223637Y4017D01*
X224235Y4017D02*
X224685Y4017D01*
X225283Y4017D02*
X228717Y4017D01*
X230363Y4017D02*
X233797Y4017D01*
X235443Y4017D02*
X244878Y4017D01*
X249362Y4017D02*
X254878Y4017D01*
X259362Y4017D02*
X264878Y4017D01*
X269362Y4017D02*
X278797Y4017D01*
X280443Y4017D02*
X283877Y4017D01*
X284475Y4017D02*
X284925Y4017D01*
X285523Y4017D02*
X288957Y4017D01*
X290603Y4017D02*
X294037Y4017D01*
X295683Y4017D02*
X299500Y4017D01*
X0520Y4066D02*
X13887Y4066D01*
X18433Y4066D02*
X23887Y4066D01*
X28433Y4066D02*
X37758Y4066D01*
X39562Y4066D02*
X42838Y4066D01*
X43515Y4066D02*
X43965Y4066D01*
X44642Y4066D02*
X47918Y4066D01*
X49722Y4066D02*
X52998Y4066D01*
X54802Y4066D02*
X64127Y4066D01*
X68673Y4066D02*
X74127Y4066D01*
X78673Y4066D02*
X84127Y4066D01*
X88673Y4066D02*
X97998Y4066D01*
X99802Y4066D02*
X103078Y4066D01*
X103755Y4066D02*
X104205Y4066D01*
X104882Y4066D02*
X108158Y4066D01*
X109962Y4066D02*
X113238Y4066D01*
X115042Y4066D02*
X124367Y4066D01*
X128913Y4066D02*
X134367Y4066D01*
X138913Y4066D02*
X144367Y4066D01*
X148913Y4066D02*
X158238Y4066D01*
X160042Y4066D02*
X163318Y4066D01*
X163995Y4066D02*
X164445Y4066D01*
X165122Y4066D02*
X168398Y4066D01*
X170202Y4066D02*
X173478Y4066D01*
X175282Y4066D02*
X184607Y4066D01*
X189153Y4066D02*
X194607Y4066D01*
X199153Y4066D02*
X204607Y4066D01*
X209153Y4066D02*
X218478Y4066D01*
X220282Y4066D02*
X223558Y4066D01*
X224235Y4066D02*
X224685Y4066D01*
X225362Y4066D02*
X228638Y4066D01*
X230442Y4066D02*
X233718Y4066D01*
X235522Y4066D02*
X244847Y4066D01*
X249393Y4066D02*
X254847Y4066D01*
X259393Y4066D02*
X264847Y4066D01*
X269393Y4066D02*
X278718Y4066D01*
X280522Y4066D02*
X283798Y4066D01*
X284475Y4066D02*
X284925Y4066D01*
X285602Y4066D02*
X288878Y4066D01*
X290682Y4066D02*
X293958Y4066D01*
X295762Y4066D02*
X299500Y4066D01*
X0520Y4116D02*
X13856Y4116D01*
X18464Y4116D02*
X23856Y4116D01*
X28464Y4116D02*
X37680Y4116D01*
X39640Y4116D02*
X42760Y4116D01*
X43515Y4116D02*
X43965Y4116D01*
X44720Y4116D02*
X47840Y4116D01*
X49800Y4116D02*
X52920Y4116D01*
X54880Y4116D02*
X64096Y4116D01*
X68704Y4116D02*
X74096Y4116D01*
X78704Y4116D02*
X84096Y4116D01*
X88704Y4116D02*
X97920Y4116D01*
X99880Y4116D02*
X103000Y4116D01*
X103755Y4116D02*
X104205Y4116D01*
X104960Y4116D02*
X108080Y4116D01*
X110040Y4116D02*
X113160Y4116D01*
X115120Y4116D02*
X124336Y4116D01*
X128944Y4116D02*
X134336Y4116D01*
X138944Y4116D02*
X144336Y4116D01*
X148944Y4116D02*
X158160Y4116D01*
X160120Y4116D02*
X163240Y4116D01*
X163995Y4116D02*
X164445Y4116D01*
X165200Y4116D02*
X168320Y4116D01*
X170280Y4116D02*
X173400Y4116D01*
X175360Y4116D02*
X184576Y4116D01*
X189184Y4116D02*
X194576Y4116D01*
X199184Y4116D02*
X204576Y4116D01*
X209184Y4116D02*
X218400Y4116D01*
X220360Y4116D02*
X223480Y4116D01*
X224235Y4116D02*
X224685Y4116D01*
X225440Y4116D02*
X228560Y4116D01*
X230520Y4116D02*
X233640Y4116D01*
X235600Y4116D02*
X244816Y4116D01*
X249424Y4116D02*
X254816Y4116D01*
X259424Y4116D02*
X264816Y4116D01*
X269424Y4116D02*
X278640Y4116D01*
X280600Y4116D02*
X283720Y4116D01*
X284475Y4116D02*
X284925Y4116D01*
X285680Y4116D02*
X288800Y4116D01*
X290760Y4116D02*
X293880Y4116D01*
X295840Y4116D02*
X299500Y4116D01*
X0520Y4165D02*
X13825Y4165D01*
X18495Y4165D02*
X23825Y4165D01*
X28495Y4165D02*
X37601Y4165D01*
X39719Y4165D02*
X42681Y4165D01*
X43515Y4165D02*
X43965Y4165D01*
X44799Y4165D02*
X47761Y4165D01*
X49879Y4165D02*
X52841Y4165D01*
X54959Y4165D02*
X64065Y4165D01*
X68735Y4165D02*
X74065Y4165D01*
X78735Y4165D02*
X84065Y4165D01*
X88735Y4165D02*
X97841Y4165D01*
X99959Y4165D02*
X102921Y4165D01*
X103755Y4165D02*
X104205Y4165D01*
X105039Y4165D02*
X108001Y4165D01*
X110119Y4165D02*
X113081Y4165D01*
X115199Y4165D02*
X124305Y4165D01*
X128975Y4165D02*
X134305Y4165D01*
X138975Y4165D02*
X144305Y4165D01*
X148975Y4165D02*
X158081Y4165D01*
X160199Y4165D02*
X163161Y4165D01*
X163995Y4165D02*
X164445Y4165D01*
X165279Y4165D02*
X168241Y4165D01*
X170359Y4165D02*
X173321Y4165D01*
X175439Y4165D02*
X184545Y4165D01*
X189215Y4165D02*
X194545Y4165D01*
X199215Y4165D02*
X204545Y4165D01*
X209215Y4165D02*
X218321Y4165D01*
X220439Y4165D02*
X223401Y4165D01*
X224235Y4165D02*
X224685Y4165D01*
X225519Y4165D02*
X228481Y4165D01*
X230599Y4165D02*
X233561Y4165D01*
X235679Y4165D02*
X244785Y4165D01*
X249455Y4165D02*
X254785Y4165D01*
X259455Y4165D02*
X264785Y4165D01*
X269455Y4165D02*
X278561Y4165D01*
X280679Y4165D02*
X283641Y4165D01*
X284475Y4165D02*
X284925Y4165D01*
X285759Y4165D02*
X288721Y4165D01*
X290839Y4165D02*
X293801Y4165D01*
X295919Y4165D02*
X299500Y4165D01*
X0520Y4215D02*
X13794Y4215D01*
X18526Y4215D02*
X23794Y4215D01*
X28526Y4215D02*
X37550Y4215D01*
X39770Y4215D02*
X42630Y4215D01*
X43515Y4215D02*
X43965Y4215D01*
X44850Y4215D02*
X47710Y4215D01*
X49930Y4215D02*
X52790Y4215D01*
X55010Y4215D02*
X64034Y4215D01*
X68766Y4215D02*
X74034Y4215D01*
X78766Y4215D02*
X84034Y4215D01*
X88766Y4215D02*
X97790Y4215D01*
X100010Y4215D02*
X102870Y4215D01*
X103755Y4215D02*
X104205Y4215D01*
X105090Y4215D02*
X107950Y4215D01*
X110170Y4215D02*
X113030Y4215D01*
X115250Y4215D02*
X124274Y4215D01*
X129006Y4215D02*
X134274Y4215D01*
X139006Y4215D02*
X144274Y4215D01*
X149006Y4215D02*
X158030Y4215D01*
X160250Y4215D02*
X163110Y4215D01*
X163995Y4215D02*
X164445Y4215D01*
X165330Y4215D02*
X168190Y4215D01*
X170410Y4215D02*
X173270Y4215D01*
X175490Y4215D02*
X184514Y4215D01*
X189246Y4215D02*
X194514Y4215D01*
X199246Y4215D02*
X204514Y4215D01*
X209246Y4215D02*
X218270Y4215D01*
X220490Y4215D02*
X223350Y4215D01*
X224235Y4215D02*
X224685Y4215D01*
X225570Y4215D02*
X228430Y4215D01*
X230650Y4215D02*
X233510Y4215D01*
X235730Y4215D02*
X244754Y4215D01*
X249486Y4215D02*
X254754Y4215D01*
X259486Y4215D02*
X264754Y4215D01*
X269486Y4215D02*
X278510Y4215D01*
X280730Y4215D02*
X283590Y4215D01*
X284475Y4215D02*
X284925Y4215D01*
X285810Y4215D02*
X288670Y4215D01*
X290890Y4215D02*
X293750Y4215D01*
X295970Y4215D02*
X299500Y4215D01*
X0520Y4264D02*
X13763Y4264D01*
X18557Y4264D02*
X23763Y4264D01*
X28557Y4264D02*
X37500Y4264D01*
X39820Y4264D02*
X42580Y4264D01*
X43515Y4264D02*
X43965Y4264D01*
X44900Y4264D02*
X47660Y4264D01*
X49980Y4264D02*
X52740Y4264D01*
X55060Y4264D02*
X64003Y4264D01*
X68797Y4264D02*
X74003Y4264D01*
X78797Y4264D02*
X84003Y4264D01*
X88797Y4264D02*
X97740Y4264D01*
X100060Y4264D02*
X102820Y4264D01*
X103755Y4264D02*
X104205Y4264D01*
X105140Y4264D02*
X107900Y4264D01*
X110220Y4264D02*
X112980Y4264D01*
X115300Y4264D02*
X124243Y4264D01*
X129037Y4264D02*
X134243Y4264D01*
X139037Y4264D02*
X144243Y4264D01*
X149037Y4264D02*
X157980Y4264D01*
X160300Y4264D02*
X163060Y4264D01*
X163995Y4264D02*
X164445Y4264D01*
X165380Y4264D02*
X168140Y4264D01*
X170460Y4264D02*
X173220Y4264D01*
X175540Y4264D02*
X184483Y4264D01*
X189277Y4264D02*
X194483Y4264D01*
X199277Y4264D02*
X204483Y4264D01*
X209277Y4264D02*
X218220Y4264D01*
X220540Y4264D02*
X223300Y4264D01*
X224235Y4264D02*
X224685Y4264D01*
X225620Y4264D02*
X228380Y4264D01*
X230700Y4264D02*
X233460Y4264D01*
X235780Y4264D02*
X244723Y4264D01*
X249517Y4264D02*
X254723Y4264D01*
X259517Y4264D02*
X264723Y4264D01*
X269517Y4264D02*
X278460Y4264D01*
X280780Y4264D02*
X283540Y4264D01*
X284475Y4264D02*
X284925Y4264D01*
X285860Y4264D02*
X288620Y4264D01*
X290940Y4264D02*
X293700Y4264D01*
X296020Y4264D02*
X299500Y4264D01*
X0520Y4314D02*
X13731Y4314D01*
X18589Y4314D02*
X23731Y4314D01*
X28589Y4314D02*
X37451Y4314D01*
X39869Y4314D02*
X42531Y4314D01*
X43515Y4314D02*
X43965Y4314D01*
X44949Y4314D02*
X47611Y4314D01*
X50029Y4314D02*
X52691Y4314D01*
X55109Y4314D02*
X63971Y4314D01*
X68829Y4314D02*
X73971Y4314D01*
X78829Y4314D02*
X83971Y4314D01*
X88829Y4314D02*
X97691Y4314D01*
X100109Y4314D02*
X102771Y4314D01*
X103755Y4314D02*
X104205Y4314D01*
X105189Y4314D02*
X107851Y4314D01*
X110269Y4314D02*
X112931Y4314D01*
X115349Y4314D02*
X124211Y4314D01*
X129069Y4314D02*
X134211Y4314D01*
X139069Y4314D02*
X144211Y4314D01*
X149069Y4314D02*
X157931Y4314D01*
X160349Y4314D02*
X163011Y4314D01*
X163995Y4314D02*
X164445Y4314D01*
X165429Y4314D02*
X168091Y4314D01*
X170509Y4314D02*
X173171Y4314D01*
X175589Y4314D02*
X184451Y4314D01*
X189309Y4314D02*
X194451Y4314D01*
X199309Y4314D02*
X204451Y4314D01*
X209309Y4314D02*
X218171Y4314D01*
X220589Y4314D02*
X223251Y4314D01*
X224235Y4314D02*
X224685Y4314D01*
X225669Y4314D02*
X228331Y4314D01*
X230749Y4314D02*
X233411Y4314D01*
X235829Y4314D02*
X244691Y4314D01*
X249549Y4314D02*
X254691Y4314D01*
X259549Y4314D02*
X264691Y4314D01*
X269549Y4314D02*
X278411Y4314D01*
X280829Y4314D02*
X283491Y4314D01*
X284475Y4314D02*
X284925Y4314D01*
X285909Y4314D02*
X288571Y4314D01*
X290989Y4314D02*
X293651Y4314D01*
X296069Y4314D02*
X299500Y4314D01*
X0520Y4363D02*
X13711Y4363D01*
X18609Y4363D02*
X23711Y4363D01*
X28609Y4363D02*
X37401Y4363D01*
X39919Y4363D02*
X42481Y4363D01*
X43515Y4363D02*
X43965Y4363D01*
X44999Y4363D02*
X47561Y4363D01*
X50079Y4363D02*
X52641Y4363D01*
X55159Y4363D02*
X63951Y4363D01*
X68849Y4363D02*
X73951Y4363D01*
X78849Y4363D02*
X83951Y4363D01*
X88849Y4363D02*
X97641Y4363D01*
X100159Y4363D02*
X102721Y4363D01*
X103755Y4363D02*
X104205Y4363D01*
X105239Y4363D02*
X107801Y4363D01*
X110319Y4363D02*
X112881Y4363D01*
X115399Y4363D02*
X124191Y4363D01*
X129089Y4363D02*
X134191Y4363D01*
X139089Y4363D02*
X144191Y4363D01*
X149089Y4363D02*
X157881Y4363D01*
X160399Y4363D02*
X162961Y4363D01*
X163995Y4363D02*
X164445Y4363D01*
X165479Y4363D02*
X168041Y4363D01*
X170559Y4363D02*
X173121Y4363D01*
X175639Y4363D02*
X184431Y4363D01*
X189329Y4363D02*
X194431Y4363D01*
X199329Y4363D02*
X204431Y4363D01*
X209329Y4363D02*
X218121Y4363D01*
X220639Y4363D02*
X223201Y4363D01*
X224235Y4363D02*
X224685Y4363D01*
X225719Y4363D02*
X228281Y4363D01*
X230799Y4363D02*
X233361Y4363D01*
X235879Y4363D02*
X244671Y4363D01*
X249569Y4363D02*
X254671Y4363D01*
X259569Y4363D02*
X264671Y4363D01*
X269569Y4363D02*
X278361Y4363D01*
X280879Y4363D02*
X283441Y4363D01*
X284475Y4363D02*
X284925Y4363D01*
X285959Y4363D02*
X288521Y4363D01*
X291039Y4363D02*
X293601Y4363D01*
X296119Y4363D02*
X299500Y4363D01*
X0520Y4413D02*
X13693Y4413D01*
X18627Y4413D02*
X23693Y4413D01*
X28627Y4413D02*
X37352Y4413D01*
X39968Y4413D02*
X42432Y4413D01*
X43515Y4413D02*
X43965Y4413D01*
X45048Y4413D02*
X47512Y4413D01*
X50128Y4413D02*
X52592Y4413D01*
X55208Y4413D02*
X63933Y4413D01*
X68867Y4413D02*
X73933Y4413D01*
X78867Y4413D02*
X83933Y4413D01*
X88867Y4413D02*
X97592Y4413D01*
X100208Y4413D02*
X102672Y4413D01*
X103755Y4413D02*
X104205Y4413D01*
X105288Y4413D02*
X107752Y4413D01*
X110368Y4413D02*
X112832Y4413D01*
X115448Y4413D02*
X124173Y4413D01*
X129107Y4413D02*
X134173Y4413D01*
X139107Y4413D02*
X144173Y4413D01*
X149107Y4413D02*
X157832Y4413D01*
X160448Y4413D02*
X162912Y4413D01*
X163995Y4413D02*
X164445Y4413D01*
X165528Y4413D02*
X167992Y4413D01*
X170608Y4413D02*
X173072Y4413D01*
X175688Y4413D02*
X184413Y4413D01*
X189347Y4413D02*
X194413Y4413D01*
X199347Y4413D02*
X204413Y4413D01*
X209347Y4413D02*
X218072Y4413D01*
X220688Y4413D02*
X223152Y4413D01*
X224235Y4413D02*
X224685Y4413D01*
X225768Y4413D02*
X228232Y4413D01*
X230848Y4413D02*
X233312Y4413D01*
X235928Y4413D02*
X244653Y4413D01*
X249587Y4413D02*
X254653Y4413D01*
X259587Y4413D02*
X264653Y4413D01*
X269587Y4413D02*
X278312Y4413D01*
X280928Y4413D02*
X283392Y4413D01*
X284475Y4413D02*
X284925Y4413D01*
X286008Y4413D02*
X288472Y4413D01*
X291088Y4413D02*
X293552Y4413D01*
X296168Y4413D02*
X299500Y4413D01*
X0520Y4462D02*
X13676Y4462D01*
X18644Y4462D02*
X23676Y4462D01*
X28644Y4462D02*
X37312Y4462D01*
X40008Y4462D02*
X42392Y4462D01*
X43515Y4462D02*
X43965Y4462D01*
X45088Y4462D02*
X47472Y4462D01*
X50168Y4462D02*
X52552Y4462D01*
X55248Y4462D02*
X63916Y4462D01*
X68884Y4462D02*
X73916Y4462D01*
X78884Y4462D02*
X83916Y4462D01*
X88884Y4462D02*
X97552Y4462D01*
X100248Y4462D02*
X102632Y4462D01*
X103755Y4462D02*
X104205Y4462D01*
X105328Y4462D02*
X107712Y4462D01*
X110408Y4462D02*
X112792Y4462D01*
X115488Y4462D02*
X124156Y4462D01*
X129124Y4462D02*
X134156Y4462D01*
X139124Y4462D02*
X144156Y4462D01*
X149124Y4462D02*
X157792Y4462D01*
X160488Y4462D02*
X162872Y4462D01*
X163995Y4462D02*
X164445Y4462D01*
X165568Y4462D02*
X167952Y4462D01*
X170648Y4462D02*
X173032Y4462D01*
X175728Y4462D02*
X184396Y4462D01*
X189364Y4462D02*
X194396Y4462D01*
X199364Y4462D02*
X204396Y4462D01*
X209364Y4462D02*
X218032Y4462D01*
X220728Y4462D02*
X223112Y4462D01*
X224235Y4462D02*
X224685Y4462D01*
X225808Y4462D02*
X228192Y4462D01*
X230888Y4462D02*
X233272Y4462D01*
X235968Y4462D02*
X244636Y4462D01*
X249604Y4462D02*
X254636Y4462D01*
X259604Y4462D02*
X264636Y4462D01*
X269604Y4462D02*
X278272Y4462D01*
X280968Y4462D02*
X283352Y4462D01*
X284475Y4462D02*
X284925Y4462D01*
X286048Y4462D02*
X288432Y4462D01*
X291128Y4462D02*
X293512Y4462D01*
X296208Y4462D02*
X299500Y4462D01*
X0520Y4512D02*
X13659Y4512D01*
X18661Y4512D02*
X23659Y4512D01*
X28661Y4512D02*
X37281Y4512D01*
X40039Y4512D02*
X42361Y4512D01*
X43515Y4512D02*
X43965Y4512D01*
X45119Y4512D02*
X47441Y4512D01*
X50199Y4512D02*
X52521Y4512D01*
X55279Y4512D02*
X63899Y4512D01*
X68901Y4512D02*
X73899Y4512D01*
X78901Y4512D02*
X83899Y4512D01*
X88901Y4512D02*
X97521Y4512D01*
X100279Y4512D02*
X102601Y4512D01*
X103755Y4512D02*
X104205Y4512D01*
X105359Y4512D02*
X107681Y4512D01*
X110439Y4512D02*
X112761Y4512D01*
X115519Y4512D02*
X124139Y4512D01*
X129141Y4512D02*
X134139Y4512D01*
X139141Y4512D02*
X144139Y4512D01*
X149141Y4512D02*
X157761Y4512D01*
X160519Y4512D02*
X162841Y4512D01*
X163995Y4512D02*
X164445Y4512D01*
X165599Y4512D02*
X167921Y4512D01*
X170679Y4512D02*
X173001Y4512D01*
X175759Y4512D02*
X184379Y4512D01*
X189381Y4512D02*
X194379Y4512D01*
X199381Y4512D02*
X204379Y4512D01*
X209381Y4512D02*
X218001Y4512D01*
X220759Y4512D02*
X223081Y4512D01*
X224235Y4512D02*
X224685Y4512D01*
X225839Y4512D02*
X228161Y4512D01*
X230919Y4512D02*
X233241Y4512D01*
X235999Y4512D02*
X244619Y4512D01*
X249621Y4512D02*
X254619Y4512D01*
X259621Y4512D02*
X264619Y4512D01*
X269621Y4512D02*
X278241Y4512D01*
X280999Y4512D02*
X283321Y4512D01*
X284475Y4512D02*
X284925Y4512D01*
X286079Y4512D02*
X288401Y4512D01*
X291159Y4512D02*
X293481Y4512D01*
X296239Y4512D02*
X299500Y4512D01*
X0520Y4561D02*
X13641Y4561D01*
X18679Y4561D02*
X23641Y4561D01*
X28679Y4561D02*
X37249Y4561D01*
X40071Y4561D02*
X42329Y4561D01*
X43515Y4561D02*
X43965Y4561D01*
X45151Y4561D02*
X47409Y4561D01*
X50231Y4561D02*
X52489Y4561D01*
X55311Y4561D02*
X63881Y4561D01*
X68919Y4561D02*
X73881Y4561D01*
X78919Y4561D02*
X83881Y4561D01*
X88919Y4561D02*
X97489Y4561D01*
X100311Y4561D02*
X102569Y4561D01*
X103755Y4561D02*
X104205Y4561D01*
X105391Y4561D02*
X107649Y4561D01*
X110471Y4561D02*
X112729Y4561D01*
X115551Y4561D02*
X124121Y4561D01*
X129159Y4561D02*
X134121Y4561D01*
X139159Y4561D02*
X144121Y4561D01*
X149159Y4561D02*
X157729Y4561D01*
X160551Y4561D02*
X162809Y4561D01*
X163995Y4561D02*
X164445Y4561D01*
X165631Y4561D02*
X167889Y4561D01*
X170711Y4561D02*
X172969Y4561D01*
X175791Y4561D02*
X184361Y4561D01*
X189399Y4561D02*
X194361Y4561D01*
X199399Y4561D02*
X204361Y4561D01*
X209399Y4561D02*
X217969Y4561D01*
X220791Y4561D02*
X223049Y4561D01*
X224235Y4561D02*
X224685Y4561D01*
X225871Y4561D02*
X228129Y4561D01*
X230951Y4561D02*
X233209Y4561D01*
X236031Y4561D02*
X244601Y4561D01*
X249639Y4561D02*
X254601Y4561D01*
X259639Y4561D02*
X264601Y4561D01*
X269639Y4561D02*
X278209Y4561D01*
X281031Y4561D02*
X283289Y4561D01*
X284475Y4561D02*
X284925Y4561D01*
X286111Y4561D02*
X288369Y4561D01*
X291191Y4561D02*
X293449Y4561D01*
X296271Y4561D02*
X299500Y4561D01*
X0520Y4611D02*
X13624Y4611D01*
X18696Y4611D02*
X23624Y4611D01*
X28696Y4611D02*
X37218Y4611D01*
X40102Y4611D02*
X42298Y4611D01*
X43515Y4611D02*
X43965Y4611D01*
X45182Y4611D02*
X47378Y4611D01*
X50262Y4611D02*
X52458Y4611D01*
X55342Y4611D02*
X63864Y4611D01*
X68936Y4611D02*
X73864Y4611D01*
X78936Y4611D02*
X83864Y4611D01*
X88936Y4611D02*
X97458Y4611D01*
X100342Y4611D02*
X102538Y4611D01*
X103755Y4611D02*
X104205Y4611D01*
X105422Y4611D02*
X107618Y4611D01*
X110502Y4611D02*
X112698Y4611D01*
X115582Y4611D02*
X124104Y4611D01*
X129176Y4611D02*
X134104Y4611D01*
X139176Y4611D02*
X144104Y4611D01*
X149176Y4611D02*
X157698Y4611D01*
X160582Y4611D02*
X162778Y4611D01*
X163995Y4611D02*
X164445Y4611D01*
X165662Y4611D02*
X167858Y4611D01*
X170742Y4611D02*
X172938Y4611D01*
X175822Y4611D02*
X184344Y4611D01*
X189416Y4611D02*
X194344Y4611D01*
X199416Y4611D02*
X204344Y4611D01*
X209416Y4611D02*
X217938Y4611D01*
X220822Y4611D02*
X223018Y4611D01*
X224235Y4611D02*
X224685Y4611D01*
X225902Y4611D02*
X228098Y4611D01*
X230982Y4611D02*
X233178Y4611D01*
X236062Y4611D02*
X244584Y4611D01*
X249656Y4611D02*
X254584Y4611D01*
X259656Y4611D02*
X264584Y4611D01*
X269656Y4611D02*
X278178Y4611D01*
X281062Y4611D02*
X283258Y4611D01*
X284475Y4611D02*
X284925Y4611D01*
X286142Y4611D02*
X288338Y4611D01*
X291222Y4611D02*
X293418Y4611D01*
X296302Y4611D02*
X299500Y4611D01*
X0520Y4661D02*
X13607Y4661D01*
X18713Y4661D02*
X23607Y4661D01*
X28713Y4661D02*
X37187Y4661D01*
X40133Y4661D02*
X42267Y4661D01*
X43515Y4661D02*
X43965Y4661D01*
X45213Y4661D02*
X47347Y4661D01*
X50293Y4661D02*
X52427Y4661D01*
X55373Y4661D02*
X63847Y4661D01*
X68953Y4661D02*
X73847Y4661D01*
X78953Y4661D02*
X83847Y4661D01*
X88953Y4661D02*
X97427Y4661D01*
X100373Y4661D02*
X102507Y4661D01*
X103755Y4661D02*
X104205Y4661D01*
X105453Y4661D02*
X107587Y4661D01*
X110533Y4661D02*
X112667Y4661D01*
X115613Y4661D02*
X124087Y4661D01*
X129193Y4661D02*
X134087Y4661D01*
X139193Y4661D02*
X144087Y4661D01*
X149193Y4661D02*
X157667Y4661D01*
X160613Y4661D02*
X162747Y4661D01*
X163995Y4661D02*
X164445Y4661D01*
X165693Y4661D02*
X167827Y4661D01*
X170773Y4661D02*
X172907Y4661D01*
X175853Y4661D02*
X184327Y4661D01*
X189433Y4661D02*
X194327Y4661D01*
X199433Y4661D02*
X204327Y4661D01*
X209433Y4661D02*
X217907Y4661D01*
X220853Y4661D02*
X222987Y4661D01*
X224235Y4661D02*
X224685Y4661D01*
X225933Y4661D02*
X228067Y4661D01*
X231013Y4661D02*
X233147Y4661D01*
X236093Y4661D02*
X244567Y4661D01*
X249673Y4661D02*
X254567Y4661D01*
X259673Y4661D02*
X264567Y4661D01*
X269673Y4661D02*
X278147Y4661D01*
X281093Y4661D02*
X283227Y4661D01*
X284475Y4661D02*
X284925Y4661D01*
X286173Y4661D02*
X288307Y4661D01*
X291253Y4661D02*
X293387Y4661D01*
X296333Y4661D02*
X299500Y4661D01*
X0520Y4710D02*
X13589Y4710D01*
X18731Y4710D02*
X23589Y4710D01*
X28731Y4710D02*
X37156Y4710D01*
X40164Y4710D02*
X42236Y4710D01*
X43515Y4710D02*
X43965Y4710D01*
X45244Y4710D02*
X47316Y4710D01*
X50324Y4710D02*
X52396Y4710D01*
X55404Y4710D02*
X63829Y4710D01*
X68971Y4710D02*
X73829Y4710D01*
X78971Y4710D02*
X83829Y4710D01*
X88971Y4710D02*
X97396Y4710D01*
X100404Y4710D02*
X102476Y4710D01*
X103755Y4710D02*
X104205Y4710D01*
X105484Y4710D02*
X107556Y4710D01*
X110564Y4710D02*
X112636Y4710D01*
X115644Y4710D02*
X124069Y4710D01*
X129211Y4710D02*
X134069Y4710D01*
X139211Y4710D02*
X144069Y4710D01*
X149211Y4710D02*
X157636Y4710D01*
X160644Y4710D02*
X162716Y4710D01*
X163995Y4710D02*
X164445Y4710D01*
X165724Y4710D02*
X167796Y4710D01*
X170804Y4710D02*
X172876Y4710D01*
X175884Y4710D02*
X184309Y4710D01*
X189451Y4710D02*
X194309Y4710D01*
X199451Y4710D02*
X204309Y4710D01*
X209451Y4710D02*
X217876Y4710D01*
X220884Y4710D02*
X222956Y4710D01*
X224235Y4710D02*
X224685Y4710D01*
X225964Y4710D02*
X228036Y4710D01*
X231044Y4710D02*
X233116Y4710D01*
X236124Y4710D02*
X244549Y4710D01*
X249691Y4710D02*
X254549Y4710D01*
X259691Y4710D02*
X264549Y4710D01*
X269691Y4710D02*
X278116Y4710D01*
X281124Y4710D02*
X283196Y4710D01*
X284475Y4710D02*
X284925Y4710D01*
X286204Y4710D02*
X288276Y4710D01*
X291284Y4710D02*
X293356Y4710D01*
X296364Y4710D02*
X299500Y4710D01*
X0520Y4760D02*
X13572Y4760D01*
X18748Y4760D02*
X23572Y4760D01*
X28748Y4760D02*
X37125Y4760D01*
X40195Y4760D02*
X42205Y4760D01*
X43515Y4760D02*
X43965Y4760D01*
X45275Y4760D02*
X47285Y4760D01*
X50355Y4760D02*
X52365Y4760D01*
X55435Y4760D02*
X63812Y4760D01*
X68988Y4760D02*
X73812Y4760D01*
X78988Y4760D02*
X83812Y4760D01*
X88988Y4760D02*
X97365Y4760D01*
X100435Y4760D02*
X102445Y4760D01*
X103755Y4760D02*
X104205Y4760D01*
X105515Y4760D02*
X107525Y4760D01*
X110595Y4760D02*
X112605Y4760D01*
X115675Y4760D02*
X124052Y4760D01*
X129228Y4760D02*
X134052Y4760D01*
X139228Y4760D02*
X144052Y4760D01*
X149228Y4760D02*
X157605Y4760D01*
X160675Y4760D02*
X162685Y4760D01*
X163995Y4760D02*
X164445Y4760D01*
X165755Y4760D02*
X167765Y4760D01*
X170835Y4760D02*
X172845Y4760D01*
X175915Y4760D02*
X184292Y4760D01*
X189468Y4760D02*
X194292Y4760D01*
X199468Y4760D02*
X204292Y4760D01*
X209468Y4760D02*
X217845Y4760D01*
X220915Y4760D02*
X222925Y4760D01*
X224235Y4760D02*
X224685Y4760D01*
X225995Y4760D02*
X228005Y4760D01*
X231075Y4760D02*
X233085Y4760D01*
X236155Y4760D02*
X244532Y4760D01*
X249708Y4760D02*
X254532Y4760D01*
X259708Y4760D02*
X264532Y4760D01*
X269708Y4760D02*
X278085Y4760D01*
X281155Y4760D02*
X283165Y4760D01*
X284475Y4760D02*
X284925Y4760D01*
X286235Y4760D02*
X288245Y4760D01*
X291315Y4760D02*
X293325Y4760D01*
X296395Y4760D02*
X299500Y4760D01*
X0520Y4809D02*
X13555Y4809D01*
X18765Y4809D02*
X23555Y4809D01*
X28765Y4809D02*
X37107Y4809D01*
X40213Y4809D02*
X42187Y4809D01*
X43515Y4809D02*
X43965Y4809D01*
X45293Y4809D02*
X47267Y4809D01*
X50373Y4809D02*
X52347Y4809D01*
X55453Y4809D02*
X63795Y4809D01*
X69005Y4809D02*
X73795Y4809D01*
X79005Y4809D02*
X83795Y4809D01*
X89005Y4809D02*
X97347Y4809D01*
X100453Y4809D02*
X102427Y4809D01*
X103755Y4809D02*
X104205Y4809D01*
X105533Y4809D02*
X107507Y4809D01*
X110613Y4809D02*
X112587Y4809D01*
X115693Y4809D02*
X124035Y4809D01*
X129245Y4809D02*
X134035Y4809D01*
X139245Y4809D02*
X144035Y4809D01*
X149245Y4809D02*
X157587Y4809D01*
X160693Y4809D02*
X162667Y4809D01*
X163995Y4809D02*
X164445Y4809D01*
X165773Y4809D02*
X167747Y4809D01*
X170853Y4809D02*
X172827Y4809D01*
X175933Y4809D02*
X184275Y4809D01*
X189485Y4809D02*
X194275Y4809D01*
X199485Y4809D02*
X204275Y4809D01*
X209485Y4809D02*
X217827Y4809D01*
X220933Y4809D02*
X222907Y4809D01*
X224235Y4809D02*
X224685Y4809D01*
X226013Y4809D02*
X227987Y4809D01*
X231093Y4809D02*
X233067Y4809D01*
X236173Y4809D02*
X244515Y4809D01*
X249725Y4809D02*
X254515Y4809D01*
X259725Y4809D02*
X264515Y4809D01*
X269725Y4809D02*
X278067Y4809D01*
X281173Y4809D02*
X283147Y4809D01*
X284475Y4809D02*
X284925Y4809D01*
X286253Y4809D02*
X288227Y4809D01*
X291333Y4809D02*
X293307Y4809D01*
X296413Y4809D02*
X299500Y4809D01*
X0520Y4859D02*
X13537Y4859D01*
X18783Y4859D02*
X23537Y4859D01*
X28783Y4859D02*
X37090Y4859D01*
X40230Y4859D02*
X42170Y4859D01*
X43515Y4859D02*
X43965Y4859D01*
X45310Y4859D02*
X47250Y4859D01*
X50390Y4859D02*
X52330Y4859D01*
X55470Y4859D02*
X63777Y4859D01*
X69023Y4859D02*
X73777Y4859D01*
X79023Y4859D02*
X83777Y4859D01*
X89023Y4859D02*
X97330Y4859D01*
X100470Y4859D02*
X102410Y4859D01*
X103755Y4859D02*
X104205Y4859D01*
X105550Y4859D02*
X107490Y4859D01*
X110630Y4859D02*
X112570Y4859D01*
X115710Y4859D02*
X124017Y4859D01*
X129263Y4859D02*
X134017Y4859D01*
X139263Y4859D02*
X144017Y4859D01*
X149263Y4859D02*
X157570Y4859D01*
X160710Y4859D02*
X162650Y4859D01*
X163995Y4859D02*
X164445Y4859D01*
X165790Y4859D02*
X167730Y4859D01*
X170870Y4859D02*
X172810Y4859D01*
X175950Y4859D02*
X184257Y4859D01*
X189503Y4859D02*
X194257Y4859D01*
X199503Y4859D02*
X204257Y4859D01*
X209503Y4859D02*
X217810Y4859D01*
X220950Y4859D02*
X222890Y4859D01*
X224235Y4859D02*
X224685Y4859D01*
X226030Y4859D02*
X227970Y4859D01*
X231110Y4859D02*
X233050Y4859D01*
X236190Y4859D02*
X244497Y4859D01*
X249743Y4859D02*
X254497Y4859D01*
X259743Y4859D02*
X264497Y4859D01*
X269743Y4859D02*
X278050Y4859D01*
X281190Y4859D02*
X283130Y4859D01*
X284475Y4859D02*
X284925Y4859D01*
X286270Y4859D02*
X288210Y4859D01*
X291350Y4859D02*
X293290Y4859D01*
X296430Y4859D02*
X299500Y4859D01*
X0520Y4908D02*
X13522Y4908D01*
X18798Y4908D02*
X23522Y4908D01*
X28798Y4908D02*
X37073Y4908D01*
X40247Y4908D02*
X42153Y4908D01*
X43515Y4908D02*
X43965Y4908D01*
X45327Y4908D02*
X47233Y4908D01*
X50407Y4908D02*
X52313Y4908D01*
X55487Y4908D02*
X63762Y4908D01*
X69038Y4908D02*
X73762Y4908D01*
X79038Y4908D02*
X83762Y4908D01*
X89038Y4908D02*
X97313Y4908D01*
X100487Y4908D02*
X102393Y4908D01*
X103755Y4908D02*
X104205Y4908D01*
X105567Y4908D02*
X107473Y4908D01*
X110647Y4908D02*
X112553Y4908D01*
X115727Y4908D02*
X124002Y4908D01*
X129278Y4908D02*
X134002Y4908D01*
X139278Y4908D02*
X144002Y4908D01*
X149278Y4908D02*
X157553Y4908D01*
X160727Y4908D02*
X162633Y4908D01*
X163995Y4908D02*
X164445Y4908D01*
X165807Y4908D02*
X167713Y4908D01*
X170887Y4908D02*
X172793Y4908D01*
X175967Y4908D02*
X184242Y4908D01*
X189518Y4908D02*
X194242Y4908D01*
X199518Y4908D02*
X204242Y4908D01*
X209518Y4908D02*
X217793Y4908D01*
X220967Y4908D02*
X222873Y4908D01*
X224235Y4908D02*
X224685Y4908D01*
X226047Y4908D02*
X227953Y4908D01*
X231127Y4908D02*
X233033Y4908D01*
X236207Y4908D02*
X244482Y4908D01*
X249758Y4908D02*
X254482Y4908D01*
X259758Y4908D02*
X264482Y4908D01*
X269758Y4908D02*
X278033Y4908D01*
X281207Y4908D02*
X283113Y4908D01*
X284475Y4908D02*
X284925Y4908D01*
X286287Y4908D02*
X288193Y4908D01*
X291367Y4908D02*
X293273Y4908D01*
X296447Y4908D02*
X299500Y4908D01*
X0520Y4958D02*
X13517Y4958D01*
X18803Y4958D02*
X23517Y4958D01*
X28803Y4958D02*
X37055Y4958D01*
X40265Y4958D02*
X42135Y4958D01*
X43515Y4958D02*
X43965Y4958D01*
X45345Y4958D02*
X47215Y4958D01*
X50425Y4958D02*
X52295Y4958D01*
X55505Y4958D02*
X63757Y4958D01*
X69043Y4958D02*
X73757Y4958D01*
X79043Y4958D02*
X83757Y4958D01*
X89043Y4958D02*
X97295Y4958D01*
X100505Y4958D02*
X102375Y4958D01*
X103755Y4958D02*
X104205Y4958D01*
X105585Y4958D02*
X107455Y4958D01*
X110665Y4958D02*
X112535Y4958D01*
X115745Y4958D02*
X123997Y4958D01*
X129283Y4958D02*
X133997Y4958D01*
X139283Y4958D02*
X143997Y4958D01*
X149283Y4958D02*
X157535Y4958D01*
X160745Y4958D02*
X162615Y4958D01*
X163995Y4958D02*
X164445Y4958D01*
X165825Y4958D02*
X167695Y4958D01*
X170905Y4958D02*
X172775Y4958D01*
X175985Y4958D02*
X184237Y4958D01*
X189523Y4958D02*
X194237Y4958D01*
X199523Y4958D02*
X204237Y4958D01*
X209523Y4958D02*
X217775Y4958D01*
X220985Y4958D02*
X222855Y4958D01*
X224235Y4958D02*
X224685Y4958D01*
X226065Y4958D02*
X227935Y4958D01*
X231145Y4958D02*
X233015Y4958D01*
X236225Y4958D02*
X244477Y4958D01*
X249763Y4958D02*
X254477Y4958D01*
X259763Y4958D02*
X264477Y4958D01*
X269763Y4958D02*
X278015Y4958D01*
X281225Y4958D02*
X283095Y4958D01*
X284475Y4958D02*
X284925Y4958D01*
X286305Y4958D02*
X288175Y4958D01*
X291385Y4958D02*
X293255Y4958D01*
X296465Y4958D02*
X299500Y4958D01*
X0520Y5007D02*
X13511Y5007D01*
X18809Y5007D02*
X23511Y5007D01*
X28809Y5007D02*
X37038Y5007D01*
X40282Y5007D02*
X42118Y5007D01*
X43515Y5007D02*
X43965Y5007D01*
X45362Y5007D02*
X47198Y5007D01*
X50442Y5007D02*
X52278Y5007D01*
X55522Y5007D02*
X63751Y5007D01*
X69049Y5007D02*
X73751Y5007D01*
X79049Y5007D02*
X83751Y5007D01*
X89049Y5007D02*
X97278Y5007D01*
X100522Y5007D02*
X102358Y5007D01*
X103755Y5007D02*
X104205Y5007D01*
X105602Y5007D02*
X107438Y5007D01*
X110682Y5007D02*
X112518Y5007D01*
X115762Y5007D02*
X123991Y5007D01*
X129289Y5007D02*
X133991Y5007D01*
X139289Y5007D02*
X143991Y5007D01*
X149289Y5007D02*
X157518Y5007D01*
X160762Y5007D02*
X162598Y5007D01*
X163995Y5007D02*
X164445Y5007D01*
X165842Y5007D02*
X167678Y5007D01*
X170922Y5007D02*
X172758Y5007D01*
X176002Y5007D02*
X184231Y5007D01*
X189529Y5007D02*
X194231Y5007D01*
X199529Y5007D02*
X204231Y5007D01*
X209529Y5007D02*
X217758Y5007D01*
X221002Y5007D02*
X222838Y5007D01*
X224235Y5007D02*
X224685Y5007D01*
X226082Y5007D02*
X227918Y5007D01*
X231162Y5007D02*
X232998Y5007D01*
X236242Y5007D02*
X244471Y5007D01*
X249769Y5007D02*
X254471Y5007D01*
X259769Y5007D02*
X264471Y5007D01*
X269769Y5007D02*
X277998Y5007D01*
X281242Y5007D02*
X283078Y5007D01*
X284475Y5007D02*
X284925Y5007D01*
X286322Y5007D02*
X288158Y5007D01*
X291402Y5007D02*
X293238Y5007D01*
X296482Y5007D02*
X299500Y5007D01*
X0520Y5057D02*
X13505Y5057D01*
X18815Y5057D02*
X23505Y5057D01*
X28815Y5057D02*
X37021Y5057D01*
X40299Y5057D02*
X42101Y5057D01*
X43515Y5057D02*
X43965Y5057D01*
X45379Y5057D02*
X47181Y5057D01*
X50459Y5057D02*
X52261Y5057D01*
X55539Y5057D02*
X63745Y5057D01*
X69055Y5057D02*
X73745Y5057D01*
X79055Y5057D02*
X83745Y5057D01*
X89055Y5057D02*
X97261Y5057D01*
X100539Y5057D02*
X102341Y5057D01*
X103755Y5057D02*
X104205Y5057D01*
X105619Y5057D02*
X107421Y5057D01*
X110699Y5057D02*
X112501Y5057D01*
X115779Y5057D02*
X123985Y5057D01*
X129295Y5057D02*
X133985Y5057D01*
X139295Y5057D02*
X143985Y5057D01*
X149295Y5057D02*
X157501Y5057D01*
X160779Y5057D02*
X162581Y5057D01*
X163995Y5057D02*
X164445Y5057D01*
X165859Y5057D02*
X167661Y5057D01*
X170939Y5057D02*
X172741Y5057D01*
X176019Y5057D02*
X184225Y5057D01*
X189535Y5057D02*
X194225Y5057D01*
X199535Y5057D02*
X204225Y5057D01*
X209535Y5057D02*
X217741Y5057D01*
X221019Y5057D02*
X222821Y5057D01*
X224235Y5057D02*
X224685Y5057D01*
X226099Y5057D02*
X227901Y5057D01*
X231179Y5057D02*
X232981Y5057D01*
X236259Y5057D02*
X244465Y5057D01*
X249775Y5057D02*
X254465Y5057D01*
X259775Y5057D02*
X264465Y5057D01*
X269775Y5057D02*
X277981Y5057D01*
X281259Y5057D02*
X283061Y5057D01*
X284475Y5057D02*
X284925Y5057D01*
X286339Y5057D02*
X288141Y5057D01*
X291419Y5057D02*
X293221Y5057D01*
X296499Y5057D02*
X299500Y5057D01*
X0520Y5106D02*
X13500Y5106D01*
X18820Y5106D02*
X23500Y5106D01*
X28820Y5106D02*
X37003Y5106D01*
X40317Y5106D02*
X42083Y5106D01*
X43515Y5106D02*
X43965Y5106D01*
X45397Y5106D02*
X47163Y5106D01*
X50477Y5106D02*
X52243Y5106D01*
X55557Y5106D02*
X63740Y5106D01*
X69060Y5106D02*
X73740Y5106D01*
X79060Y5106D02*
X83740Y5106D01*
X89060Y5106D02*
X97243Y5106D01*
X100557Y5106D02*
X102323Y5106D01*
X103755Y5106D02*
X104205Y5106D01*
X105637Y5106D02*
X107403Y5106D01*
X110717Y5106D02*
X112483Y5106D01*
X115797Y5106D02*
X123980Y5106D01*
X129300Y5106D02*
X133980Y5106D01*
X139300Y5106D02*
X143980Y5106D01*
X149300Y5106D02*
X157483Y5106D01*
X160797Y5106D02*
X162563Y5106D01*
X163995Y5106D02*
X164445Y5106D01*
X165877Y5106D02*
X167643Y5106D01*
X170957Y5106D02*
X172723Y5106D01*
X176037Y5106D02*
X184220Y5106D01*
X189540Y5106D02*
X194220Y5106D01*
X199540Y5106D02*
X204220Y5106D01*
X209540Y5106D02*
X217723Y5106D01*
X221037Y5106D02*
X222803Y5106D01*
X224235Y5106D02*
X224685Y5106D01*
X226117Y5106D02*
X227883Y5106D01*
X231197Y5106D02*
X232963Y5106D01*
X236277Y5106D02*
X244460Y5106D01*
X249780Y5106D02*
X254460Y5106D01*
X259780Y5106D02*
X264460Y5106D01*
X269780Y5106D02*
X277963Y5106D01*
X281277Y5106D02*
X283043Y5106D01*
X284475Y5106D02*
X284925Y5106D01*
X286357Y5106D02*
X288123Y5106D01*
X291437Y5106D02*
X293203Y5106D01*
X296517Y5106D02*
X299500Y5106D01*
X0520Y5156D02*
X13494Y5156D01*
X18826Y5156D02*
X23494Y5156D01*
X28826Y5156D02*
X36994Y5156D01*
X40326Y5156D02*
X42074Y5156D01*
X43515Y5156D02*
X43965Y5156D01*
X45406Y5156D02*
X47154Y5156D01*
X50486Y5156D02*
X52234Y5156D01*
X55566Y5156D02*
X63734Y5156D01*
X69066Y5156D02*
X73734Y5156D01*
X79066Y5156D02*
X83734Y5156D01*
X89066Y5156D02*
X97234Y5156D01*
X100566Y5156D02*
X102314Y5156D01*
X103755Y5156D02*
X104205Y5156D01*
X105646Y5156D02*
X107394Y5156D01*
X110726Y5156D02*
X112474Y5156D01*
X115806Y5156D02*
X123974Y5156D01*
X129306Y5156D02*
X133974Y5156D01*
X139306Y5156D02*
X143974Y5156D01*
X149306Y5156D02*
X157474Y5156D01*
X160806Y5156D02*
X162554Y5156D01*
X163995Y5156D02*
X164445Y5156D01*
X165886Y5156D02*
X167634Y5156D01*
X170966Y5156D02*
X172714Y5156D01*
X176046Y5156D02*
X184214Y5156D01*
X189546Y5156D02*
X194214Y5156D01*
X199546Y5156D02*
X204214Y5156D01*
X209546Y5156D02*
X217714Y5156D01*
X221046Y5156D02*
X222794Y5156D01*
X224235Y5156D02*
X224685Y5156D01*
X226126Y5156D02*
X227874Y5156D01*
X231206Y5156D02*
X232954Y5156D01*
X236286Y5156D02*
X244454Y5156D01*
X249786Y5156D02*
X254454Y5156D01*
X259786Y5156D02*
X264454Y5156D01*
X269786Y5156D02*
X277954Y5156D01*
X281286Y5156D02*
X283034Y5156D01*
X284475Y5156D02*
X284925Y5156D01*
X286366Y5156D02*
X288114Y5156D01*
X291446Y5156D02*
X293194Y5156D01*
X296526Y5156D02*
X299500Y5156D01*
X0520Y5205D02*
X13489Y5205D01*
X18831Y5205D02*
X23489Y5205D01*
X28831Y5205D02*
X36989Y5205D01*
X40331Y5205D02*
X42069Y5205D01*
X43515Y5205D02*
X43965Y5205D01*
X45411Y5205D02*
X47149Y5205D01*
X50491Y5205D02*
X52229Y5205D01*
X55571Y5205D02*
X63729Y5205D01*
X69071Y5205D02*
X73729Y5205D01*
X79071Y5205D02*
X83729Y5205D01*
X89071Y5205D02*
X97229Y5205D01*
X100571Y5205D02*
X102309Y5205D01*
X103755Y5205D02*
X104205Y5205D01*
X105651Y5205D02*
X107389Y5205D01*
X110731Y5205D02*
X112469Y5205D01*
X115811Y5205D02*
X123969Y5205D01*
X129311Y5205D02*
X133969Y5205D01*
X139311Y5205D02*
X143969Y5205D01*
X149311Y5205D02*
X157469Y5205D01*
X160811Y5205D02*
X162549Y5205D01*
X163995Y5205D02*
X164445Y5205D01*
X165891Y5205D02*
X167629Y5205D01*
X170971Y5205D02*
X172709Y5205D01*
X176051Y5205D02*
X184209Y5205D01*
X189551Y5205D02*
X194209Y5205D01*
X199551Y5205D02*
X204209Y5205D01*
X209551Y5205D02*
X217709Y5205D01*
X221051Y5205D02*
X222789Y5205D01*
X224235Y5205D02*
X224685Y5205D01*
X226131Y5205D02*
X227869Y5205D01*
X231211Y5205D02*
X232949Y5205D01*
X236291Y5205D02*
X244449Y5205D01*
X249791Y5205D02*
X254449Y5205D01*
X259791Y5205D02*
X264449Y5205D01*
X269791Y5205D02*
X277949Y5205D01*
X281291Y5205D02*
X283029Y5205D01*
X284475Y5205D02*
X284925Y5205D01*
X286371Y5205D02*
X288109Y5205D01*
X291451Y5205D02*
X293189Y5205D01*
X296531Y5205D02*
X299500Y5205D01*
X0520Y5255D02*
X13483Y5255D01*
X18837Y5255D02*
X23483Y5255D01*
X28837Y5255D02*
X36983Y5255D01*
X40337Y5255D02*
X42063Y5255D01*
X43515Y5255D02*
X43965Y5255D01*
X45417Y5255D02*
X47143Y5255D01*
X50497Y5255D02*
X52223Y5255D01*
X55577Y5255D02*
X63723Y5255D01*
X69077Y5255D02*
X73723Y5255D01*
X79077Y5255D02*
X83723Y5255D01*
X89077Y5255D02*
X97223Y5255D01*
X100577Y5255D02*
X102303Y5255D01*
X103755Y5255D02*
X104205Y5255D01*
X105657Y5255D02*
X107383Y5255D01*
X110737Y5255D02*
X112463Y5255D01*
X115817Y5255D02*
X123963Y5255D01*
X129317Y5255D02*
X133963Y5255D01*
X139317Y5255D02*
X143963Y5255D01*
X149317Y5255D02*
X157463Y5255D01*
X160817Y5255D02*
X162543Y5255D01*
X163995Y5255D02*
X164445Y5255D01*
X165897Y5255D02*
X167623Y5255D01*
X170977Y5255D02*
X172703Y5255D01*
X176057Y5255D02*
X184203Y5255D01*
X189557Y5255D02*
X194203Y5255D01*
X199557Y5255D02*
X204203Y5255D01*
X209557Y5255D02*
X217703Y5255D01*
X221057Y5255D02*
X222783Y5255D01*
X224235Y5255D02*
X224685Y5255D01*
X226137Y5255D02*
X227863Y5255D01*
X231217Y5255D02*
X232943Y5255D01*
X236297Y5255D02*
X244443Y5255D01*
X249797Y5255D02*
X254443Y5255D01*
X259797Y5255D02*
X264443Y5255D01*
X269797Y5255D02*
X277943Y5255D01*
X281297Y5255D02*
X283023Y5255D01*
X284475Y5255D02*
X284925Y5255D01*
X286377Y5255D02*
X288103Y5255D01*
X291457Y5255D02*
X293183Y5255D01*
X296537Y5255D02*
X299500Y5255D01*
X0520Y5304D02*
X13478Y5304D01*
X18842Y5304D02*
X23478Y5304D01*
X28842Y5304D02*
X36978Y5304D01*
X40342Y5304D02*
X47138Y5304D01*
X50502Y5304D02*
X52218Y5304D01*
X55582Y5304D02*
X63718Y5304D01*
X69082Y5304D02*
X73718Y5304D01*
X79082Y5304D02*
X83718Y5304D01*
X89082Y5304D02*
X97218Y5304D01*
X100582Y5304D02*
X107378Y5304D01*
X110742Y5304D02*
X112458Y5304D01*
X115822Y5304D02*
X123958Y5304D01*
X129322Y5304D02*
X133958Y5304D01*
X139322Y5304D02*
X143958Y5304D01*
X149322Y5304D02*
X157458Y5304D01*
X160822Y5304D02*
X167618Y5304D01*
X170982Y5304D02*
X172698Y5304D01*
X176062Y5304D02*
X184198Y5304D01*
X189562Y5304D02*
X194198Y5304D01*
X199562Y5304D02*
X204198Y5304D01*
X209562Y5304D02*
X217698Y5304D01*
X221062Y5304D02*
X227858Y5304D01*
X231222Y5304D02*
X232938Y5304D01*
X236302Y5304D02*
X244438Y5304D01*
X249802Y5304D02*
X254438Y5304D01*
X259802Y5304D02*
X264438Y5304D01*
X269802Y5304D02*
X277938Y5304D01*
X281302Y5304D02*
X288098Y5304D01*
X291462Y5304D02*
X293178Y5304D01*
X296542Y5304D02*
X299500Y5304D01*
X0520Y5354D02*
X13472Y5354D01*
X18848Y5354D02*
X23472Y5354D01*
X28848Y5354D02*
X36972Y5354D01*
X40348Y5354D02*
X47132Y5354D01*
X50508Y5354D02*
X52212Y5354D01*
X55588Y5354D02*
X63712Y5354D01*
X69088Y5354D02*
X73712Y5354D01*
X79088Y5354D02*
X83712Y5354D01*
X89088Y5354D02*
X97212Y5354D01*
X100588Y5354D02*
X107372Y5354D01*
X110748Y5354D02*
X112452Y5354D01*
X115828Y5354D02*
X123952Y5354D01*
X129328Y5354D02*
X133952Y5354D01*
X139328Y5354D02*
X143952Y5354D01*
X149328Y5354D02*
X157452Y5354D01*
X160828Y5354D02*
X167612Y5354D01*
X170988Y5354D02*
X172692Y5354D01*
X176068Y5354D02*
X184192Y5354D01*
X189568Y5354D02*
X194192Y5354D01*
X199568Y5354D02*
X204192Y5354D01*
X209568Y5354D02*
X217692Y5354D01*
X221068Y5354D02*
X227852Y5354D01*
X231228Y5354D02*
X232932Y5354D01*
X236308Y5354D02*
X244432Y5354D01*
X249808Y5354D02*
X254432Y5354D01*
X259808Y5354D02*
X264432Y5354D01*
X269808Y5354D02*
X277932Y5354D01*
X281308Y5354D02*
X288092Y5354D01*
X291468Y5354D02*
X293172Y5354D01*
X296548Y5354D02*
X299500Y5354D01*
X0520Y5403D02*
X13466Y5403D01*
X18854Y5403D02*
X23466Y5403D01*
X28854Y5403D02*
X36966Y5403D01*
X40354Y5403D02*
X47126Y5403D01*
X50514Y5403D02*
X52206Y5403D01*
X55594Y5403D02*
X63706Y5403D01*
X69094Y5403D02*
X73706Y5403D01*
X79094Y5403D02*
X83706Y5403D01*
X89094Y5403D02*
X97206Y5403D01*
X100594Y5403D02*
X107366Y5403D01*
X110754Y5403D02*
X112446Y5403D01*
X115834Y5403D02*
X123946Y5403D01*
X129334Y5403D02*
X133946Y5403D01*
X139334Y5403D02*
X143946Y5403D01*
X149334Y5403D02*
X157446Y5403D01*
X160834Y5403D02*
X167606Y5403D01*
X170994Y5403D02*
X172686Y5403D01*
X176074Y5403D02*
X184186Y5403D01*
X189574Y5403D02*
X194186Y5403D01*
X199574Y5403D02*
X204186Y5403D01*
X209574Y5403D02*
X217686Y5403D01*
X221074Y5403D02*
X227846Y5403D01*
X231234Y5403D02*
X232926Y5403D01*
X236314Y5403D02*
X244426Y5403D01*
X249814Y5403D02*
X254426Y5403D01*
X259814Y5403D02*
X264426Y5403D01*
X269814Y5403D02*
X277926Y5403D01*
X281314Y5403D02*
X288086Y5403D01*
X291474Y5403D02*
X293166Y5403D01*
X296554Y5403D02*
X299500Y5403D01*
X0520Y5453D02*
X13461Y5453D01*
X18859Y5453D02*
X23461Y5453D01*
X28859Y5453D02*
X36961Y5453D01*
X40359Y5453D02*
X47121Y5453D01*
X50519Y5453D02*
X52201Y5453D01*
X55599Y5453D02*
X63701Y5453D01*
X69099Y5453D02*
X73701Y5453D01*
X79099Y5453D02*
X83701Y5453D01*
X89099Y5453D02*
X97201Y5453D01*
X100599Y5453D02*
X107361Y5453D01*
X110759Y5453D02*
X112441Y5453D01*
X115839Y5453D02*
X123941Y5453D01*
X129339Y5453D02*
X133941Y5453D01*
X139339Y5453D02*
X143941Y5453D01*
X149339Y5453D02*
X157441Y5453D01*
X160839Y5453D02*
X167601Y5453D01*
X170999Y5453D02*
X172681Y5453D01*
X176079Y5453D02*
X184181Y5453D01*
X189579Y5453D02*
X194181Y5453D01*
X199579Y5453D02*
X204181Y5453D01*
X209579Y5453D02*
X217681Y5453D01*
X221079Y5453D02*
X227841Y5453D01*
X231239Y5453D02*
X232921Y5453D01*
X236319Y5453D02*
X244421Y5453D01*
X249819Y5453D02*
X254421Y5453D01*
X259819Y5453D02*
X264421Y5453D01*
X269819Y5453D02*
X277921Y5453D01*
X281319Y5453D02*
X288081Y5453D01*
X291479Y5453D02*
X293161Y5453D01*
X296559Y5453D02*
X299500Y5453D01*
X0520Y5503D02*
X13456Y5503D01*
X18864Y5503D02*
X23456Y5503D01*
X28864Y5503D02*
X36956Y5503D01*
X40364Y5503D02*
X47116Y5503D01*
X50524Y5503D02*
X52196Y5503D01*
X55604Y5503D02*
X63696Y5503D01*
X69104Y5503D02*
X73696Y5503D01*
X79104Y5503D02*
X83696Y5503D01*
X89104Y5503D02*
X97196Y5503D01*
X100604Y5503D02*
X107356Y5503D01*
X110764Y5503D02*
X112436Y5503D01*
X115844Y5503D02*
X123936Y5503D01*
X129344Y5503D02*
X133936Y5503D01*
X139344Y5503D02*
X143936Y5503D01*
X149344Y5503D02*
X157436Y5503D01*
X160844Y5503D02*
X167596Y5503D01*
X171004Y5503D02*
X172676Y5503D01*
X176084Y5503D02*
X184176Y5503D01*
X189584Y5503D02*
X194176Y5503D01*
X199584Y5503D02*
X204176Y5503D01*
X209584Y5503D02*
X217676Y5503D01*
X221084Y5503D02*
X227836Y5503D01*
X231244Y5503D02*
X232916Y5503D01*
X236324Y5503D02*
X244416Y5503D01*
X249824Y5503D02*
X254416Y5503D01*
X259824Y5503D02*
X264416Y5503D01*
X269824Y5503D02*
X277916Y5503D01*
X281324Y5503D02*
X288076Y5503D01*
X291484Y5503D02*
X293156Y5503D01*
X296564Y5503D02*
X299500Y5503D01*
X0520Y5552D02*
X13461Y5552D01*
X18859Y5552D02*
X23461Y5552D01*
X28859Y5552D02*
X36961Y5552D01*
X40359Y5552D02*
X47121Y5552D01*
X50519Y5552D02*
X52201Y5552D01*
X55599Y5552D02*
X63701Y5552D01*
X69099Y5552D02*
X73701Y5552D01*
X79099Y5552D02*
X83701Y5552D01*
X89099Y5552D02*
X97201Y5552D01*
X100599Y5552D02*
X107361Y5552D01*
X110759Y5552D02*
X112441Y5552D01*
X115839Y5552D02*
X123941Y5552D01*
X129339Y5552D02*
X133941Y5552D01*
X139339Y5552D02*
X143941Y5552D01*
X149339Y5552D02*
X157441Y5552D01*
X160839Y5552D02*
X167601Y5552D01*
X170999Y5552D02*
X172681Y5552D01*
X176079Y5552D02*
X184181Y5552D01*
X189579Y5552D02*
X194181Y5552D01*
X199579Y5552D02*
X204181Y5552D01*
X209579Y5552D02*
X217681Y5552D01*
X221079Y5552D02*
X227841Y5552D01*
X231239Y5552D02*
X232921Y5552D01*
X236319Y5552D02*
X244421Y5552D01*
X249819Y5552D02*
X254421Y5552D01*
X259819Y5552D02*
X264421Y5552D01*
X269819Y5552D02*
X277921Y5552D01*
X281319Y5552D02*
X288081Y5552D01*
X291479Y5552D02*
X293161Y5552D01*
X296559Y5552D02*
X299500Y5552D01*
X0520Y5602D02*
X13467Y5602D01*
X18853Y5602D02*
X23467Y5602D01*
X28853Y5602D02*
X36967Y5602D01*
X40353Y5602D02*
X47127Y5602D01*
X50513Y5602D02*
X52207Y5602D01*
X55593Y5602D02*
X63707Y5602D01*
X69093Y5602D02*
X73707Y5602D01*
X79093Y5602D02*
X83707Y5602D01*
X89093Y5602D02*
X97207Y5602D01*
X100593Y5602D02*
X107367Y5602D01*
X110753Y5602D02*
X112447Y5602D01*
X115833Y5602D02*
X123947Y5602D01*
X129333Y5602D02*
X133947Y5602D01*
X139333Y5602D02*
X143947Y5602D01*
X149333Y5602D02*
X157447Y5602D01*
X160833Y5602D02*
X167607Y5602D01*
X170993Y5602D02*
X172687Y5602D01*
X176073Y5602D02*
X184187Y5602D01*
X189573Y5602D02*
X194187Y5602D01*
X199573Y5602D02*
X204187Y5602D01*
X209573Y5602D02*
X217687Y5602D01*
X221073Y5602D02*
X227847Y5602D01*
X231233Y5602D02*
X232927Y5602D01*
X236313Y5602D02*
X244427Y5602D01*
X249813Y5602D02*
X254427Y5602D01*
X259813Y5602D02*
X264427Y5602D01*
X269813Y5602D02*
X277927Y5602D01*
X281313Y5602D02*
X288087Y5602D01*
X291473Y5602D02*
X293167Y5602D01*
X296553Y5602D02*
X299500Y5602D01*
X0520Y5651D02*
X13473Y5651D01*
X18847Y5651D02*
X23473Y5651D01*
X28847Y5651D02*
X36973Y5651D01*
X40347Y5651D02*
X47133Y5651D01*
X50507Y5651D02*
X52213Y5651D01*
X55587Y5651D02*
X63713Y5651D01*
X69087Y5651D02*
X73713Y5651D01*
X79087Y5651D02*
X83713Y5651D01*
X89087Y5651D02*
X97213Y5651D01*
X100587Y5651D02*
X107373Y5651D01*
X110747Y5651D02*
X112453Y5651D01*
X115827Y5651D02*
X123953Y5651D01*
X129327Y5651D02*
X133953Y5651D01*
X139327Y5651D02*
X143953Y5651D01*
X149327Y5651D02*
X157453Y5651D01*
X160827Y5651D02*
X167613Y5651D01*
X170987Y5651D02*
X172693Y5651D01*
X176067Y5651D02*
X184193Y5651D01*
X189567Y5651D02*
X194193Y5651D01*
X199567Y5651D02*
X204193Y5651D01*
X209567Y5651D02*
X217693Y5651D01*
X221067Y5651D02*
X227853Y5651D01*
X231227Y5651D02*
X232933Y5651D01*
X236307Y5651D02*
X244433Y5651D01*
X249807Y5651D02*
X254433Y5651D01*
X259807Y5651D02*
X264433Y5651D01*
X269807Y5651D02*
X277933Y5651D01*
X281307Y5651D02*
X288093Y5651D01*
X291467Y5651D02*
X293173Y5651D01*
X296547Y5651D02*
X299500Y5651D01*
X0520Y5701D02*
X13478Y5701D01*
X18842Y5701D02*
X23478Y5701D01*
X28842Y5701D02*
X36978Y5701D01*
X40342Y5701D02*
X47138Y5701D01*
X50502Y5701D02*
X52218Y5701D01*
X55582Y5701D02*
X63718Y5701D01*
X69082Y5701D02*
X73718Y5701D01*
X79082Y5701D02*
X83718Y5701D01*
X89082Y5701D02*
X97218Y5701D01*
X100582Y5701D02*
X107378Y5701D01*
X110742Y5701D02*
X112458Y5701D01*
X115822Y5701D02*
X123958Y5701D01*
X129322Y5701D02*
X133958Y5701D01*
X139322Y5701D02*
X143958Y5701D01*
X149322Y5701D02*
X157458Y5701D01*
X160822Y5701D02*
X167618Y5701D01*
X170982Y5701D02*
X172698Y5701D01*
X176062Y5701D02*
X184198Y5701D01*
X189562Y5701D02*
X194198Y5701D01*
X199562Y5701D02*
X204198Y5701D01*
X209562Y5701D02*
X217698Y5701D01*
X221062Y5701D02*
X227858Y5701D01*
X231222Y5701D02*
X232938Y5701D01*
X236302Y5701D02*
X244438Y5701D01*
X249802Y5701D02*
X254438Y5701D01*
X259802Y5701D02*
X264438Y5701D01*
X269802Y5701D02*
X277938Y5701D01*
X281302Y5701D02*
X288098Y5701D01*
X291462Y5701D02*
X293178Y5701D01*
X296542Y5701D02*
X299500Y5701D01*
X0520Y5750D02*
X13484Y5750D01*
X18836Y5750D02*
X23484Y5750D01*
X28836Y5750D02*
X36984Y5750D01*
X40336Y5750D02*
X42064Y5750D01*
X43515Y5750D02*
X43965Y5750D01*
X45416Y5750D02*
X47144Y5750D01*
X50496Y5750D02*
X52224Y5750D01*
X55576Y5750D02*
X63724Y5750D01*
X69076Y5750D02*
X73724Y5750D01*
X79076Y5750D02*
X83724Y5750D01*
X89076Y5750D02*
X97224Y5750D01*
X100576Y5750D02*
X102304Y5750D01*
X103755Y5750D02*
X104205Y5750D01*
X105656Y5750D02*
X107384Y5750D01*
X110736Y5750D02*
X112464Y5750D01*
X115816Y5750D02*
X123964Y5750D01*
X129316Y5750D02*
X133964Y5750D01*
X139316Y5750D02*
X143964Y5750D01*
X149316Y5750D02*
X157464Y5750D01*
X160816Y5750D02*
X162544Y5750D01*
X163995Y5750D02*
X164445Y5750D01*
X165896Y5750D02*
X167624Y5750D01*
X170976Y5750D02*
X172704Y5750D01*
X176056Y5750D02*
X184204Y5750D01*
X189556Y5750D02*
X194204Y5750D01*
X199556Y5750D02*
X204204Y5750D01*
X209556Y5750D02*
X217704Y5750D01*
X221056Y5750D02*
X222784Y5750D01*
X224235Y5750D02*
X224685Y5750D01*
X226136Y5750D02*
X227864Y5750D01*
X231216Y5750D02*
X232944Y5750D01*
X236296Y5750D02*
X244444Y5750D01*
X249796Y5750D02*
X254444Y5750D01*
X259796Y5750D02*
X264444Y5750D01*
X269796Y5750D02*
X277944Y5750D01*
X281296Y5750D02*
X283024Y5750D01*
X284475Y5750D02*
X284925Y5750D01*
X286376Y5750D02*
X288104Y5750D01*
X291456Y5750D02*
X293184Y5750D01*
X296536Y5750D02*
X299500Y5750D01*
X0520Y5800D02*
X13489Y5800D01*
X18831Y5800D02*
X23489Y5800D01*
X28831Y5800D02*
X36989Y5800D01*
X40331Y5800D02*
X42069Y5800D01*
X43515Y5800D02*
X43965Y5800D01*
X45411Y5800D02*
X47149Y5800D01*
X50491Y5800D02*
X52229Y5800D01*
X55571Y5800D02*
X63729Y5800D01*
X69071Y5800D02*
X73729Y5800D01*
X79071Y5800D02*
X83729Y5800D01*
X89071Y5800D02*
X97229Y5800D01*
X100571Y5800D02*
X102309Y5800D01*
X103755Y5800D02*
X104205Y5800D01*
X105651Y5800D02*
X107389Y5800D01*
X110731Y5800D02*
X112469Y5800D01*
X115811Y5800D02*
X123969Y5800D01*
X129311Y5800D02*
X133969Y5800D01*
X139311Y5800D02*
X143969Y5800D01*
X149311Y5800D02*
X157469Y5800D01*
X160811Y5800D02*
X162549Y5800D01*
X163995Y5800D02*
X164445Y5800D01*
X165891Y5800D02*
X167629Y5800D01*
X170971Y5800D02*
X172709Y5800D01*
X176051Y5800D02*
X184209Y5800D01*
X189551Y5800D02*
X194209Y5800D01*
X199551Y5800D02*
X204209Y5800D01*
X209551Y5800D02*
X217709Y5800D01*
X221051Y5800D02*
X222789Y5800D01*
X224235Y5800D02*
X224685Y5800D01*
X226131Y5800D02*
X227869Y5800D01*
X231211Y5800D02*
X232949Y5800D01*
X236291Y5800D02*
X244449Y5800D01*
X249791Y5800D02*
X254449Y5800D01*
X259791Y5800D02*
X264449Y5800D01*
X269791Y5800D02*
X277949Y5800D01*
X281291Y5800D02*
X283029Y5800D01*
X284475Y5800D02*
X284925Y5800D01*
X286371Y5800D02*
X288109Y5800D01*
X291451Y5800D02*
X293189Y5800D01*
X296531Y5800D02*
X299500Y5800D01*
X0520Y5849D02*
X13495Y5849D01*
X18825Y5849D02*
X23495Y5849D01*
X28825Y5849D02*
X36995Y5849D01*
X40325Y5849D02*
X42075Y5849D01*
X43515Y5849D02*
X43965Y5849D01*
X45405Y5849D02*
X47155Y5849D01*
X50485Y5849D02*
X52235Y5849D01*
X55565Y5849D02*
X63735Y5849D01*
X69065Y5849D02*
X73735Y5849D01*
X79065Y5849D02*
X83735Y5849D01*
X89065Y5849D02*
X97235Y5849D01*
X100565Y5849D02*
X102315Y5849D01*
X103755Y5849D02*
X104205Y5849D01*
X105645Y5849D02*
X107395Y5849D01*
X110725Y5849D02*
X112475Y5849D01*
X115805Y5849D02*
X123975Y5849D01*
X129305Y5849D02*
X133975Y5849D01*
X139305Y5849D02*
X143975Y5849D01*
X149305Y5849D02*
X157475Y5849D01*
X160805Y5849D02*
X162555Y5849D01*
X163995Y5849D02*
X164445Y5849D01*
X165885Y5849D02*
X167635Y5849D01*
X170965Y5849D02*
X172715Y5849D01*
X176045Y5849D02*
X184215Y5849D01*
X189545Y5849D02*
X194215Y5849D01*
X199545Y5849D02*
X204215Y5849D01*
X209545Y5849D02*
X217715Y5849D01*
X221045Y5849D02*
X222795Y5849D01*
X224235Y5849D02*
X224685Y5849D01*
X226125Y5849D02*
X227875Y5849D01*
X231205Y5849D02*
X232955Y5849D01*
X236285Y5849D02*
X244455Y5849D01*
X249785Y5849D02*
X254455Y5849D01*
X259785Y5849D02*
X264455Y5849D01*
X269785Y5849D02*
X277955Y5849D01*
X281285Y5849D02*
X283035Y5849D01*
X284475Y5849D02*
X284925Y5849D01*
X286365Y5849D02*
X288115Y5849D01*
X291445Y5849D02*
X293195Y5849D01*
X296525Y5849D02*
X299500Y5849D01*
X0520Y5899D02*
X13500Y5899D01*
X18820Y5899D02*
X23500Y5899D01*
X28820Y5899D02*
X37005Y5899D01*
X40315Y5899D02*
X42085Y5899D01*
X43515Y5899D02*
X43965Y5899D01*
X45395Y5899D02*
X47165Y5899D01*
X50475Y5899D02*
X52245Y5899D01*
X55555Y5899D02*
X63740Y5899D01*
X69060Y5899D02*
X73740Y5899D01*
X79060Y5899D02*
X83740Y5899D01*
X89060Y5899D02*
X97245Y5899D01*
X100555Y5899D02*
X102325Y5899D01*
X103755Y5899D02*
X104205Y5899D01*
X105635Y5899D02*
X107405Y5899D01*
X110715Y5899D02*
X112485Y5899D01*
X115795Y5899D02*
X123980Y5899D01*
X129300Y5899D02*
X133980Y5899D01*
X139300Y5899D02*
X143980Y5899D01*
X149300Y5899D02*
X157485Y5899D01*
X160795Y5899D02*
X162565Y5899D01*
X163995Y5899D02*
X164445Y5899D01*
X165875Y5899D02*
X167645Y5899D01*
X170955Y5899D02*
X172725Y5899D01*
X176035Y5899D02*
X184220Y5899D01*
X189540Y5899D02*
X194220Y5899D01*
X199540Y5899D02*
X204220Y5899D01*
X209540Y5899D02*
X217725Y5899D01*
X221035Y5899D02*
X222805Y5899D01*
X224235Y5899D02*
X224685Y5899D01*
X226115Y5899D02*
X227885Y5899D01*
X231195Y5899D02*
X232965Y5899D01*
X236275Y5899D02*
X244460Y5899D01*
X249780Y5899D02*
X254460Y5899D01*
X259780Y5899D02*
X264460Y5899D01*
X269780Y5899D02*
X277965Y5899D01*
X281275Y5899D02*
X283045Y5899D01*
X284475Y5899D02*
X284925Y5899D01*
X286355Y5899D02*
X288125Y5899D01*
X291435Y5899D02*
X293205Y5899D01*
X296515Y5899D02*
X299500Y5899D01*
X0520Y5948D02*
X13506Y5948D01*
X18814Y5948D02*
X23506Y5948D01*
X28814Y5948D02*
X37022Y5948D01*
X40298Y5948D02*
X42102Y5948D01*
X43515Y5948D02*
X43965Y5948D01*
X45378Y5948D02*
X47182Y5948D01*
X50458Y5948D02*
X52262Y5948D01*
X55538Y5948D02*
X63746Y5948D01*
X69054Y5948D02*
X73746Y5948D01*
X79054Y5948D02*
X83746Y5948D01*
X89054Y5948D02*
X97262Y5948D01*
X100538Y5948D02*
X102342Y5948D01*
X103755Y5948D02*
X104205Y5948D01*
X105618Y5948D02*
X107422Y5948D01*
X110698Y5948D02*
X112502Y5948D01*
X115778Y5948D02*
X123986Y5948D01*
X129294Y5948D02*
X133986Y5948D01*
X139294Y5948D02*
X143986Y5948D01*
X149294Y5948D02*
X157502Y5948D01*
X160778Y5948D02*
X162582Y5948D01*
X163995Y5948D02*
X164445Y5948D01*
X165858Y5948D02*
X167662Y5948D01*
X170938Y5948D02*
X172742Y5948D01*
X176018Y5948D02*
X184226Y5948D01*
X189534Y5948D02*
X194226Y5948D01*
X199534Y5948D02*
X204226Y5948D01*
X209534Y5948D02*
X217742Y5948D01*
X221018Y5948D02*
X222822Y5948D01*
X224235Y5948D02*
X224685Y5948D01*
X226098Y5948D02*
X227902Y5948D01*
X231178Y5948D02*
X232982Y5948D01*
X236258Y5948D02*
X244466Y5948D01*
X249774Y5948D02*
X254466Y5948D01*
X259774Y5948D02*
X264466Y5948D01*
X269774Y5948D02*
X277982Y5948D01*
X281258Y5948D02*
X283062Y5948D01*
X284475Y5948D02*
X284925Y5948D01*
X286338Y5948D02*
X288142Y5948D01*
X291418Y5948D02*
X293222Y5948D01*
X296498Y5948D02*
X299500Y5948D01*
X0520Y5998D02*
X13512Y5998D01*
X18808Y5998D02*
X23512Y5998D01*
X28808Y5998D02*
X37040Y5998D01*
X40280Y5998D02*
X42120Y5998D01*
X43515Y5998D02*
X43965Y5998D01*
X45360Y5998D02*
X47200Y5998D01*
X50440Y5998D02*
X52280Y5998D01*
X55520Y5998D02*
X63752Y5998D01*
X69048Y5998D02*
X73752Y5998D01*
X79048Y5998D02*
X83752Y5998D01*
X89048Y5998D02*
X97280Y5998D01*
X100520Y5998D02*
X102360Y5998D01*
X103755Y5998D02*
X104205Y5998D01*
X105600Y5998D02*
X107440Y5998D01*
X110680Y5998D02*
X112520Y5998D01*
X115760Y5998D02*
X123992Y5998D01*
X129288Y5998D02*
X133992Y5998D01*
X139288Y5998D02*
X143992Y5998D01*
X149288Y5998D02*
X157520Y5998D01*
X160760Y5998D02*
X162600Y5998D01*
X163995Y5998D02*
X164445Y5998D01*
X165840Y5998D02*
X167680Y5998D01*
X170920Y5998D02*
X172760Y5998D01*
X176000Y5998D02*
X184232Y5998D01*
X189528Y5998D02*
X194232Y5998D01*
X199528Y5998D02*
X204232Y5998D01*
X209528Y5998D02*
X217760Y5998D01*
X221000Y5998D02*
X222840Y5998D01*
X224235Y5998D02*
X224685Y5998D01*
X226080Y5998D02*
X227920Y5998D01*
X231160Y5998D02*
X233000Y5998D01*
X236240Y5998D02*
X244472Y5998D01*
X249768Y5998D02*
X254472Y5998D01*
X259768Y5998D02*
X264472Y5998D01*
X269768Y5998D02*
X278000Y5998D01*
X281240Y5998D02*
X283080Y5998D01*
X284475Y5998D02*
X284925Y5998D01*
X286320Y5998D02*
X288160Y5998D01*
X291400Y5998D02*
X293240Y5998D01*
X296480Y5998D02*
X299500Y5998D01*
X0520Y6047D02*
X13517Y6047D01*
X18803Y6047D02*
X23517Y6047D01*
X28803Y6047D02*
X37057Y6047D01*
X40263Y6047D02*
X42137Y6047D01*
X43515Y6047D02*
X43965Y6047D01*
X45343Y6047D02*
X47217Y6047D01*
X50423Y6047D02*
X52297Y6047D01*
X55503Y6047D02*
X63757Y6047D01*
X69043Y6047D02*
X73757Y6047D01*
X79043Y6047D02*
X83757Y6047D01*
X89043Y6047D02*
X97297Y6047D01*
X100503Y6047D02*
X102377Y6047D01*
X103755Y6047D02*
X104205Y6047D01*
X105583Y6047D02*
X107457Y6047D01*
X110663Y6047D02*
X112537Y6047D01*
X115743Y6047D02*
X123997Y6047D01*
X129283Y6047D02*
X133997Y6047D01*
X139283Y6047D02*
X143997Y6047D01*
X149283Y6047D02*
X157537Y6047D01*
X160743Y6047D02*
X162617Y6047D01*
X163995Y6047D02*
X164445Y6047D01*
X165823Y6047D02*
X167697Y6047D01*
X170903Y6047D02*
X172777Y6047D01*
X175983Y6047D02*
X184237Y6047D01*
X189523Y6047D02*
X194237Y6047D01*
X199523Y6047D02*
X204237Y6047D01*
X209523Y6047D02*
X217777Y6047D01*
X220983Y6047D02*
X222857Y6047D01*
X224235Y6047D02*
X224685Y6047D01*
X226063Y6047D02*
X227937Y6047D01*
X231143Y6047D02*
X233017Y6047D01*
X236223Y6047D02*
X244477Y6047D01*
X249763Y6047D02*
X254477Y6047D01*
X259763Y6047D02*
X264477Y6047D01*
X269763Y6047D02*
X278017Y6047D01*
X281223Y6047D02*
X283097Y6047D01*
X284475Y6047D02*
X284925Y6047D01*
X286303Y6047D02*
X288177Y6047D01*
X291383Y6047D02*
X293257Y6047D01*
X296463Y6047D02*
X299500Y6047D01*
X0520Y6097D02*
X13523Y6097D01*
X18797Y6097D02*
X23523Y6097D01*
X28797Y6097D02*
X37074Y6097D01*
X40246Y6097D02*
X42154Y6097D01*
X43515Y6097D02*
X43965Y6097D01*
X45326Y6097D02*
X47234Y6097D01*
X50406Y6097D02*
X52314Y6097D01*
X55486Y6097D02*
X63763Y6097D01*
X69037Y6097D02*
X73763Y6097D01*
X79037Y6097D02*
X83763Y6097D01*
X89037Y6097D02*
X97314Y6097D01*
X100486Y6097D02*
X102394Y6097D01*
X103755Y6097D02*
X104205Y6097D01*
X105566Y6097D02*
X107474Y6097D01*
X110646Y6097D02*
X112554Y6097D01*
X115726Y6097D02*
X124003Y6097D01*
X129277Y6097D02*
X134003Y6097D01*
X139277Y6097D02*
X144003Y6097D01*
X149277Y6097D02*
X157554Y6097D01*
X160726Y6097D02*
X162634Y6097D01*
X163995Y6097D02*
X164445Y6097D01*
X165806Y6097D02*
X167714Y6097D01*
X170886Y6097D02*
X172794Y6097D01*
X175966Y6097D02*
X184243Y6097D01*
X189517Y6097D02*
X194243Y6097D01*
X199517Y6097D02*
X204243Y6097D01*
X209517Y6097D02*
X217794Y6097D01*
X220966Y6097D02*
X222874Y6097D01*
X224235Y6097D02*
X224685Y6097D01*
X226046Y6097D02*
X227954Y6097D01*
X231126Y6097D02*
X233034Y6097D01*
X236206Y6097D02*
X244483Y6097D01*
X249757Y6097D02*
X254483Y6097D01*
X259757Y6097D02*
X264483Y6097D01*
X269757Y6097D02*
X278034Y6097D01*
X281206Y6097D02*
X283114Y6097D01*
X284475Y6097D02*
X284925Y6097D01*
X286286Y6097D02*
X288194Y6097D01*
X291366Y6097D02*
X293274Y6097D01*
X296446Y6097D02*
X299500Y6097D01*
X0520Y6146D02*
X13539Y6146D01*
X18781Y6146D02*
X23539Y6146D01*
X28781Y6146D02*
X37092Y6146D01*
X40228Y6146D02*
X42172Y6146D01*
X43515Y6146D02*
X43965Y6146D01*
X45308Y6146D02*
X47252Y6146D01*
X50388Y6146D02*
X52332Y6146D01*
X55468Y6146D02*
X63779Y6146D01*
X69021Y6146D02*
X73779Y6146D01*
X79021Y6146D02*
X83779Y6146D01*
X89021Y6146D02*
X97332Y6146D01*
X100468Y6146D02*
X102412Y6146D01*
X103755Y6146D02*
X104205Y6146D01*
X105548Y6146D02*
X107492Y6146D01*
X110628Y6146D02*
X112572Y6146D01*
X115708Y6146D02*
X124019Y6146D01*
X129261Y6146D02*
X134019Y6146D01*
X139261Y6146D02*
X144019Y6146D01*
X149261Y6146D02*
X157572Y6146D01*
X160708Y6146D02*
X162652Y6146D01*
X163995Y6146D02*
X164445Y6146D01*
X165788Y6146D02*
X167732Y6146D01*
X170868Y6146D02*
X172812Y6146D01*
X175948Y6146D02*
X184259Y6146D01*
X189501Y6146D02*
X194259Y6146D01*
X199501Y6146D02*
X204259Y6146D01*
X209501Y6146D02*
X217812Y6146D01*
X220948Y6146D02*
X222892Y6146D01*
X224235Y6146D02*
X224685Y6146D01*
X226028Y6146D02*
X227972Y6146D01*
X231108Y6146D02*
X233052Y6146D01*
X236188Y6146D02*
X244499Y6146D01*
X249741Y6146D02*
X254499Y6146D01*
X259741Y6146D02*
X264499Y6146D01*
X269741Y6146D02*
X278052Y6146D01*
X281188Y6146D02*
X283132Y6146D01*
X284475Y6146D02*
X284925Y6146D01*
X286268Y6146D02*
X288212Y6146D01*
X291348Y6146D02*
X293292Y6146D01*
X296428Y6146D02*
X299500Y6146D01*
X0520Y6196D02*
X13556Y6196D01*
X18764Y6196D02*
X23556Y6196D01*
X28764Y6196D02*
X37109Y6196D01*
X40211Y6196D02*
X42189Y6196D01*
X43515Y6196D02*
X43965Y6196D01*
X45291Y6196D02*
X47269Y6196D01*
X50371Y6196D02*
X52349Y6196D01*
X55451Y6196D02*
X63796Y6196D01*
X69004Y6196D02*
X73796Y6196D01*
X79004Y6196D02*
X83796Y6196D01*
X89004Y6196D02*
X97349Y6196D01*
X100451Y6196D02*
X102429Y6196D01*
X103755Y6196D02*
X104205Y6196D01*
X105531Y6196D02*
X107509Y6196D01*
X110611Y6196D02*
X112589Y6196D01*
X115691Y6196D02*
X124036Y6196D01*
X129244Y6196D02*
X134036Y6196D01*
X139244Y6196D02*
X144036Y6196D01*
X149244Y6196D02*
X157589Y6196D01*
X160691Y6196D02*
X162669Y6196D01*
X163995Y6196D02*
X164445Y6196D01*
X165771Y6196D02*
X167749Y6196D01*
X170851Y6196D02*
X172829Y6196D01*
X175931Y6196D02*
X184276Y6196D01*
X189484Y6196D02*
X194276Y6196D01*
X199484Y6196D02*
X204276Y6196D01*
X209484Y6196D02*
X217829Y6196D01*
X220931Y6196D02*
X222909Y6196D01*
X224235Y6196D02*
X224685Y6196D01*
X226011Y6196D02*
X227989Y6196D01*
X231091Y6196D02*
X233069Y6196D01*
X236171Y6196D02*
X244516Y6196D01*
X249724Y6196D02*
X254516Y6196D01*
X259724Y6196D02*
X264516Y6196D01*
X269724Y6196D02*
X278069Y6196D01*
X281171Y6196D02*
X283149Y6196D01*
X284475Y6196D02*
X284925Y6196D01*
X286251Y6196D02*
X288229Y6196D01*
X291331Y6196D02*
X293309Y6196D01*
X296411Y6196D02*
X299500Y6196D01*
X0520Y6245D02*
X13574Y6245D01*
X18746Y6245D02*
X23574Y6245D01*
X28746Y6245D02*
X37128Y6245D01*
X40192Y6245D02*
X42208Y6245D01*
X43515Y6245D02*
X43965Y6245D01*
X45272Y6245D02*
X47288Y6245D01*
X50352Y6245D02*
X52368Y6245D01*
X55432Y6245D02*
X63814Y6245D01*
X68986Y6245D02*
X73814Y6245D01*
X78986Y6245D02*
X83814Y6245D01*
X88986Y6245D02*
X97368Y6245D01*
X100432Y6245D02*
X102448Y6245D01*
X103755Y6245D02*
X104205Y6245D01*
X105512Y6245D02*
X107528Y6245D01*
X110592Y6245D02*
X112608Y6245D01*
X115672Y6245D02*
X124054Y6245D01*
X129226Y6245D02*
X134054Y6245D01*
X139226Y6245D02*
X144054Y6245D01*
X149226Y6245D02*
X157608Y6245D01*
X160672Y6245D02*
X162688Y6245D01*
X163995Y6245D02*
X164445Y6245D01*
X165752Y6245D02*
X167768Y6245D01*
X170832Y6245D02*
X172848Y6245D01*
X175912Y6245D02*
X184294Y6245D01*
X189466Y6245D02*
X194294Y6245D01*
X199466Y6245D02*
X204294Y6245D01*
X209466Y6245D02*
X217848Y6245D01*
X220912Y6245D02*
X222928Y6245D01*
X224235Y6245D02*
X224685Y6245D01*
X225992Y6245D02*
X228008Y6245D01*
X231072Y6245D02*
X233088Y6245D01*
X236152Y6245D02*
X244534Y6245D01*
X249706Y6245D02*
X254534Y6245D01*
X259706Y6245D02*
X264534Y6245D01*
X269706Y6245D02*
X278088Y6245D01*
X281152Y6245D02*
X283168Y6245D01*
X284475Y6245D02*
X284925Y6245D01*
X286232Y6245D02*
X288248Y6245D01*
X291312Y6245D02*
X293328Y6245D01*
X296392Y6245D02*
X299500Y6245D01*
X0520Y6295D02*
X13591Y6295D01*
X18729Y6295D02*
X23591Y6295D01*
X28729Y6295D02*
X37159Y6295D01*
X40161Y6295D02*
X42239Y6295D01*
X43515Y6295D02*
X43965Y6295D01*
X45241Y6295D02*
X47319Y6295D01*
X50321Y6295D02*
X52399Y6295D01*
X55401Y6295D02*
X63831Y6295D01*
X68969Y6295D02*
X73831Y6295D01*
X78969Y6295D02*
X83831Y6295D01*
X88969Y6295D02*
X97399Y6295D01*
X100401Y6295D02*
X102479Y6295D01*
X103755Y6295D02*
X104205Y6295D01*
X105481Y6295D02*
X107559Y6295D01*
X110561Y6295D02*
X112639Y6295D01*
X115641Y6295D02*
X124071Y6295D01*
X129209Y6295D02*
X134071Y6295D01*
X139209Y6295D02*
X144071Y6295D01*
X149209Y6295D02*
X157639Y6295D01*
X160641Y6295D02*
X162719Y6295D01*
X163995Y6295D02*
X164445Y6295D01*
X165721Y6295D02*
X167799Y6295D01*
X170801Y6295D02*
X172879Y6295D01*
X175881Y6295D02*
X184311Y6295D01*
X189449Y6295D02*
X194311Y6295D01*
X199449Y6295D02*
X204311Y6295D01*
X209449Y6295D02*
X217879Y6295D01*
X220881Y6295D02*
X222959Y6295D01*
X224235Y6295D02*
X224685Y6295D01*
X225961Y6295D02*
X228039Y6295D01*
X231041Y6295D02*
X233119Y6295D01*
X236121Y6295D02*
X244551Y6295D01*
X249689Y6295D02*
X254551Y6295D01*
X259689Y6295D02*
X264551Y6295D01*
X269689Y6295D02*
X278119Y6295D01*
X281121Y6295D02*
X283199Y6295D01*
X284475Y6295D02*
X284925Y6295D01*
X286201Y6295D02*
X288279Y6295D01*
X291281Y6295D02*
X293359Y6295D01*
X296361Y6295D02*
X299500Y6295D01*
X0520Y6345D02*
X13608Y6345D01*
X18712Y6345D02*
X23608Y6345D01*
X28712Y6345D02*
X37190Y6345D01*
X40130Y6345D02*
X42270Y6345D01*
X43515Y6345D02*
X43965Y6345D01*
X45210Y6345D02*
X47350Y6345D01*
X50290Y6345D02*
X52430Y6345D01*
X55370Y6345D02*
X63848Y6345D01*
X68952Y6345D02*
X73848Y6345D01*
X78952Y6345D02*
X83848Y6345D01*
X88952Y6345D02*
X97430Y6345D01*
X100370Y6345D02*
X102510Y6345D01*
X103755Y6345D02*
X104205Y6345D01*
X105450Y6345D02*
X107590Y6345D01*
X110530Y6345D02*
X112670Y6345D01*
X115610Y6345D02*
X124088Y6345D01*
X129192Y6345D02*
X134088Y6345D01*
X139192Y6345D02*
X144088Y6345D01*
X149192Y6345D02*
X157670Y6345D01*
X160610Y6345D02*
X162750Y6345D01*
X163995Y6345D02*
X164445Y6345D01*
X165690Y6345D02*
X167830Y6345D01*
X170770Y6345D02*
X172910Y6345D01*
X175850Y6345D02*
X184328Y6345D01*
X189432Y6345D02*
X194328Y6345D01*
X199432Y6345D02*
X204328Y6345D01*
X209432Y6345D02*
X217910Y6345D01*
X220850Y6345D02*
X222990Y6345D01*
X224235Y6345D02*
X224685Y6345D01*
X225930Y6345D02*
X228070Y6345D01*
X231010Y6345D02*
X233150Y6345D01*
X236090Y6345D02*
X244568Y6345D01*
X249672Y6345D02*
X254568Y6345D01*
X259672Y6345D02*
X264568Y6345D01*
X269672Y6345D02*
X278150Y6345D01*
X281090Y6345D02*
X283230Y6345D01*
X284475Y6345D02*
X284925Y6345D01*
X286170Y6345D02*
X288310Y6345D01*
X291250Y6345D02*
X293390Y6345D01*
X296330Y6345D02*
X299500Y6345D01*
X0520Y6394D02*
X13626Y6394D01*
X18694Y6394D02*
X23626Y6394D01*
X28694Y6394D02*
X37221Y6394D01*
X40099Y6394D02*
X42301Y6394D01*
X43515Y6394D02*
X43965Y6394D01*
X45179Y6394D02*
X47381Y6394D01*
X50259Y6394D02*
X52461Y6394D01*
X55339Y6394D02*
X63866Y6394D01*
X68934Y6394D02*
X73866Y6394D01*
X78934Y6394D02*
X83866Y6394D01*
X88934Y6394D02*
X97461Y6394D01*
X100339Y6394D02*
X102541Y6394D01*
X103755Y6394D02*
X104205Y6394D01*
X105419Y6394D02*
X107621Y6394D01*
X110499Y6394D02*
X112701Y6394D01*
X115579Y6394D02*
X124106Y6394D01*
X129174Y6394D02*
X134106Y6394D01*
X139174Y6394D02*
X144106Y6394D01*
X149174Y6394D02*
X157701Y6394D01*
X160579Y6394D02*
X162781Y6394D01*
X163995Y6394D02*
X164445Y6394D01*
X165659Y6394D02*
X167861Y6394D01*
X170739Y6394D02*
X172941Y6394D01*
X175819Y6394D02*
X184346Y6394D01*
X189414Y6394D02*
X194346Y6394D01*
X199414Y6394D02*
X204346Y6394D01*
X209414Y6394D02*
X217941Y6394D01*
X220819Y6394D02*
X223021Y6394D01*
X224235Y6394D02*
X224685Y6394D01*
X225899Y6394D02*
X228101Y6394D01*
X230979Y6394D02*
X233181Y6394D01*
X236059Y6394D02*
X244586Y6394D01*
X249654Y6394D02*
X254586Y6394D01*
X259654Y6394D02*
X264586Y6394D01*
X269654Y6394D02*
X278181Y6394D01*
X281059Y6394D02*
X283261Y6394D01*
X284475Y6394D02*
X284925Y6394D01*
X286139Y6394D02*
X288341Y6394D01*
X291219Y6394D02*
X293421Y6394D01*
X296299Y6394D02*
X299500Y6394D01*
X0520Y6444D02*
X13643Y6444D01*
X18677Y6444D02*
X23643Y6444D01*
X28677Y6444D02*
X37253Y6444D01*
X40067Y6444D02*
X42333Y6444D01*
X43515Y6444D02*
X43965Y6444D01*
X45147Y6444D02*
X47413Y6444D01*
X50227Y6444D02*
X52493Y6444D01*
X55307Y6444D02*
X63883Y6444D01*
X68917Y6444D02*
X73883Y6444D01*
X78917Y6444D02*
X83883Y6444D01*
X88917Y6444D02*
X97493Y6444D01*
X100307Y6444D02*
X102573Y6444D01*
X103755Y6444D02*
X104205Y6444D01*
X105387Y6444D02*
X107653Y6444D01*
X110467Y6444D02*
X112733Y6444D01*
X115547Y6444D02*
X124123Y6444D01*
X129157Y6444D02*
X134123Y6444D01*
X139157Y6444D02*
X144123Y6444D01*
X149157Y6444D02*
X157733Y6444D01*
X160547Y6444D02*
X162813Y6444D01*
X163995Y6444D02*
X164445Y6444D01*
X165627Y6444D02*
X167893Y6444D01*
X170707Y6444D02*
X172973Y6444D01*
X175787Y6444D02*
X184363Y6444D01*
X189397Y6444D02*
X194363Y6444D01*
X199397Y6444D02*
X204363Y6444D01*
X209397Y6444D02*
X217973Y6444D01*
X220787Y6444D02*
X223053Y6444D01*
X224235Y6444D02*
X224685Y6444D01*
X225867Y6444D02*
X228133Y6444D01*
X230947Y6444D02*
X233213Y6444D01*
X236027Y6444D02*
X244603Y6444D01*
X249637Y6444D02*
X254603Y6444D01*
X259637Y6444D02*
X264603Y6444D01*
X269637Y6444D02*
X278213Y6444D01*
X281027Y6444D02*
X283293Y6444D01*
X284475Y6444D02*
X284925Y6444D01*
X286107Y6444D02*
X288373Y6444D01*
X291187Y6444D02*
X293453Y6444D01*
X296267Y6444D02*
X299500Y6444D01*
X0520Y6493D02*
X13660Y6493D01*
X18660Y6493D02*
X23660Y6493D01*
X28660Y6493D02*
X37284Y6493D01*
X40036Y6493D02*
X42364Y6493D01*
X43515Y6493D02*
X43965Y6493D01*
X45116Y6493D02*
X47444Y6493D01*
X50196Y6493D02*
X52524Y6493D01*
X55276Y6493D02*
X63900Y6493D01*
X68900Y6493D02*
X73900Y6493D01*
X78900Y6493D02*
X83900Y6493D01*
X88900Y6493D02*
X97524Y6493D01*
X100276Y6493D02*
X102604Y6493D01*
X103755Y6493D02*
X104205Y6493D01*
X105356Y6493D02*
X107684Y6493D01*
X110436Y6493D02*
X112764Y6493D01*
X115516Y6493D02*
X124140Y6493D01*
X129140Y6493D02*
X134140Y6493D01*
X139140Y6493D02*
X144140Y6493D01*
X149140Y6493D02*
X157764Y6493D01*
X160516Y6493D02*
X162844Y6493D01*
X163995Y6493D02*
X164445Y6493D01*
X165596Y6493D02*
X167924Y6493D01*
X170676Y6493D02*
X173004Y6493D01*
X175756Y6493D02*
X184380Y6493D01*
X189380Y6493D02*
X194380Y6493D01*
X199380Y6493D02*
X204380Y6493D01*
X209380Y6493D02*
X218004Y6493D01*
X220756Y6493D02*
X223084Y6493D01*
X224235Y6493D02*
X224685Y6493D01*
X225836Y6493D02*
X228164Y6493D01*
X230916Y6493D02*
X233244Y6493D01*
X235996Y6493D02*
X244620Y6493D01*
X249620Y6493D02*
X254620Y6493D01*
X259620Y6493D02*
X264620Y6493D01*
X269620Y6493D02*
X278244Y6493D01*
X280996Y6493D02*
X283324Y6493D01*
X284475Y6493D02*
X284925Y6493D01*
X286076Y6493D02*
X288404Y6493D01*
X291156Y6493D02*
X293484Y6493D01*
X296236Y6493D02*
X299500Y6493D01*
X0520Y6543D02*
X13678Y6543D01*
X18642Y6543D02*
X23678Y6543D01*
X28642Y6543D02*
X37315Y6543D01*
X40005Y6543D02*
X42395Y6543D01*
X43515Y6543D02*
X43965Y6543D01*
X45085Y6543D02*
X47475Y6543D01*
X50165Y6543D02*
X52555Y6543D01*
X55245Y6543D02*
X63918Y6543D01*
X68882Y6543D02*
X73918Y6543D01*
X78882Y6543D02*
X83918Y6543D01*
X88882Y6543D02*
X97555Y6543D01*
X100245Y6543D02*
X102635Y6543D01*
X103755Y6543D02*
X104205Y6543D01*
X105325Y6543D02*
X107715Y6543D01*
X110405Y6543D02*
X112795Y6543D01*
X115485Y6543D02*
X124158Y6543D01*
X129122Y6543D02*
X134158Y6543D01*
X139122Y6543D02*
X144158Y6543D01*
X149122Y6543D02*
X157795Y6543D01*
X160485Y6543D02*
X162875Y6543D01*
X163995Y6543D02*
X164445Y6543D01*
X165565Y6543D02*
X167955Y6543D01*
X170645Y6543D02*
X173035Y6543D01*
X175725Y6543D02*
X184398Y6543D01*
X189362Y6543D02*
X194398Y6543D01*
X199362Y6543D02*
X204398Y6543D01*
X209362Y6543D02*
X218035Y6543D01*
X220725Y6543D02*
X223115Y6543D01*
X224235Y6543D02*
X224685Y6543D01*
X225805Y6543D02*
X228195Y6543D01*
X230885Y6543D02*
X233275Y6543D01*
X235965Y6543D02*
X244638Y6543D01*
X249602Y6543D02*
X254638Y6543D01*
X259602Y6543D02*
X264638Y6543D01*
X269602Y6543D02*
X278275Y6543D01*
X280965Y6543D02*
X283355Y6543D01*
X284475Y6543D02*
X284925Y6543D01*
X286045Y6543D02*
X288435Y6543D01*
X291125Y6543D02*
X293515Y6543D01*
X296205Y6543D02*
X299500Y6543D01*
X0520Y6592D02*
X13695Y6592D01*
X18625Y6592D02*
X23695Y6592D01*
X28625Y6592D02*
X37357Y6592D01*
X39963Y6592D02*
X42437Y6592D01*
X43515Y6592D02*
X43965Y6592D01*
X45043Y6592D02*
X47517Y6592D01*
X50123Y6592D02*
X52597Y6592D01*
X55203Y6592D02*
X63935Y6592D01*
X68865Y6592D02*
X73935Y6592D01*
X78865Y6592D02*
X83935Y6592D01*
X88865Y6592D02*
X97597Y6592D01*
X100203Y6592D02*
X102677Y6592D01*
X103755Y6592D02*
X104205Y6592D01*
X105283Y6592D02*
X107757Y6592D01*
X110363Y6592D02*
X112837Y6592D01*
X115443Y6592D02*
X124175Y6592D01*
X129105Y6592D02*
X134175Y6592D01*
X139105Y6592D02*
X144175Y6592D01*
X149105Y6592D02*
X157837Y6592D01*
X160443Y6592D02*
X162917Y6592D01*
X163995Y6592D02*
X164445Y6592D01*
X165523Y6592D02*
X167997Y6592D01*
X170603Y6592D02*
X173077Y6592D01*
X175683Y6592D02*
X184415Y6592D01*
X189345Y6592D02*
X194415Y6592D01*
X199345Y6592D02*
X204415Y6592D01*
X209345Y6592D02*
X218077Y6592D01*
X220683Y6592D02*
X223157Y6592D01*
X224235Y6592D02*
X224685Y6592D01*
X225763Y6592D02*
X228237Y6592D01*
X230843Y6592D02*
X233317Y6592D01*
X235923Y6592D02*
X244655Y6592D01*
X249585Y6592D02*
X254655Y6592D01*
X259585Y6592D02*
X264655Y6592D01*
X269585Y6592D02*
X278317Y6592D01*
X280923Y6592D02*
X283397Y6592D01*
X284475Y6592D02*
X284925Y6592D01*
X286003Y6592D02*
X288477Y6592D01*
X291083Y6592D02*
X293557Y6592D01*
X296163Y6592D02*
X299500Y6592D01*
X0520Y6642D02*
X13712Y6642D01*
X18608Y6642D02*
X23712Y6642D01*
X28608Y6642D02*
X37406Y6642D01*
X39914Y6642D02*
X42486Y6642D01*
X43515Y6642D02*
X43965Y6642D01*
X44994Y6642D02*
X47566Y6642D01*
X50074Y6642D02*
X52646Y6642D01*
X55154Y6642D02*
X63952Y6642D01*
X68848Y6642D02*
X73952Y6642D01*
X78848Y6642D02*
X83952Y6642D01*
X88848Y6642D02*
X97646Y6642D01*
X100154Y6642D02*
X102726Y6642D01*
X103755Y6642D02*
X104205Y6642D01*
X105234Y6642D02*
X107806Y6642D01*
X110314Y6642D02*
X112886Y6642D01*
X115394Y6642D02*
X124192Y6642D01*
X129088Y6642D02*
X134192Y6642D01*
X139088Y6642D02*
X144192Y6642D01*
X149088Y6642D02*
X157886Y6642D01*
X160394Y6642D02*
X162966Y6642D01*
X163995Y6642D02*
X164445Y6642D01*
X165474Y6642D02*
X168046Y6642D01*
X170554Y6642D02*
X173126Y6642D01*
X175634Y6642D02*
X184432Y6642D01*
X189328Y6642D02*
X194432Y6642D01*
X199328Y6642D02*
X204432Y6642D01*
X209328Y6642D02*
X218126Y6642D01*
X220634Y6642D02*
X223206Y6642D01*
X224235Y6642D02*
X224685Y6642D01*
X225714Y6642D02*
X228286Y6642D01*
X230794Y6642D02*
X233366Y6642D01*
X235874Y6642D02*
X244672Y6642D01*
X249568Y6642D02*
X254672Y6642D01*
X259568Y6642D02*
X264672Y6642D01*
X269568Y6642D02*
X278366Y6642D01*
X280874Y6642D02*
X283446Y6642D01*
X284475Y6642D02*
X284925Y6642D01*
X285954Y6642D02*
X288526Y6642D01*
X291034Y6642D02*
X293606Y6642D01*
X296114Y6642D02*
X299500Y6642D01*
X0520Y6691D02*
X13735Y6691D01*
X18585Y6691D02*
X23735Y6691D01*
X28585Y6691D02*
X37456Y6691D01*
X39864Y6691D02*
X42536Y6691D01*
X43515Y6691D02*
X43965Y6691D01*
X44944Y6691D02*
X47616Y6691D01*
X50024Y6691D02*
X52696Y6691D01*
X55104Y6691D02*
X63975Y6691D01*
X68825Y6691D02*
X73975Y6691D01*
X78825Y6691D02*
X83975Y6691D01*
X88825Y6691D02*
X97696Y6691D01*
X100104Y6691D02*
X102776Y6691D01*
X103755Y6691D02*
X104205Y6691D01*
X105184Y6691D02*
X107856Y6691D01*
X110264Y6691D02*
X112936Y6691D01*
X115344Y6691D02*
X124215Y6691D01*
X129065Y6691D02*
X134215Y6691D01*
X139065Y6691D02*
X144215Y6691D01*
X149065Y6691D02*
X157936Y6691D01*
X160344Y6691D02*
X163016Y6691D01*
X163995Y6691D02*
X164445Y6691D01*
X165424Y6691D02*
X168096Y6691D01*
X170504Y6691D02*
X173176Y6691D01*
X175584Y6691D02*
X184455Y6691D01*
X189305Y6691D02*
X194455Y6691D01*
X199305Y6691D02*
X204455Y6691D01*
X209305Y6691D02*
X218176Y6691D01*
X220584Y6691D02*
X223256Y6691D01*
X224235Y6691D02*
X224685Y6691D01*
X225664Y6691D02*
X228336Y6691D01*
X230744Y6691D02*
X233416Y6691D01*
X235824Y6691D02*
X244695Y6691D01*
X249545Y6691D02*
X254695Y6691D01*
X259545Y6691D02*
X264695Y6691D01*
X269545Y6691D02*
X278416Y6691D01*
X280824Y6691D02*
X283496Y6691D01*
X284475Y6691D02*
X284925Y6691D01*
X285904Y6691D02*
X288576Y6691D01*
X290984Y6691D02*
X293656Y6691D01*
X296064Y6691D02*
X299500Y6691D01*
X0520Y6741D02*
X13766Y6741D01*
X18554Y6741D02*
X23766Y6741D01*
X28554Y6741D02*
X37505Y6741D01*
X39815Y6741D02*
X42585Y6741D01*
X43515Y6741D02*
X43965Y6741D01*
X44895Y6741D02*
X47665Y6741D01*
X49975Y6741D02*
X52745Y6741D01*
X55055Y6741D02*
X64006Y6741D01*
X68794Y6741D02*
X74006Y6741D01*
X78794Y6741D02*
X84006Y6741D01*
X88794Y6741D02*
X97745Y6741D01*
X100055Y6741D02*
X102825Y6741D01*
X103755Y6741D02*
X104205Y6741D01*
X105135Y6741D02*
X107905Y6741D01*
X110215Y6741D02*
X112985Y6741D01*
X115295Y6741D02*
X124246Y6741D01*
X129034Y6741D02*
X134246Y6741D01*
X139034Y6741D02*
X144246Y6741D01*
X149034Y6741D02*
X157985Y6741D01*
X160295Y6741D02*
X163065Y6741D01*
X163995Y6741D02*
X164445Y6741D01*
X165375Y6741D02*
X168145Y6741D01*
X170455Y6741D02*
X173225Y6741D01*
X175535Y6741D02*
X184486Y6741D01*
X189274Y6741D02*
X194486Y6741D01*
X199274Y6741D02*
X204486Y6741D01*
X209274Y6741D02*
X218225Y6741D01*
X220535Y6741D02*
X223305Y6741D01*
X224235Y6741D02*
X224685Y6741D01*
X225615Y6741D02*
X228385Y6741D01*
X230695Y6741D02*
X233465Y6741D01*
X235775Y6741D02*
X244726Y6741D01*
X249514Y6741D02*
X254726Y6741D01*
X259514Y6741D02*
X264726Y6741D01*
X269514Y6741D02*
X278465Y6741D01*
X280775Y6741D02*
X283545Y6741D01*
X284475Y6741D02*
X284925Y6741D01*
X285855Y6741D02*
X288625Y6741D01*
X290935Y6741D02*
X293705Y6741D01*
X296015Y6741D02*
X299500Y6741D01*
X0520Y6790D02*
X13797Y6790D01*
X18523Y6790D02*
X23797Y6790D01*
X28523Y6790D02*
X37555Y6790D01*
X39765Y6790D02*
X42635Y6790D01*
X43515Y6790D02*
X43965Y6790D01*
X44845Y6790D02*
X47715Y6790D01*
X49925Y6790D02*
X52795Y6790D01*
X55005Y6790D02*
X64037Y6790D01*
X68763Y6790D02*
X74037Y6790D01*
X78763Y6790D02*
X84037Y6790D01*
X88763Y6790D02*
X97795Y6790D01*
X100005Y6790D02*
X102875Y6790D01*
X103755Y6790D02*
X104205Y6790D01*
X105085Y6790D02*
X107955Y6790D01*
X110165Y6790D02*
X113035Y6790D01*
X115245Y6790D02*
X124277Y6790D01*
X129003Y6790D02*
X134277Y6790D01*
X139003Y6790D02*
X144277Y6790D01*
X149003Y6790D02*
X158035Y6790D01*
X160245Y6790D02*
X163115Y6790D01*
X163995Y6790D02*
X164445Y6790D01*
X165325Y6790D02*
X168195Y6790D01*
X170405Y6790D02*
X173275Y6790D01*
X175485Y6790D02*
X184517Y6790D01*
X189243Y6790D02*
X194517Y6790D01*
X199243Y6790D02*
X204517Y6790D01*
X209243Y6790D02*
X218275Y6790D01*
X220485Y6790D02*
X223355Y6790D01*
X224235Y6790D02*
X224685Y6790D01*
X225565Y6790D02*
X228435Y6790D01*
X230645Y6790D02*
X233515Y6790D01*
X235725Y6790D02*
X244757Y6790D01*
X249483Y6790D02*
X254757Y6790D01*
X259483Y6790D02*
X264757Y6790D01*
X269483Y6790D02*
X278515Y6790D01*
X280725Y6790D02*
X283595Y6790D01*
X284475Y6790D02*
X284925Y6790D01*
X285805Y6790D02*
X288675Y6790D01*
X290885Y6790D02*
X293755Y6790D01*
X295965Y6790D02*
X299500Y6790D01*
X0520Y6840D02*
X3374Y6840D01*
X5626Y6840D02*
X13828Y6840D01*
X18492Y6840D02*
X23828Y6840D01*
X28492Y6840D02*
X37609Y6840D01*
X39711Y6840D02*
X42689Y6840D01*
X43515Y6840D02*
X43965Y6840D01*
X44791Y6840D02*
X47769Y6840D01*
X49871Y6840D02*
X52849Y6840D01*
X54951Y6840D02*
X64068Y6840D01*
X68732Y6840D02*
X74068Y6840D01*
X78732Y6840D02*
X84068Y6840D01*
X88732Y6840D02*
X97849Y6840D01*
X99951Y6840D02*
X102929Y6840D01*
X103755Y6840D02*
X104205Y6840D01*
X105031Y6840D02*
X108009Y6840D01*
X110111Y6840D02*
X113089Y6840D01*
X115191Y6840D02*
X124308Y6840D01*
X128972Y6840D02*
X134308Y6840D01*
X138972Y6840D02*
X144308Y6840D01*
X148972Y6840D02*
X158089Y6840D01*
X160191Y6840D02*
X163169Y6840D01*
X163995Y6840D02*
X164445Y6840D01*
X165271Y6840D02*
X168249Y6840D01*
X170351Y6840D02*
X173329Y6840D01*
X175431Y6840D02*
X184548Y6840D01*
X189212Y6840D02*
X194548Y6840D01*
X199212Y6840D02*
X204548Y6840D01*
X209212Y6840D02*
X218329Y6840D01*
X220431Y6840D02*
X223409Y6840D01*
X224235Y6840D02*
X224685Y6840D01*
X225511Y6840D02*
X228489Y6840D01*
X230591Y6840D02*
X233569Y6840D01*
X235671Y6840D02*
X244788Y6840D01*
X249452Y6840D02*
X254788Y6840D01*
X259452Y6840D02*
X264788Y6840D01*
X269452Y6840D02*
X278569Y6840D01*
X280671Y6840D02*
X283649Y6840D01*
X284475Y6840D02*
X284925Y6840D01*
X285751Y6840D02*
X288729Y6840D01*
X290831Y6840D02*
X293809Y6840D01*
X295911Y6840D02*
X299500Y6840D01*
X0520Y6889D02*
X3329Y6889D01*
X5671Y6889D02*
X13859Y6889D01*
X18461Y6889D02*
X23859Y6889D01*
X28461Y6889D02*
X37688Y6889D01*
X39632Y6889D02*
X42768Y6889D01*
X43515Y6889D02*
X43965Y6889D01*
X44712Y6889D02*
X47848Y6889D01*
X49792Y6889D02*
X52928Y6889D01*
X54872Y6889D02*
X64099Y6889D01*
X68701Y6889D02*
X74099Y6889D01*
X78701Y6889D02*
X84099Y6889D01*
X88701Y6889D02*
X97928Y6889D01*
X99872Y6889D02*
X103008Y6889D01*
X103755Y6889D02*
X104205Y6889D01*
X104952Y6889D02*
X108088Y6889D01*
X110032Y6889D02*
X113168Y6889D01*
X115112Y6889D02*
X124339Y6889D01*
X128941Y6889D02*
X134339Y6889D01*
X138941Y6889D02*
X144339Y6889D01*
X148941Y6889D02*
X158168Y6889D01*
X160112Y6889D02*
X163248Y6889D01*
X163995Y6889D02*
X164445Y6889D01*
X165192Y6889D02*
X168328Y6889D01*
X170272Y6889D02*
X173408Y6889D01*
X175352Y6889D02*
X184579Y6889D01*
X189181Y6889D02*
X194579Y6889D01*
X199181Y6889D02*
X204579Y6889D01*
X209181Y6889D02*
X218408Y6889D01*
X220352Y6889D02*
X223488Y6889D01*
X224235Y6889D02*
X224685Y6889D01*
X225432Y6889D02*
X228568Y6889D01*
X230512Y6889D02*
X233648Y6889D01*
X235592Y6889D02*
X244819Y6889D01*
X249421Y6889D02*
X254819Y6889D01*
X259421Y6889D02*
X264819Y6889D01*
X269421Y6889D02*
X278648Y6889D01*
X280592Y6889D02*
X283728Y6889D01*
X284475Y6889D02*
X284925Y6889D01*
X285672Y6889D02*
X288808Y6889D01*
X290752Y6889D02*
X293888Y6889D01*
X295832Y6889D02*
X299500Y6889D01*
X0520Y6939D02*
X3305Y6939D01*
X5695Y6939D02*
X13890Y6939D01*
X18430Y6939D02*
X23890Y6939D01*
X28430Y6939D02*
X37766Y6939D01*
X39554Y6939D02*
X42846Y6939D01*
X43515Y6939D02*
X43965Y6939D01*
X44634Y6939D02*
X47926Y6939D01*
X49714Y6939D02*
X53006Y6939D01*
X54794Y6939D02*
X64130Y6939D01*
X68670Y6939D02*
X74130Y6939D01*
X78670Y6939D02*
X84130Y6939D01*
X88670Y6939D02*
X98006Y6939D01*
X99794Y6939D02*
X103086Y6939D01*
X103755Y6939D02*
X104205Y6939D01*
X104874Y6939D02*
X108166Y6939D01*
X109954Y6939D02*
X113246Y6939D01*
X115034Y6939D02*
X124370Y6939D01*
X128910Y6939D02*
X134370Y6939D01*
X138910Y6939D02*
X144370Y6939D01*
X148910Y6939D02*
X158246Y6939D01*
X160034Y6939D02*
X163326Y6939D01*
X163995Y6939D02*
X164445Y6939D01*
X165114Y6939D02*
X168406Y6939D01*
X170194Y6939D02*
X173486Y6939D01*
X175274Y6939D02*
X184610Y6939D01*
X189150Y6939D02*
X194610Y6939D01*
X199150Y6939D02*
X204610Y6939D01*
X209150Y6939D02*
X218486Y6939D01*
X220274Y6939D02*
X223566Y6939D01*
X224235Y6939D02*
X224685Y6939D01*
X225354Y6939D02*
X228646Y6939D01*
X230434Y6939D02*
X233726Y6939D01*
X235514Y6939D02*
X244850Y6939D01*
X249390Y6939D02*
X254850Y6939D01*
X259390Y6939D02*
X264850Y6939D01*
X269390Y6939D02*
X278726Y6939D01*
X280514Y6939D02*
X283806Y6939D01*
X284475Y6939D02*
X284925Y6939D01*
X285594Y6939D02*
X288886Y6939D01*
X290674Y6939D02*
X293966Y6939D01*
X295754Y6939D02*
X299500Y6939D01*
X0520Y6988D02*
X3296Y6988D01*
X5704Y6988D02*
X13921Y6988D01*
X18399Y6988D02*
X23921Y6988D01*
X28399Y6988D02*
X37845Y6988D01*
X39475Y6988D02*
X42925Y6988D01*
X43515Y6988D02*
X43965Y6988D01*
X44555Y6988D02*
X48005Y6988D01*
X49635Y6988D02*
X53085Y6988D01*
X54715Y6988D02*
X64161Y6988D01*
X68639Y6988D02*
X74161Y6988D01*
X78639Y6988D02*
X84161Y6988D01*
X88639Y6988D02*
X98085Y6988D01*
X99715Y6988D02*
X103165Y6988D01*
X103755Y6988D02*
X104205Y6988D01*
X104795Y6988D02*
X108245Y6988D01*
X109875Y6988D02*
X113325Y6988D01*
X114955Y6988D02*
X124401Y6988D01*
X128879Y6988D02*
X134401Y6988D01*
X138879Y6988D02*
X144401Y6988D01*
X148879Y6988D02*
X158325Y6988D01*
X159955Y6988D02*
X163405Y6988D01*
X163995Y6988D02*
X164445Y6988D01*
X165035Y6988D02*
X168485Y6988D01*
X170115Y6988D02*
X173565Y6988D01*
X175195Y6988D02*
X184641Y6988D01*
X189119Y6988D02*
X194641Y6988D01*
X199119Y6988D02*
X204641Y6988D01*
X209119Y6988D02*
X218565Y6988D01*
X220195Y6988D02*
X223645Y6988D01*
X224235Y6988D02*
X224685Y6988D01*
X225275Y6988D02*
X228725Y6988D01*
X230355Y6988D02*
X233805Y6988D01*
X235435Y6988D02*
X244881Y6988D01*
X249359Y6988D02*
X254881Y6988D01*
X259359Y6988D02*
X264881Y6988D01*
X269359Y6988D02*
X278805Y6988D01*
X280435Y6988D02*
X283885Y6988D01*
X284475Y6988D02*
X284925Y6988D01*
X285515Y6988D02*
X288965Y6988D01*
X290595Y6988D02*
X294045Y6988D01*
X295675Y6988D02*
X299500Y6988D01*
X0520Y7038D02*
X3296Y7038D01*
X5704Y7038D02*
X13952Y7038D01*
X18368Y7038D02*
X23952Y7038D01*
X28368Y7038D02*
X37927Y7038D01*
X39393Y7038D02*
X43007Y7038D01*
X43515Y7038D02*
X43965Y7038D01*
X44473Y7038D02*
X48087Y7038D01*
X49553Y7038D02*
X53167Y7038D01*
X54633Y7038D02*
X64192Y7038D01*
X68608Y7038D02*
X74192Y7038D01*
X78608Y7038D02*
X84192Y7038D01*
X88608Y7038D02*
X98167Y7038D01*
X99633Y7038D02*
X103247Y7038D01*
X103755Y7038D02*
X104205Y7038D01*
X104713Y7038D02*
X108327Y7038D01*
X109793Y7038D02*
X113407Y7038D01*
X114873Y7038D02*
X124432Y7038D01*
X128848Y7038D02*
X134432Y7038D01*
X138848Y7038D02*
X144432Y7038D01*
X148848Y7038D02*
X158407Y7038D01*
X159873Y7038D02*
X163487Y7038D01*
X163995Y7038D02*
X164445Y7038D01*
X164953Y7038D02*
X168567Y7038D01*
X170033Y7038D02*
X173647Y7038D01*
X175113Y7038D02*
X184672Y7038D01*
X189088Y7038D02*
X194672Y7038D01*
X199088Y7038D02*
X204672Y7038D01*
X209088Y7038D02*
X218647Y7038D01*
X220113Y7038D02*
X223727Y7038D01*
X224235Y7038D02*
X224685Y7038D01*
X225193Y7038D02*
X228807Y7038D01*
X230273Y7038D02*
X233887Y7038D01*
X235353Y7038D02*
X244912Y7038D01*
X249328Y7038D02*
X254912Y7038D01*
X259328Y7038D02*
X264912Y7038D01*
X269328Y7038D02*
X278887Y7038D01*
X280353Y7038D02*
X283967Y7038D01*
X284475Y7038D02*
X284925Y7038D01*
X285433Y7038D02*
X289047Y7038D01*
X290513Y7038D02*
X294127Y7038D01*
X295593Y7038D02*
X299500Y7038D01*
X0520Y7087D02*
X3296Y7087D01*
X5704Y7087D02*
X13984Y7087D01*
X18336Y7087D02*
X23984Y7087D01*
X28336Y7087D02*
X38069Y7087D01*
X39251Y7087D02*
X43149Y7087D01*
X43515Y7087D02*
X43965Y7087D01*
X44331Y7087D02*
X48229Y7087D01*
X49411Y7087D02*
X53309Y7087D01*
X54491Y7087D02*
X64224Y7087D01*
X68576Y7087D02*
X74224Y7087D01*
X78576Y7087D02*
X84224Y7087D01*
X88576Y7087D02*
X98309Y7087D01*
X99491Y7087D02*
X103389Y7087D01*
X103755Y7087D02*
X104205Y7087D01*
X104571Y7087D02*
X108469Y7087D01*
X109651Y7087D02*
X113549Y7087D01*
X114731Y7087D02*
X124464Y7087D01*
X128816Y7087D02*
X134464Y7087D01*
X138816Y7087D02*
X144464Y7087D01*
X148816Y7087D02*
X158549Y7087D01*
X159731Y7087D02*
X163629Y7087D01*
X163995Y7087D02*
X164445Y7087D01*
X164811Y7087D02*
X168709Y7087D01*
X169891Y7087D02*
X173789Y7087D01*
X174971Y7087D02*
X184704Y7087D01*
X189056Y7087D02*
X194704Y7087D01*
X199056Y7087D02*
X204704Y7087D01*
X209056Y7087D02*
X218789Y7087D01*
X219971Y7087D02*
X223869Y7087D01*
X224235Y7087D02*
X224685Y7087D01*
X225051Y7087D02*
X228949Y7087D01*
X230131Y7087D02*
X234029Y7087D01*
X235211Y7087D02*
X244944Y7087D01*
X249296Y7087D02*
X254944Y7087D01*
X259296Y7087D02*
X264944Y7087D01*
X269296Y7087D02*
X279029Y7087D01*
X280211Y7087D02*
X284109Y7087D01*
X284475Y7087D02*
X284925Y7087D01*
X285291Y7087D02*
X289189Y7087D01*
X290371Y7087D02*
X294269Y7087D01*
X295451Y7087D02*
X299500Y7087D01*
X0520Y7137D02*
X3296Y7137D01*
X5704Y7137D02*
X14015Y7137D01*
X18305Y7137D02*
X24015Y7137D01*
X28305Y7137D02*
X38210Y7137D01*
X39110Y7137D02*
X43290Y7137D01*
X43515Y7137D02*
X43965Y7137D01*
X44190Y7137D02*
X48370Y7137D01*
X49270Y7137D02*
X53450Y7137D01*
X54350Y7137D02*
X64255Y7137D01*
X68545Y7137D02*
X74255Y7137D01*
X78545Y7137D02*
X84255Y7137D01*
X88545Y7137D02*
X98450Y7137D01*
X99350Y7137D02*
X103530Y7137D01*
X103755Y7137D02*
X104205Y7137D01*
X104430Y7137D02*
X108610Y7137D01*
X109510Y7137D02*
X113690Y7137D01*
X114590Y7137D02*
X124495Y7137D01*
X128785Y7137D02*
X134495Y7137D01*
X138785Y7137D02*
X144495Y7137D01*
X148785Y7137D02*
X158690Y7137D01*
X159590Y7137D02*
X163770Y7137D01*
X163995Y7137D02*
X164445Y7137D01*
X164670Y7137D02*
X168850Y7137D01*
X169750Y7137D02*
X173930Y7137D01*
X174830Y7137D02*
X184735Y7137D01*
X189025Y7137D02*
X194735Y7137D01*
X199025Y7137D02*
X204735Y7137D01*
X209025Y7137D02*
X218930Y7137D01*
X219830Y7137D02*
X224010Y7137D01*
X224235Y7137D02*
X224685Y7137D01*
X224910Y7137D02*
X229090Y7137D01*
X229990Y7137D02*
X234170Y7137D01*
X235070Y7137D02*
X244975Y7137D01*
X249265Y7137D02*
X254975Y7137D01*
X259265Y7137D02*
X264975Y7137D01*
X269265Y7137D02*
X279170Y7137D01*
X280070Y7137D02*
X284250Y7137D01*
X284475Y7137D02*
X284925Y7137D01*
X285150Y7137D02*
X289330Y7137D01*
X290230Y7137D02*
X294410Y7137D01*
X295310Y7137D02*
X299500Y7137D01*
X0520Y7187D02*
X3296Y7187D01*
X5704Y7187D02*
X14046Y7187D01*
X18274Y7187D02*
X24046Y7187D01*
X28274Y7187D02*
X38501Y7187D01*
X38819Y7187D02*
X48661Y7187D01*
X48979Y7187D02*
X53741Y7187D01*
X54059Y7187D02*
X64286Y7187D01*
X68514Y7187D02*
X74286Y7187D01*
X78514Y7187D02*
X84286Y7187D01*
X88514Y7187D02*
X98741Y7187D01*
X99059Y7187D02*
X108901Y7187D01*
X109219Y7187D02*
X113981Y7187D01*
X114299Y7187D02*
X124526Y7187D01*
X128754Y7187D02*
X134526Y7187D01*
X138754Y7187D02*
X144526Y7187D01*
X148754Y7187D02*
X158981Y7187D01*
X159299Y7187D02*
X169141Y7187D01*
X169459Y7187D02*
X174221Y7187D01*
X174539Y7187D02*
X184766Y7187D01*
X188994Y7187D02*
X194766Y7187D01*
X198994Y7187D02*
X204766Y7187D01*
X208994Y7187D02*
X219221Y7187D01*
X219539Y7187D02*
X229381Y7187D01*
X229699Y7187D02*
X234461Y7187D01*
X234779Y7187D02*
X245006Y7187D01*
X249234Y7187D02*
X255006Y7187D01*
X259234Y7187D02*
X265006Y7187D01*
X269234Y7187D02*
X279461Y7187D01*
X279779Y7187D02*
X289621Y7187D01*
X289939Y7187D02*
X294701Y7187D01*
X295019Y7187D02*
X299500Y7187D01*
X0520Y7236D02*
X3296Y7236D01*
X5704Y7236D02*
X14095Y7236D01*
X18225Y7236D02*
X24095Y7236D01*
X28225Y7236D02*
X64335Y7236D01*
X68465Y7236D02*
X74335Y7236D01*
X78465Y7236D02*
X84335Y7236D01*
X88465Y7236D02*
X124575Y7236D01*
X128705Y7236D02*
X134575Y7236D01*
X138705Y7236D02*
X144575Y7236D01*
X148705Y7236D02*
X184815Y7236D01*
X188945Y7236D02*
X194815Y7236D01*
X198945Y7236D02*
X204815Y7236D01*
X208945Y7236D02*
X245055Y7236D01*
X249185Y7236D02*
X255055Y7236D01*
X259185Y7236D02*
X265055Y7236D01*
X269185Y7236D02*
X299500Y7236D01*
X0520Y7286D02*
X3296Y7286D01*
X5704Y7286D02*
X14145Y7286D01*
X18175Y7286D02*
X24145Y7286D01*
X28175Y7286D02*
X64385Y7286D01*
X68415Y7286D02*
X74385Y7286D01*
X78415Y7286D02*
X84385Y7286D01*
X88415Y7286D02*
X124625Y7286D01*
X128655Y7286D02*
X134625Y7286D01*
X138655Y7286D02*
X144625Y7286D01*
X148655Y7286D02*
X184865Y7286D01*
X188895Y7286D02*
X194865Y7286D01*
X198895Y7286D02*
X204865Y7286D01*
X208895Y7286D02*
X245105Y7286D01*
X249135Y7286D02*
X255105Y7286D01*
X259135Y7286D02*
X265105Y7286D01*
X269135Y7286D02*
X299500Y7286D01*
X0520Y7335D02*
X3296Y7335D01*
X5704Y7335D02*
X14195Y7335D01*
X18125Y7335D02*
X24195Y7335D01*
X28125Y7335D02*
X64435Y7335D01*
X68365Y7335D02*
X74435Y7335D01*
X78365Y7335D02*
X84435Y7335D01*
X88365Y7335D02*
X124675Y7335D01*
X128605Y7335D02*
X134675Y7335D01*
X138605Y7335D02*
X144675Y7335D01*
X148605Y7335D02*
X184915Y7335D01*
X188845Y7335D02*
X194915Y7335D01*
X198845Y7335D02*
X204915Y7335D01*
X208845Y7335D02*
X245155Y7335D01*
X249085Y7335D02*
X255155Y7335D01*
X259085Y7335D02*
X265155Y7335D01*
X269085Y7335D02*
X299500Y7335D01*
X0520Y7385D02*
X3296Y7385D01*
X5704Y7385D02*
X14244Y7385D01*
X18076Y7385D02*
X24244Y7385D01*
X28076Y7385D02*
X64484Y7385D01*
X68316Y7385D02*
X74484Y7385D01*
X78316Y7385D02*
X84484Y7385D01*
X88316Y7385D02*
X124724Y7385D01*
X128556Y7385D02*
X134724Y7385D01*
X138556Y7385D02*
X144724Y7385D01*
X148556Y7385D02*
X184964Y7385D01*
X188796Y7385D02*
X194964Y7385D01*
X198796Y7385D02*
X204964Y7385D01*
X208796Y7385D02*
X245204Y7385D01*
X249036Y7385D02*
X255204Y7385D01*
X259036Y7385D02*
X265204Y7385D01*
X269036Y7385D02*
X299500Y7385D01*
X0520Y7434D02*
X3296Y7434D01*
X5704Y7434D02*
X14294Y7434D01*
X18026Y7434D02*
X24294Y7434D01*
X28026Y7434D02*
X64534Y7434D01*
X68266Y7434D02*
X74534Y7434D01*
X78266Y7434D02*
X84534Y7434D01*
X88266Y7434D02*
X124774Y7434D01*
X128506Y7434D02*
X134774Y7434D01*
X138506Y7434D02*
X144774Y7434D01*
X148506Y7434D02*
X185014Y7434D01*
X188746Y7434D02*
X195014Y7434D01*
X198746Y7434D02*
X205014Y7434D01*
X208746Y7434D02*
X245254Y7434D01*
X248986Y7434D02*
X255254Y7434D01*
X258986Y7434D02*
X265254Y7434D01*
X268986Y7434D02*
X299500Y7434D01*
X0520Y7484D02*
X3296Y7484D01*
X5704Y7484D02*
X14343Y7484D01*
X17977Y7484D02*
X24343Y7484D01*
X27977Y7484D02*
X64583Y7484D01*
X68217Y7484D02*
X74583Y7484D01*
X78217Y7484D02*
X84583Y7484D01*
X88217Y7484D02*
X124823Y7484D01*
X128457Y7484D02*
X134823Y7484D01*
X138457Y7484D02*
X144823Y7484D01*
X148457Y7484D02*
X185063Y7484D01*
X188697Y7484D02*
X195063Y7484D01*
X198697Y7484D02*
X205063Y7484D01*
X208697Y7484D02*
X245303Y7484D01*
X248937Y7484D02*
X255303Y7484D01*
X258937Y7484D02*
X265303Y7484D01*
X268937Y7484D02*
X299500Y7484D01*
X0520Y7533D02*
X3296Y7533D01*
X5704Y7533D02*
X14393Y7533D01*
X17927Y7533D02*
X24393Y7533D01*
X27927Y7533D02*
X64633Y7533D01*
X68167Y7533D02*
X74633Y7533D01*
X78167Y7533D02*
X84633Y7533D01*
X88167Y7533D02*
X124873Y7533D01*
X128407Y7533D02*
X134873Y7533D01*
X138407Y7533D02*
X144873Y7533D01*
X148407Y7533D02*
X185113Y7533D01*
X188647Y7533D02*
X195113Y7533D01*
X198647Y7533D02*
X205113Y7533D01*
X208647Y7533D02*
X245353Y7533D01*
X248887Y7533D02*
X255353Y7533D01*
X258887Y7533D02*
X265353Y7533D01*
X268887Y7533D02*
X299500Y7533D01*
X0520Y7583D02*
X3296Y7583D01*
X5704Y7583D02*
X14442Y7583D01*
X17878Y7583D02*
X24442Y7583D01*
X27878Y7583D02*
X64682Y7583D01*
X68118Y7583D02*
X74682Y7583D01*
X78118Y7583D02*
X84682Y7583D01*
X88118Y7583D02*
X124922Y7583D01*
X128358Y7583D02*
X134922Y7583D01*
X138358Y7583D02*
X144922Y7583D01*
X148358Y7583D02*
X185162Y7583D01*
X188598Y7583D02*
X195162Y7583D01*
X198598Y7583D02*
X205162Y7583D01*
X208598Y7583D02*
X245402Y7583D01*
X248838Y7583D02*
X255402Y7583D01*
X258838Y7583D02*
X265402Y7583D01*
X268838Y7583D02*
X299500Y7583D01*
X0520Y7632D02*
X3296Y7632D01*
X5704Y7632D02*
X14502Y7632D01*
X17818Y7632D02*
X24502Y7632D01*
X27818Y7632D02*
X64742Y7632D01*
X68058Y7632D02*
X74742Y7632D01*
X78058Y7632D02*
X84742Y7632D01*
X88058Y7632D02*
X124982Y7632D01*
X128298Y7632D02*
X134982Y7632D01*
X138298Y7632D02*
X144982Y7632D01*
X148298Y7632D02*
X185222Y7632D01*
X188538Y7632D02*
X195222Y7632D01*
X198538Y7632D02*
X205222Y7632D01*
X208538Y7632D02*
X245462Y7632D01*
X248778Y7632D02*
X255462Y7632D01*
X258778Y7632D02*
X265462Y7632D01*
X268778Y7632D02*
X299500Y7632D01*
X0520Y7682D02*
X3296Y7682D01*
X5704Y7682D02*
X14581Y7682D01*
X17739Y7682D02*
X24581Y7682D01*
X27739Y7682D02*
X64821Y7682D01*
X67979Y7682D02*
X74821Y7682D01*
X77979Y7682D02*
X84821Y7682D01*
X87979Y7682D02*
X125061Y7682D01*
X128219Y7682D02*
X135061Y7682D01*
X138219Y7682D02*
X145061Y7682D01*
X148219Y7682D02*
X185301Y7682D01*
X188459Y7682D02*
X195301Y7682D01*
X198459Y7682D02*
X205301Y7682D01*
X208459Y7682D02*
X245541Y7682D01*
X248699Y7682D02*
X255541Y7682D01*
X258699Y7682D02*
X265541Y7682D01*
X268699Y7682D02*
X299500Y7682D01*
X0520Y7731D02*
X3296Y7731D01*
X5704Y7731D02*
X14660Y7731D01*
X17660Y7731D02*
X24660Y7731D01*
X27660Y7731D02*
X64900Y7731D01*
X67900Y7731D02*
X74900Y7731D01*
X77900Y7731D02*
X84900Y7731D01*
X87900Y7731D02*
X125140Y7731D01*
X128140Y7731D02*
X135140Y7731D01*
X138140Y7731D02*
X145140Y7731D01*
X148140Y7731D02*
X185380Y7731D01*
X188380Y7731D02*
X195380Y7731D01*
X198380Y7731D02*
X205380Y7731D01*
X208380Y7731D02*
X245620Y7731D01*
X248620Y7731D02*
X255620Y7731D01*
X258620Y7731D02*
X265620Y7731D01*
X268620Y7731D02*
X299500Y7731D01*
X0520Y7781D02*
X3296Y7781D01*
X5704Y7781D02*
X14739Y7781D01*
X17581Y7781D02*
X24739Y7781D01*
X27581Y7781D02*
X64979Y7781D01*
X67821Y7781D02*
X74979Y7781D01*
X77821Y7781D02*
X84979Y7781D01*
X87821Y7781D02*
X125219Y7781D01*
X128061Y7781D02*
X135219Y7781D01*
X138061Y7781D02*
X145219Y7781D01*
X148061Y7781D02*
X185459Y7781D01*
X188301Y7781D02*
X195459Y7781D01*
X198301Y7781D02*
X205459Y7781D01*
X208301Y7781D02*
X245699Y7781D01*
X248541Y7781D02*
X255699Y7781D01*
X258541Y7781D02*
X265699Y7781D01*
X268541Y7781D02*
X299500Y7781D01*
X0520Y7830D02*
X3296Y7830D01*
X5704Y7830D02*
X14818Y7830D01*
X17502Y7830D02*
X24818Y7830D01*
X27502Y7830D02*
X65058Y7830D01*
X67742Y7830D02*
X75058Y7830D01*
X77742Y7830D02*
X85058Y7830D01*
X87742Y7830D02*
X125298Y7830D01*
X127982Y7830D02*
X135298Y7830D01*
X137982Y7830D02*
X145298Y7830D01*
X147982Y7830D02*
X185538Y7830D01*
X188222Y7830D02*
X195538Y7830D01*
X198222Y7830D02*
X205538Y7830D01*
X208222Y7830D02*
X245778Y7830D01*
X248462Y7830D02*
X255778Y7830D01*
X258462Y7830D02*
X265778Y7830D01*
X268462Y7830D02*
X299500Y7830D01*
X0520Y7880D02*
X3296Y7880D01*
X5704Y7880D02*
X14896Y7880D01*
X17424Y7880D02*
X24896Y7880D01*
X27424Y7880D02*
X65136Y7880D01*
X67664Y7880D02*
X75136Y7880D01*
X77664Y7880D02*
X85136Y7880D01*
X87664Y7880D02*
X125376Y7880D01*
X127904Y7880D02*
X135376Y7880D01*
X137904Y7880D02*
X145376Y7880D01*
X147904Y7880D02*
X185616Y7880D01*
X188144Y7880D02*
X195616Y7880D01*
X198144Y7880D02*
X205616Y7880D01*
X208144Y7880D02*
X245856Y7880D01*
X248384Y7880D02*
X255856Y7880D01*
X258384Y7880D02*
X265856Y7880D01*
X268384Y7880D02*
X299500Y7880D01*
X0520Y7929D02*
X3296Y7929D01*
X5704Y7929D02*
X14975Y7929D01*
X17345Y7929D02*
X24975Y7929D01*
X27345Y7929D02*
X65215Y7929D01*
X67585Y7929D02*
X75215Y7929D01*
X77585Y7929D02*
X85215Y7929D01*
X87585Y7929D02*
X125455Y7929D01*
X127825Y7929D02*
X135455Y7929D01*
X137825Y7929D02*
X145455Y7929D01*
X147825Y7929D02*
X185695Y7929D01*
X188065Y7929D02*
X195695Y7929D01*
X198065Y7929D02*
X205695Y7929D01*
X208065Y7929D02*
X245935Y7929D01*
X248305Y7929D02*
X255935Y7929D01*
X258305Y7929D02*
X265935Y7929D01*
X268305Y7929D02*
X299500Y7929D01*
X0520Y7979D02*
X3296Y7979D01*
X5704Y7979D02*
X15108Y7979D01*
X17212Y7979D02*
X25108Y7979D01*
X27212Y7979D02*
X65348Y7979D01*
X67452Y7979D02*
X75348Y7979D01*
X77452Y7979D02*
X85348Y7979D01*
X87452Y7979D02*
X125588Y7979D01*
X127692Y7979D02*
X135588Y7979D01*
X137692Y7979D02*
X145588Y7979D01*
X147692Y7979D02*
X185828Y7979D01*
X187932Y7979D02*
X195828Y7979D01*
X197932Y7979D02*
X205828Y7979D01*
X207932Y7979D02*
X246068Y7979D01*
X248172Y7979D02*
X256068Y7979D01*
X258172Y7979D02*
X266068Y7979D01*
X268172Y7979D02*
X299500Y7979D01*
X0520Y8029D02*
X3296Y8029D01*
X5704Y8029D02*
X15249Y8029D01*
X17071Y8029D02*
X25249Y8029D01*
X27071Y8029D02*
X65489Y8029D01*
X67311Y8029D02*
X75489Y8029D01*
X77311Y8029D02*
X85489Y8029D01*
X87311Y8029D02*
X125729Y8029D01*
X127551Y8029D02*
X135729Y8029D01*
X137551Y8029D02*
X145729Y8029D01*
X147551Y8029D02*
X185969Y8029D01*
X187791Y8029D02*
X195969Y8029D01*
X197791Y8029D02*
X205969Y8029D01*
X207791Y8029D02*
X246209Y8029D01*
X248031Y8029D02*
X256209Y8029D01*
X258031Y8029D02*
X266209Y8029D01*
X268031Y8029D02*
X299500Y8029D01*
X0520Y8078D02*
X3296Y8078D01*
X5704Y8078D02*
X15391Y8078D01*
X16929Y8078D02*
X25391Y8078D01*
X26929Y8078D02*
X65631Y8078D01*
X67169Y8078D02*
X75631Y8078D01*
X77169Y8078D02*
X85631Y8078D01*
X87169Y8078D02*
X125871Y8078D01*
X127409Y8078D02*
X135871Y8078D01*
X137409Y8078D02*
X145871Y8078D01*
X147409Y8078D02*
X186111Y8078D01*
X187649Y8078D02*
X196111Y8078D01*
X197649Y8078D02*
X206111Y8078D01*
X207649Y8078D02*
X246351Y8078D01*
X247889Y8078D02*
X256351Y8078D01*
X257889Y8078D02*
X266351Y8078D01*
X267889Y8078D02*
X299500Y8078D01*
X0520Y8128D02*
X3296Y8128D01*
X5704Y8128D02*
X15532Y8128D01*
X16788Y8128D02*
X25532Y8128D01*
X26788Y8128D02*
X65772Y8128D01*
X67028Y8128D02*
X75772Y8128D01*
X77028Y8128D02*
X85772Y8128D01*
X87028Y8128D02*
X126012Y8128D01*
X127268Y8128D02*
X136012Y8128D01*
X137268Y8128D02*
X146012Y8128D01*
X147268Y8128D02*
X186252Y8128D01*
X187508Y8128D02*
X196252Y8128D01*
X197508Y8128D02*
X206252Y8128D01*
X207508Y8128D02*
X246492Y8128D01*
X247748Y8128D02*
X256492Y8128D01*
X257748Y8128D02*
X266492Y8128D01*
X267748Y8128D02*
X299500Y8128D01*
X0520Y8177D02*
X3296Y8177D01*
X5704Y8177D02*
X15918Y8177D01*
X16402Y8177D02*
X25918Y8177D01*
X26402Y8177D02*
X66158Y8177D01*
X66642Y8177D02*
X76158Y8177D01*
X76642Y8177D02*
X86158Y8177D01*
X86642Y8177D02*
X126398Y8177D01*
X126882Y8177D02*
X136398Y8177D01*
X136882Y8177D02*
X146398Y8177D01*
X146882Y8177D02*
X186638Y8177D01*
X187122Y8177D02*
X196638Y8177D01*
X197122Y8177D02*
X206638Y8177D01*
X207122Y8177D02*
X246878Y8177D01*
X247362Y8177D02*
X256878Y8177D01*
X257362Y8177D02*
X266878Y8177D01*
X267362Y8177D02*
X299500Y8177D01*
X0520Y8227D02*
X3296Y8227D01*
X5704Y8227D02*
X299500Y8227D01*
X0520Y8276D02*
X3296Y8276D01*
X5704Y8276D02*
X299500Y8276D01*
X0520Y8326D02*
X3296Y8326D01*
X5704Y8326D02*
X299500Y8326D01*
X0520Y8375D02*
X3296Y8375D01*
X5704Y8375D02*
X299500Y8375D01*
X0520Y8425D02*
X3296Y8425D01*
X5704Y8425D02*
X299500Y8425D01*
X0520Y8474D02*
X3296Y8474D01*
X5704Y8474D02*
X299500Y8474D01*
X0520Y8524D02*
X3296Y8524D01*
X5704Y8524D02*
X299500Y8524D01*
X0520Y8573D02*
X3296Y8573D01*
X5704Y8573D02*
X299500Y8573D01*
X0520Y8623D02*
X3296Y8623D01*
X5704Y8623D02*
X299500Y8623D01*
X0520Y8672D02*
X3296Y8672D01*
X5704Y8672D02*
X299500Y8672D01*
X0520Y8722D02*
X3296Y8722D01*
X5704Y8722D02*
X299500Y8722D01*
X0520Y8772D02*
X3296Y8772D01*
X5704Y8772D02*
X299500Y8772D01*
X0520Y8821D02*
X3296Y8821D01*
X5704Y8821D02*
X299500Y8821D01*
X0520Y8871D02*
X3296Y8871D01*
X5704Y8871D02*
X299500Y8871D01*
X0520Y8920D02*
X3296Y8920D01*
X5704Y8920D02*
X299500Y8920D01*
X0520Y8970D02*
X3296Y8970D01*
X5704Y8970D02*
X299500Y8970D01*
X0520Y9019D02*
X3297Y9019D01*
X5703Y9019D02*
X299500Y9019D01*
X0520Y9069D02*
X3308Y9069D01*
X5692Y9069D02*
X299500Y9069D01*
X0520Y9118D02*
X3333Y9118D01*
X5667Y9118D02*
X299500Y9118D01*
X0520Y9168D02*
X3384Y9168D01*
X5616Y9168D02*
X299500Y9168D01*
X0520Y9217D02*
X299500Y9217D01*
X0520Y9267D02*
X299500Y9267D01*
X0520Y9316D02*
X299500Y9316D01*
X0520Y9366D02*
X299500Y9366D01*
X0520Y9415D02*
X299500Y9415D01*
X0520Y9465D02*
X299500Y9465D01*
X0520Y9514D02*
X299500Y9514D01*
X0520Y9564D02*
X299500Y9564D01*
X0520Y9614D02*
X299500Y9614D01*
X0520Y9663D02*
X299500Y9663D01*
X0520Y9713D02*
X299500Y9713D01*
X0520Y9762D02*
X299500Y9762D01*
X0520Y9812D02*
X299500Y9812D01*
X0520Y9861D02*
X299500Y9861D01*
X0520Y9911D02*
X299500Y9911D01*
X0520Y9960D02*
X299500Y9960D01*
X0520Y10010D02*
X299500Y10010D01*
X0520Y10059D02*
X299500Y10059D01*
X0520Y10109D02*
X299500Y10109D01*
X0520Y10158D02*
X299500Y10158D01*
X0520Y10208D02*
X299500Y10208D01*
X0520Y10257D02*
X299500Y10257D01*
X0520Y10307D02*
X299500Y10307D01*
X0520Y10356D02*
X299500Y10356D01*
X0520Y10406D02*
X299500Y10406D01*
X0520Y10456D02*
X299500Y10456D01*
%LNbottom copper_traces*%
%LNbottom copper component 64948ec6282b975c*%
D11*
X219380Y5500D03*
X224460Y5500D03*
X229540Y5500D03*
X234620Y5500D03*
%LNbottom copper component bafb513a10c30932*%
X38660Y5500D03*
X43740Y5500D03*
X48820Y5500D03*
X53900Y5500D03*
%LNbottom copper component 0d0906d43e7efb38*%
D12*
X4500Y3000D03*
D13*
X4500Y8000D03*
%LNbottom copper component c5fe30198c43897c*%
D11*
X279620Y5500D03*
X284700Y5500D03*
X289780Y5500D03*
X294860Y5500D03*
%LNbottom copper component 113af6291a531a02*%
X98900Y5500D03*
X103980Y5500D03*
X109060Y5500D03*
X114140Y5500D03*
%LNbottom copper component b86a20552cd4e8a0*%
X159140Y5500D03*
X164220Y5500D03*
X169300Y5500D03*
X174380Y5500D03*
M02*