<?xml version="1.0" encoding="utf-8" ?>
<svg baseProfile="tiny" height="99.889367967" version="1.2" width="1072.77871393" xmlns="http://www.w3.org/2000/svg" xmlns:ev="http://www.w3.org/2001/xml-events" xmlns:xlink="http://www.w3.org/1999/xlink"><defs /><g id="paths" stroke="blue"><path d="M 4.893306967,43.869683967 L 1067.88540697,43.869683967 L 1067.88540697,4.893306967 L 4.893306967,4.893306967 L 4.893306967,43.869683967 Z" fill-opacity="0" stroke-linejoin="round" stroke-width="1.0" /></g><g fill="red" id="holes"><circle cx="666.6413" cy="24.3815" r="8.8583" stroke-width="0.0" /><circle cx="702.0744" cy="24.3815" r="8.8583" stroke-width="0.0" /><circle cx="880.0901" cy="24.3815" r="8.8583" stroke-width="0.0" /><circle cx="524.0586" cy="24.3815" r="8.8583" stroke-width="0.0" /><circle cx="737.5075" cy="24.3815" r="8.8583" stroke-width="0.0" /><circle cx="488.6256" cy="24.3815" r="8.8583" stroke-width="0.0" /><circle cx="453.1925" cy="24.3815" r="8.8583" stroke-width="0.0" /><circle cx="239.7437" cy="24.3815" r="8.8583" stroke-width="0.0" /><circle cx="61.728" cy="24.3815" r="8.8583" stroke-width="0.0" /><circle cx="950.9563" cy="24.3815" r="8.8583" stroke-width="0.0" /><circle cx="915.5232" cy="24.3815" r="8.8583" stroke-width="0.0" /><circle cx="97.161" cy="24.3815" r="8.8583" stroke-width="0.0" /><circle cx="310.6098" cy="24.3815" r="8.8583" stroke-width="0.0" /><circle cx="275.1768" cy="24.3815" r="8.8583" stroke-width="0.0" /><circle cx="781.7988" cy="24.3815" r="3.5433" stroke-width="0.0" /><circle cx="799.7988" cy="24.3815" r="3.5433" stroke-width="0.0" /><circle cx="817.7988" cy="24.3815" r="3.5433" stroke-width="0.0" /><circle cx="835.7988" cy="24.3815" r="3.5433" stroke-width="0.0" /><circle cx="141.4524" cy="24.3815" r="3.5433" stroke-width="0.0" /><circle cx="159.4524" cy="24.3815" r="3.5433" stroke-width="0.0" /><circle cx="177.4524" cy="24.3815" r="3.5433" stroke-width="0.0" /><circle cx="195.4524" cy="24.3815" r="3.5433" stroke-width="0.0" /><circle cx="20.413" cy="15.5232" r="2.4803" stroke-width="0.0" /><circle cx="20.413" cy="33.2398" r="2.4803" stroke-width="0.0" /><circle cx="995.2476" cy="24.3815" r="3.5433" stroke-width="0.0" /><circle cx="1013.2476" cy="24.3815" r="3.5433" stroke-width="0.0" /><circle cx="1031.2476" cy="24.3815" r="3.5433" stroke-width="0.0" /><circle cx="1049.2476" cy="24.3815" r="3.5433" stroke-width="0.0" /><circle cx="354.9012" cy="24.3815" r="3.5433" stroke-width="0.0" /><circle cx="372.9012" cy="24.3815" r="3.5433" stroke-width="0.0" /><circle cx="390.9012" cy="24.3815" r="3.5433" stroke-width="0.0" /><circle cx="408.9012" cy="24.3815" r="3.5433" stroke-width="0.0" /><circle cx="568.35" cy="24.3815" r="3.5433" stroke-width="0.0" /><circle cx="586.35" cy="24.3815" r="3.5433" stroke-width="0.0" /><circle cx="604.35" cy="24.3815" r="3.5433" stroke-width="0.0" /><circle cx="622.35" cy="24.3815" r="3.5433" stroke-width="0.0" /></g><g id="rulers" stroke="black"><line stroke-width="1.0" x1="97.161" x2="141.4524" y1="59.8146" y2="59.8146" /><text font-family="monospace" font-size="5" stroke-width="0.3" x="119.306689997" y="64.814565467">12.5000mm</text><text font-family="monospace" font-size="5" stroke-width="0.3" x="119.306689997" y="70.814565467">(Δx=12.5000mm)</text><line stroke-width="1.0" x1="310.6098" x2="354.9012" y1="86.3894" y2="86.3894" /><text font-family="monospace" font-size="5" stroke-width="0.3" x="332.755503677" y="91.389367967">12.5000mm</text><text font-family="monospace" font-size="5" stroke-width="0.3" x="332.755503677" y="97.389367967">(Δx=12.5000mm)</text><line stroke-width="1.0" x1="835.7988" x2="880.0901" y1="61.5862" y2="61.5862" /><text font-family="monospace" font-size="5" stroke-width="0.3" x="857.944467217" y="66.586218967">12.5000mm</text><text font-family="monospace" font-size="5" stroke-width="0.3" x="857.944467217" y="72.586218967">(Δx=12.5000mm)</text><line stroke-width="1.0" x1="453.1925" x2="488.6256" y1="86.3894" y2="86.3894" /><text font-family="monospace" font-size="5" stroke-width="0.3" x="470.909043607" y="91.389367967">10.0000mm</text><text font-family="monospace" font-size="5" stroke-width="0.3" x="470.909043607" y="97.389367967">(Δx=10.0000mm)</text><line stroke-width="1.0" x1="880.0901" x2="915.5232" y1="86.3894" y2="86.3894" /><text font-family="monospace" font-size="5" stroke-width="0.3" x="897.806670967" y="91.389367967">10.0000mm</text><text font-family="monospace" font-size="5" stroke-width="0.3" x="897.806670967" y="97.389367967">(Δx=10.0000mm)</text><line stroke-width="1.0" x1="702.0744" x2="737.5075" y1="59.8146" y2="59.8146" /><text font-family="monospace" font-size="5" stroke-width="0.3" x="719.790927287" y="64.814565467">10.0000mm</text><text font-family="monospace" font-size="5" stroke-width="0.3" x="719.790927287" y="70.814565467">(Δx=10.0000mm)</text><line stroke-width="1.0" x1="950.9563" x2="995.2476" y1="86.3894" y2="86.3894" /><text font-family="monospace" font-size="5" stroke-width="0.3" x="973.101944717" y="91.389367967">12.5000mm</text><text font-family="monospace" font-size="5" stroke-width="0.3" x="973.101944717" y="97.389367967">(Δx=12.5000mm)</text><line stroke-width="1.0" x1="408.9012" x2="453.1925" y1="59.8146" y2="59.8146" /><text font-family="monospace" font-size="5" stroke-width="0.3" x="431.046839857" y="64.814565467">12.5000mm</text><text font-family="monospace" font-size="5" stroke-width="0.3" x="431.046839857" y="70.814565467">(Δx=12.5000mm)</text><line stroke-width="1.0" x1="195.4524" x2="239.7437" y1="59.8146" y2="59.8146" /><text font-family="monospace" font-size="5" stroke-width="0.3" x="217.598026177" y="64.814565467">12.5000mm</text><text font-family="monospace" font-size="5" stroke-width="0.3" x="217.598026177" y="70.814565467">(Δx=12.5000mm)</text><line stroke-width="1.0" x1="915.5232" x2="950.9563" y1="61.5862" y2="61.5862" /><text font-family="monospace" font-size="5" stroke-width="0.3" x="933.239740967" y="66.586218967">10.0000mm</text><text font-family="monospace" font-size="5" stroke-width="0.3" x="933.239740967" y="72.586218967">(Δx=10.0000mm)</text><line stroke-width="1.0" x1="239.7437" x2="275.1768" y1="86.3894" y2="86.3894" /><text font-family="monospace" font-size="5" stroke-width="0.3" x="257.460229927" y="91.389367967">10.0000mm</text><text font-family="monospace" font-size="5" stroke-width="0.3" x="257.460229927" y="97.389367967">(Δx=10.0000mm)</text><line stroke-width="1.0" x1="737.5075" x2="781.7988" y1="86.3894" y2="86.3894" /><text font-family="monospace" font-size="5" stroke-width="0.3" x="759.653131037" y="91.389367967">12.5000mm</text><text font-family="monospace" font-size="5" stroke-width="0.3" x="759.653131037" y="97.389367967">(Δx=12.5000mm)</text><line stroke-width="1.0" x1="97.161" x2="61.728" y1="86.3894" y2="86.3894" /><text font-family="monospace" font-size="5" stroke-width="0.3" x="79.444486247" y="81.389367967">10.0000mm</text><text font-family="monospace" font-size="5" stroke-width="0.3" x="79.444486247" y="87.389367967">(Δx=10.0000mm)</text><line stroke-width="1.0" x1="666.6413" x2="702.0744" y1="86.3894" y2="86.3894" /><text font-family="monospace" font-size="5" stroke-width="0.3" x="684.357857287" y="91.389367967">10.0000mm</text><text font-family="monospace" font-size="5" stroke-width="0.3" x="684.357857287" y="97.389367967">(Δx=10.0000mm)</text><line stroke-width="1.0" x1="275.1768" x2="310.6098" y1="59.8146" y2="59.8146" /><text font-family="monospace" font-size="5" stroke-width="0.3" x="292.893299927" y="64.814565467">10.0000mm</text><text font-family="monospace" font-size="5" stroke-width="0.3" x="292.893299927" y="70.814565467">(Δx=10.0000mm)</text><line stroke-width="1.0" x1="524.0586" x2="568.35" y1="86.3894" y2="86.3894" /><text font-family="monospace" font-size="5" stroke-width="0.3" x="546.204317357" y="91.389367967">12.5000mm</text><text font-family="monospace" font-size="5" stroke-width="0.3" x="546.204317357" y="97.389367967">(Δx=12.5000mm)</text><line stroke-width="1.0" x1="622.35" x2="666.6413" y1="59.8146" y2="59.8146" /><text font-family="monospace" font-size="5" stroke-width="0.3" x="644.495653537" y="64.814565467">12.5000mm</text><text font-family="monospace" font-size="5" stroke-width="0.3" x="644.495653537" y="70.814565467">(Δx=12.5000mm)</text><line stroke-width="1.0" x1="488.6256" x2="524.0586" y1="59.8146" y2="59.8146" /><text font-family="monospace" font-size="5" stroke-width="0.3" x="506.342113607" y="64.814565467">10.0000mm</text><text font-family="monospace" font-size="5" stroke-width="0.3" x="506.342113607" y="70.814565467">(Δx=10.0000mm)</text></g></svg>