<?xml version='1.0' encoding='UTF-8' standalone='no'?>
<svg xmlns="http://www.w3.org/2000/svg" width="886" height="230" x="0" y="0"><text x="554" y="31" font-size="10" font-family="sans-serif" text-anchor="start" alignment-baseline="hanging">U3</text><text x="761" y="10" font-size="10" font-family="sans-serif" text-anchor="start" alignment-baseline="hanging">VCC</text><text x="201" y="210" font-size="10" font-family="sans-serif" text-anchor="start" alignment-baseline="hanging">GND</text><text x="11" y="30" font-size="10" font-family="sans-serif" text-anchor="start" alignment-baseline="hanging">VCC</text><text x="694" y="31" font-size="10" font-family="sans-serif" text-anchor="start" alignment-baseline="hanging">U4</text><text x="396" y="160" font-size="10" font-family="sans-serif" text-anchor="start" alignment-baseline="hanging">0015244449</text><text x="274" y="31" font-size="10" font-family="sans-serif" text-anchor="start" alignment-baseline="hanging">U1</text><text x="341" y="10" font-size="10" font-family="sans-serif" text-anchor="start" alignment-baseline="hanging">VCC</text><text x="621" y="10" font-size="10" font-family="sans-serif" text-anchor="start" alignment-baseline="hanging">VCC</text><text x="761" y="210" font-size="10" font-family="sans-serif" text-anchor="start" alignment-baseline="hanging">GND</text><text x="44" y="130" font-size="10" font-family="sans-serif" text-anchor="start" alignment-baseline="hanging">282836-2A</text><text x="536" y="160" font-size="10" font-family="sans-serif" text-anchor="start" alignment-baseline="hanging">0015244449</text><text x="621" y="210" font-size="10" font-family="sans-serif" text-anchor="start" alignment-baseline="hanging">GND</text><text x="66" y="70" font-size="10" font-family="sans-serif" text-anchor="start" alignment-baseline="hanging">J1</text><text x="816" y="160" font-size="10" font-family="sans-serif" text-anchor="start" alignment-baseline="hanging">0015244449</text><text x="201" y="10" font-size="10" font-family="sans-serif" text-anchor="start" alignment-baseline="hanging">VCC</text><text x="481" y="210" font-size="10" font-family="sans-serif" text-anchor="start" alignment-baseline="hanging">GND</text><text x="676" y="160" font-size="10" font-family="sans-serif" text-anchor="start" alignment-baseline="hanging">0015244449</text><text x="255" y="160" font-size="10" font-family="sans-serif" text-anchor="start" alignment-baseline="hanging">0015244449</text><text x="11" y="190" font-size="10" font-family="sans-serif" text-anchor="start" alignment-baseline="hanging">GND</text><text x="414" y="31" font-size="10" font-family="sans-serif" text-anchor="start" alignment-baseline="hanging">U2</text><text x="481" y="10" font-size="10" font-family="sans-serif" text-anchor="start" alignment-baseline="hanging">VCC</text><text x="832" y="35" font-size="10" font-family="sans-serif" text-anchor="start" alignment-baseline="hanging">U5</text><text x="341" y="210" font-size="10" font-family="sans-serif" text-anchor="start" alignment-baseline="hanging">GND</text><line x1="491" y1="170" x2="491" y2="180" stroke-width="2" stroke="black"></line><line x1="481" y1="180" x2="501" y2="180" stroke-width="2" stroke="black"></line><line x1="484" y1="185" x2="498" y2="185" stroke-width="2" stroke="black"></line><line x1="487" y1="190" x2="495" y2="190" stroke-width="2" stroke="black"></line><line x1="631" y1="170" x2="631" y2="180" stroke-width="2" stroke="black"></line><line x1="621" y1="180" x2="641" y2="180" stroke-width="2" stroke="black"></line><line x1="624" y1="185" x2="638" y2="185" stroke-width="2" stroke="black"></line><line x1="627" y1="190" x2="635" y2="190" stroke-width="2" stroke="black"></line><line x1="648" y1="97" x2="654" y2="103" stroke-width="2" stroke="black"></line><line x1="648" y1="103" x2="654" y2="97" stroke-width="2" stroke="black"></line><line x1="228" y1="117" x2="234" y2="123" stroke-width="2" stroke="black"></line><line x1="228" y1="123" x2="234" y2="117" stroke-width="2" stroke="black"></line><line x1="788" y1="97" x2="794" y2="103" stroke-width="2" stroke="black"></line><line x1="788" y1="103" x2="794" y2="97" stroke-width="2" stroke="black"></line><rect width="50" height="90" x="536" y="55" style="stroke: #000; stroke-width: 1; fill: none;"></rect><line x1="531" y1="60" x2="536" y2="60" stroke-width="2" stroke="black"></line><text x="541" y="60" font-size="10" font-family="sans-serif" text-anchor="start" alignment-baseline="middle">12V</text><line x1="531" y1="80" x2="536" y2="80" stroke-width="2" stroke="black"></line><text x="541" y="80" font-size="10" font-family="sans-serif" text-anchor="start" alignment-baseline="middle">GND</text><line x1="531" y1="100" x2="536" y2="100" stroke-width="2" stroke="black"></line><text x="541" y="100" font-size="10" font-family="sans-serif" text-anchor="start" alignment-baseline="middle">GND</text><line x1="531" y1="120" x2="536" y2="120" stroke-width="2" stroke="black"></line><text x="541" y="120" font-size="10" font-family="sans-serif" text-anchor="start" alignment-baseline="middle">5V</text><line x1="631" y1="40" x2="631" y2="20" stroke-width="2" stroke="black"></line><line x1="631" y1="20" x2="624" y2="27" stroke-width="2" stroke="black"></line><line x1="631" y1="20" x2="638" y2="27" stroke-width="2" stroke="black"></line><line x1="508" y1="97" x2="514" y2="103" stroke-width="2" stroke="black"></line><line x1="508" y1="103" x2="514" y2="97" stroke-width="2" stroke="black"></line><rect width="20" height="30" x="61" y="90" style="stroke: #000; stroke-width: 1; fill: none;"></rect><line x1="51" y1="100" x2="61" y2="100" stroke-width="2" stroke="black"></line><text x="63" y="100" font-size="10" font-family="sans-serif" text-anchor="start" alignment-baseline="middle">1</text><line x1="51" y1="110" x2="61" y2="110" stroke-width="2" stroke="black"></line><text x="63" y="110" font-size="10" font-family="sans-serif" text-anchor="start" alignment-baseline="middle">2</text><line x1="211" y1="170" x2="211" y2="180" stroke-width="2" stroke="black"></line><line x1="201" y1="180" x2="221" y2="180" stroke-width="2" stroke="black"></line><line x1="204" y1="185" x2="218" y2="185" stroke-width="2" stroke="black"></line><line x1="207" y1="190" x2="215" y2="190" stroke-width="2" stroke="black"></line><line x1="771" y1="40" x2="771" y2="20" stroke-width="2" stroke="black"></line><line x1="771" y1="20" x2="764" y2="27" stroke-width="2" stroke="black"></line><line x1="771" y1="20" x2="778" y2="27" stroke-width="2" stroke="black"></line><line x1="211" y1="40" x2="211" y2="20" stroke-width="2" stroke="black"></line><line x1="211" y1="20" x2="204" y2="27" stroke-width="2" stroke="black"></line><line x1="211" y1="20" x2="218" y2="27" stroke-width="2" stroke="black"></line><line x1="648" y1="117" x2="654" y2="123" stroke-width="2" stroke="black"></line><line x1="648" y1="123" x2="654" y2="117" stroke-width="2" stroke="black"></line><line x1="228" y1="97" x2="234" y2="103" stroke-width="2" stroke="black"></line><line x1="228" y1="103" x2="234" y2="97" stroke-width="2" stroke="black"></line><line x1="21" y1="150" x2="21" y2="160" stroke-width="2" stroke="black"></line><line x1="11" y1="160" x2="31" y2="160" stroke-width="2" stroke="black"></line><line x1="14" y1="165" x2="28" y2="165" stroke-width="2" stroke="black"></line><line x1="17" y1="170" x2="25" y2="170" stroke-width="2" stroke="black"></line><line x1="491" y1="40" x2="491" y2="20" stroke-width="2" stroke="black"></line><line x1="491" y1="20" x2="484" y2="27" stroke-width="2" stroke="black"></line><line x1="491" y1="20" x2="498" y2="27" stroke-width="2" stroke="black"></line><line x1="368" y1="117" x2="374" y2="123" stroke-width="2" stroke="black"></line><line x1="368" y1="123" x2="374" y2="117" stroke-width="2" stroke="black"></line><line x1="368" y1="97" x2="374" y2="103" stroke-width="2" stroke="black"></line><line x1="368" y1="103" x2="374" y2="97" stroke-width="2" stroke="black"></line><line x1="21" y1="60" x2="21" y2="40" stroke-width="2" stroke="black"></line><line x1="21" y1="40" x2="14" y2="47" stroke-width="2" stroke="black"></line><line x1="21" y1="40" x2="28" y2="47" stroke-width="2" stroke="black"></line><line x1="508" y1="117" x2="514" y2="123" stroke-width="2" stroke="black"></line><line x1="508" y1="123" x2="514" y2="117" stroke-width="2" stroke="black"></line><rect width="50" height="90" x="676" y="55" style="stroke: #000; stroke-width: 1; fill: none;"></rect><line x1="671" y1="60" x2="676" y2="60" stroke-width="2" stroke="black"></line><text x="681" y="60" font-size="10" font-family="sans-serif" text-anchor="start" alignment-baseline="middle">12V</text><line x1="671" y1="80" x2="676" y2="80" stroke-width="2" stroke="black"></line><text x="681" y="80" font-size="10" font-family="sans-serif" text-anchor="start" alignment-baseline="middle">GND</text><line x1="671" y1="100" x2="676" y2="100" stroke-width="2" stroke="black"></line><text x="681" y="100" font-size="10" font-family="sans-serif" text-anchor="start" alignment-baseline="middle">GND</text><line x1="671" y1="120" x2="676" y2="120" stroke-width="2" stroke="black"></line><text x="681" y="120" font-size="10" font-family="sans-serif" text-anchor="start" alignment-baseline="middle">5V</text><line x1="351" y1="170" x2="351" y2="180" stroke-width="2" stroke="black"></line><line x1="341" y1="180" x2="361" y2="180" stroke-width="2" stroke="black"></line><line x1="344" y1="185" x2="358" y2="185" stroke-width="2" stroke="black"></line><line x1="347" y1="190" x2="355" y2="190" stroke-width="2" stroke="black"></line><line x1="788" y1="117" x2="794" y2="123" stroke-width="2" stroke="black"></line><line x1="788" y1="123" x2="794" y2="117" stroke-width="2" stroke="black"></line><line x1="771" y1="170" x2="771" y2="180" stroke-width="2" stroke="black"></line><line x1="761" y1="180" x2="781" y2="180" stroke-width="2" stroke="black"></line><line x1="764" y1="185" x2="778" y2="185" stroke-width="2" stroke="black"></line><line x1="767" y1="190" x2="775" y2="190" stroke-width="2" stroke="black"></line><line x1="351" y1="40" x2="351" y2="20" stroke-width="2" stroke="black"></line><line x1="351" y1="20" x2="344" y2="27" stroke-width="2" stroke="black"></line><line x1="351" y1="20" x2="358" y2="27" stroke-width="2" stroke="black"></line><rect width="50" height="90" x="256" y="55" style="stroke: #000; stroke-width: 1; fill: none;"></rect><line x1="251" y1="60" x2="256" y2="60" stroke-width="2" stroke="black"></line><text x="261" y="60" font-size="10" font-family="sans-serif" text-anchor="start" alignment-baseline="middle">12V</text><line x1="251" y1="80" x2="256" y2="80" stroke-width="2" stroke="black"></line><text x="261" y="80" font-size="10" font-family="sans-serif" text-anchor="start" alignment-baseline="middle">GND</text><line x1="251" y1="100" x2="256" y2="100" stroke-width="2" stroke="black"></line><text x="261" y="100" font-size="10" font-family="sans-serif" text-anchor="start" alignment-baseline="middle">GND</text><line x1="251" y1="120" x2="256" y2="120" stroke-width="2" stroke="black"></line><text x="261" y="120" font-size="10" font-family="sans-serif" text-anchor="start" alignment-baseline="middle">5V</text><rect width="50" height="90" x="396" y="55" style="stroke: #000; stroke-width: 1; fill: none;"></rect><line x1="391" y1="60" x2="396" y2="60" stroke-width="2" stroke="black"></line><text x="401" y="60" font-size="10" font-family="sans-serif" text-anchor="start" alignment-baseline="middle">12V</text><line x1="391" y1="80" x2="396" y2="80" stroke-width="2" stroke="black"></line><text x="401" y="80" font-size="10" font-family="sans-serif" text-anchor="start" alignment-baseline="middle">GND</text><line x1="391" y1="100" x2="396" y2="100" stroke-width="2" stroke="black"></line><text x="401" y="100" font-size="10" font-family="sans-serif" text-anchor="start" alignment-baseline="middle">GND</text><line x1="391" y1="120" x2="396" y2="120" stroke-width="2" stroke="black"></line><text x="401" y="120" font-size="10" font-family="sans-serif" text-anchor="start" alignment-baseline="middle">5V</text><rect width="50" height="90" x="816" y="55" style="stroke: #000; stroke-width: 1; fill: none;"></rect><line x1="811" y1="60" x2="816" y2="60" stroke-width="2" stroke="black"></line><text x="821" y="60" font-size="10" font-family="sans-serif" text-anchor="start" alignment-baseline="middle">12V</text><line x1="811" y1="80" x2="816" y2="80" stroke-width="2" stroke="black"></line><text x="821" y="80" font-size="10" font-family="sans-serif" text-anchor="start" alignment-baseline="middle">GND</text><line x1="811" y1="100" x2="816" y2="100" stroke-width="2" stroke="black"></line><text x="821" y="100" font-size="10" font-family="sans-serif" text-anchor="start" alignment-baseline="middle">GND</text><line x1="811" y1="120" x2="816" y2="120" stroke-width="2" stroke="black"></line><text x="821" y="120" font-size="10" font-family="sans-serif" text-anchor="start" alignment-baseline="middle">5V</text><line x1="371" y1="120" x2="391" y2="120" stroke-width="2" stroke="black"></line><line x1="391" y1="80" x2="351" y2="80" stroke-width="2" stroke="black"></line><line x1="631" y1="80" x2="671" y2="80" stroke-width="2" stroke="black"></line><line x1="351" y1="170" x2="351" y2="80" stroke-width="2" stroke="black"></line><line x1="801" y1="100" x2="811" y2="100" stroke-width="2" stroke="black"></line><line x1="811" y1="120" x2="791" y2="120" stroke-width="2" stroke="black"></line><line x1="671" y1="120" x2="651" y2="120" stroke-width="2" stroke="black"></line><line x1="521" y1="120" x2="511" y2="120" stroke-width="2" stroke="black"></line><line x1="521" y1="120" x2="531" y2="120" stroke-width="2" stroke="black"></line><line x1="241" y1="120" x2="251" y2="120" stroke-width="2" stroke="black"></line><line x1="241" y1="120" x2="231" y2="120" stroke-width="2" stroke="black"></line><line x1="351" y1="40" x2="351" y2="60" stroke-width="2" stroke="black"></line><line x1="211" y1="170" x2="211" y2="80" stroke-width="2" stroke="black"></line><line x1="21" y1="110" x2="51" y2="110" stroke-width="2" stroke="black"></line><line x1="21" y1="110" x2="21" y2="150" stroke-width="2" stroke="black"></line><line x1="251" y1="80" x2="211" y2="80" stroke-width="2" stroke="black"></line><line x1="791" y1="100" x2="801" y2="100" stroke-width="2" stroke="black"></line><line x1="21" y1="100" x2="51" y2="100" stroke-width="2" stroke="black"></line><line x1="21" y1="100" x2="21" y2="60" stroke-width="2" stroke="black"></line><line x1="631" y1="170" x2="631" y2="80" stroke-width="2" stroke="black"></line><line x1="771" y1="80" x2="771" y2="170" stroke-width="2" stroke="black"></line><line x1="771" y1="40" x2="771" y2="60" stroke-width="2" stroke="black"></line><line x1="241" y1="100" x2="231" y2="100" stroke-width="2" stroke="black"></line><line x1="491" y1="80" x2="491" y2="170" stroke-width="2" stroke="black"></line><line x1="491" y1="80" x2="531" y2="80" stroke-width="2" stroke="black"></line><line x1="521" y1="100" x2="531" y2="100" stroke-width="2" stroke="black"></line><line x1="521" y1="100" x2="511" y2="100" stroke-width="2" stroke="black"></line><line x1="811" y1="80" x2="771" y2="80" stroke-width="2" stroke="black"></line><line x1="251" y1="100" x2="241" y2="100" stroke-width="2" stroke="black"></line><line x1="381" y1="100" x2="391" y2="100" stroke-width="2" stroke="black"></line><line x1="381" y1="100" x2="371" y2="100" stroke-width="2" stroke="black"></line><line x1="811" y1="60" x2="771" y2="60" stroke-width="2" stroke="black"></line><line x1="391" y1="60" x2="351" y2="60" stroke-width="2" stroke="black"></line><line x1="491" y1="60" x2="491" y2="40" stroke-width="2" stroke="black"></line><line x1="491" y1="60" x2="531" y2="60" stroke-width="2" stroke="black"></line><line x1="211" y1="60" x2="211" y2="40" stroke-width="2" stroke="black"></line><line x1="211" y1="60" x2="251" y2="60" stroke-width="2" stroke="black"></line><line x1="651" y1="100" x2="671" y2="100" stroke-width="2" stroke="black"></line><line x1="631" y1="60" x2="631" y2="40" stroke-width="2" stroke="black"></line><line x1="631" y1="60" x2="671" y2="60" stroke-width="2" stroke="black"></line></svg>